<?xml version="1.0" encoding="utf-8"?>
<!-- Generator: Adobe Illustrator 25.2.3, SVG Export Plug-In . SVG Version: 6.00 Build 0)  -->
<svg version="1.1" id="Layer_1" xmlns="http://www.w3.org/2000/svg" xmlns:xlink="http://www.w3.org/1999/xlink" x="0px" y="0px"
	 viewBox="0 0 1381.8 474.3" style="enable-background:new 0 0 1381.8 474.3;" xml:space="preserve">
<style type="text/css">
	.st0{fill:#FFFFFF;}
	.st1{fill:#F7F7F7;stroke:#000000;stroke-miterlimit:10;}
	.st2{fill:#D1D3D4;}
	.st3{fill:#53BEED;}
	.st4{fill:#74AB42;}
	.st5{fill:#7F8080;}
	.st6{fill:none;stroke:#231F20;stroke-width:1.9934;stroke-miterlimit:10;}
	.st7{fill:#A31D32;}
	.st8{fill:#231F20;}
	.st9{fill:#EC81B4;}
	.st10{fill:#1173BB;}
	.st11{fill:#80308C;}
	.st12{fill:#D75528;}
	.st13{fill:#EBB222;}
	.st14{fill:none;stroke:#EC7E30;stroke-width:3.0021;stroke-linecap:round;stroke-linejoin:round;stroke-miterlimit:8;}
	.st15{fill:none;stroke:#FCC015;stroke-width:3.0021;stroke-linecap:round;stroke-linejoin:round;stroke-miterlimit:8;}
	.st16{fill:none;stroke:#71AD44;stroke-width:3.0021;stroke-linecap:round;stroke-linejoin:round;stroke-miterlimit:8;}
	.st17{fill:none;stroke:#6F3B97;stroke-width:3.0021;stroke-linecap:round;stroke-linejoin:round;stroke-miterlimit:8;}
	.st18{fill:none;stroke:#4A72B8;stroke-width:3.0021;stroke-linecap:round;stroke-linejoin:round;stroke-miterlimit:8;}
	.st19{fill:none;stroke:#7F8081;stroke-width:2.9908;stroke-linecap:round;stroke-linejoin:round;stroke-miterlimit:8;}
	.st20{fill:#50BEED;stroke:#000000;stroke-width:0.8511;stroke-miterlimit:10;}
	.st21{fill:#F3BCBC;stroke:#000000;stroke-width:0.8511;stroke-miterlimit:10;}
	.st22{fill:none;stroke:#000000;stroke-width:0.8077;stroke-miterlimit:10;}
	.st23{fill:#F4CBCB;stroke:#000000;stroke-width:0.8077;stroke-miterlimit:10;}
	.st24{fill:#95D5EC;stroke:#000000;stroke-width:0.8077;stroke-miterlimit:10;}
	.st25{fill:none;stroke:#000000;stroke-width:5;stroke-linecap:round;stroke-linejoin:round;}
	.st26{fill:url(#SVGID_1_);stroke:#000000;stroke-width:0.7317;stroke-miterlimit:10;}
	.st27{fill:none;stroke:#7F8080;stroke-width:2.9292;stroke-linecap:round;stroke-linejoin:round;stroke-miterlimit:10;}
	.st28{fill:none;stroke:#231F20;stroke-width:2.9292;stroke-linecap:round;stroke-linejoin:round;stroke-miterlimit:10;}
	.st29{fill:none;stroke:#EC81B4;stroke-width:2.9292;stroke-linecap:round;stroke-linejoin:round;stroke-miterlimit:10;}
	.st30{fill:none;stroke:#A31D32;stroke-width:2.9292;stroke-linecap:round;stroke-linejoin:round;stroke-miterlimit:10;}
	.st31{fill:none;stroke:#53BEED;stroke-width:2.9292;stroke-linecap:round;stroke-linejoin:round;stroke-miterlimit:10;}
	.st32{fill:none;stroke:#000000;stroke-width:2.6429;stroke-linecap:round;stroke-linejoin:round;}
	.st33{fill:none;stroke:#000000;stroke-width:2;stroke-miterlimit:10;}
	.st34{fill:none;}
	.st35{fill:none;stroke:#000000;stroke-miterlimit:10;stroke-dasharray:1,1;}
	.st36{fill:none;stroke:#000000;stroke-linecap:round;stroke-linejoin:round;}
	.st37{fill:#C49C94;fill-opacity:0.5;stroke:#C49C94;stroke-width:0.5;stroke-miterlimit:10;}
	.st38{fill:#8C564C;fill-opacity:0.5;stroke:#8C564C;stroke-width:0.603;stroke-miterlimit:10;}
</style>
<rect x="0.4" y="0.3" class="st0" width="1381" height="474"/>
<path class="st1" d="M909.2,392.8H584.6c-7.6,0-13.7-6.1-13.7-13.7v-86.4c0-7.6,6.1-13.7,13.7-13.7h324.5c7.6,0,13.7,6.1,13.7,13.7
	v86.4C922.9,386.7,916.8,392.8,909.2,392.8z"/>
<path class="st1" d="M1255.9,468.8h-179.3c-6.1,0-11-4.9-11-11v-106c0-6.1,4.9-11,11-11h179.3c6.1,0,11,4.9,11,11v106
	C1266.9,463.9,1262,468.8,1255.9,468.8z"/>
<rect x="299.1" y="93.4" class="st2" width="101.5" height="270.9"/>
<rect x="141.9" y="92" class="st2" width="93.2" height="272.3"/>
<path class="st1" d="M1012.9,133.4H895.8c-4.9,0-8.9-4-8.9-8.9V17.7c0-4.9,4-8.9,8.9-8.9h117.2c4.9,0,8.9,4,8.9,8.9v106.8
	C1021.8,129.4,1017.9,133.4,1012.9,133.4z"/>
<path d="M838.1,259.2H664.9c-4,0-7.2-3.2-7.2-7.2v-62c0-4,3.2-7.2,7.2-7.2h173.1c4,0,7.2,3.2,7.2,7.2v62
	C845.3,255.9,842.1,259.2,838.1,259.2z"/>
<path class="st3" d="M1176.9,97c0,6.6-5.4,11.9-12.1,11.9c-6.7,0-12.1-5.3-12.1-11.9c0-6.6,5.4-11.9,12.1-11.9
	C1171.5,85.1,1176.9,90.4,1176.9,97"/>
<path class="st4" d="M1152.8,118.3c0,6.6-5.4,11.9-12.1,11.9c-6.7,0-12.1-5.3-12.1-11.9c0-6.6,5.4-11.9,12.1-11.9
	C1147.4,106.4,1152.8,111.7,1152.8,118.3"/>
<path class="st5" d="M1201.3,118.3c0,6.6-5.4,11.9-12.1,11.9c-6.7,0-12.1-5.3-12.1-11.9c0-6.6,5.4-11.9,12.1-11.9
	C1195.9,106.4,1201.3,111.7,1201.3,118.3"/>
<path class="st6" d="M1211.2,118.6c0,25.3-20.7,45.7-46.3,45.7c-25.6,0-46.3-20.5-46.3-45.7c0-25.2,20.7-45.7,46.3-45.7
	C1190.5,72.9,1211.2,93.3,1211.2,118.6z"/>
<path class="st7" d="M1092.3,288.6c0,6.6-5.4,11.9-12.1,11.9c-6.7,0-12.1-5.3-12.1-11.9c0-6.6,5.4-11.9,12.1-11.9
	C1086.9,276.7,1092.3,282,1092.3,288.6"/>
<path class="st8" d="M1092.3,242.3c0,6.6-5.4,11.9-12.1,11.9c-6.7,0-12.1-5.3-12.1-11.9c0-6.6,5.4-11.9,12.1-11.9
	C1086.9,230.4,1092.3,235.8,1092.3,242.3"/>
<path class="st9" d="M1116.6,263.6c0,6.6-5.4,11.9-12.1,11.9c-6.7,0-12.1-5.3-12.1-11.9c0-6.6,5.4-11.9,12.1-11.9
	C1111.2,251.7,1116.6,257,1116.6,263.6"/>
<path class="st10" d="M1068.2,263.6c0,6.6-5.4,11.9-12.1,11.9c-6.7,0-12.1-5.3-12.1-11.9c0-6.6,5.4-11.9,12.1-11.9
	C1062.8,251.7,1068.2,257,1068.2,263.6"/>
<path class="st6" d="M1126.6,263.9c0,25.3-20.7,45.7-46.3,45.7c-25.6,0-46.3-20.5-46.3-45.7c0-25.2,20.7-45.7,46.3-45.7
	C1105.8,218.2,1126.6,238.7,1126.6,263.9z"/>
<path class="st11" d="M1262,242.3c0,6.6-5.4,11.9-12.1,11.9c-6.7,0-12.1-5.3-12.1-11.9c0-6.6,5.4-11.9,12.1-11.9
	C1256.6,230.4,1262,235.8,1262,242.3"/>
<path class="st12" d="M1286.3,263.6c0,6.6-5.4,11.9-12.1,11.9s-12.1-5.3-12.1-11.9c0-6.6,5.4-11.9,12.1-11.9
	S1286.3,257,1286.3,263.6"/>
<path class="st13" d="M1237.9,263.6c0,6.6-5.4,11.9-12.1,11.9c-6.7,0-12.1-5.3-12.1-11.9c0-6.6,5.4-11.9,12.1-11.9
	C1232.5,251.7,1237.9,257,1237.9,263.6"/>
<path class="st6" d="M1296.3,263.9c0,25.3-20.7,45.7-46.3,45.7c-25.6,0-46.3-20.5-46.3-45.7c0-25.2,20.7-45.7,46.3-45.7
	C1275.5,218.2,1296.3,238.7,1296.3,263.9z"/>
<g>
	<g>
		<path class="st6" d="M1098.5,209.3c10.2-23,23.1-43.5,35.8-56.4"/>
		<g>
			<polygon class="st8" points="1103.7,210 1095.7,215.9 1094.5,206 			"/>
		</g>
	</g>
</g>
<g>
	<g>
		<path class="st6" d="M1198.9,278.9c-22.2,6-50.9,3.8-73.9-3.4"/>
		<g>
			
				<rect x="1197.9" y="272.4" transform="matrix(0.9688 -0.2478 0.2478 0.9688 -31.718 305.7906)" class="st8" width="2" height="13"/>
		</g>
	</g>
</g>
<g>
	<g>
		<path class="st6" d="M1211.8,217.5c-13.6-17.6-26.8-42.5-30.7-56.1"/>
		<g>
			<polygon class="st8" points="1214.8,213.2 1216.4,223 1207.1,219.4 			"/>
		</g>
	</g>
</g>
<path class="st14" d="M67,132.4c11.9-9.9,23.8-19.8,34.6-17.9c10.8,1.9,12.7,19.8,30.3,29.5c17.6,9.7,17.4-6.1,38.3-0.2
	c32.3,9,50.3-25.7,64.6-26c20.3-0.4,49.5,53.6,80.5,51.8c29.1-1.7,57.6,29.1,85,27.2c46.5-3.3,86.7-39,86.7-39"/>
<path class="st15" d="M66.8,159.3c12.4,13,27.8,26.8,43.5,28.2c15.7,1.4,35-19,53.5-18.9c18.5,0.1,55.6-39.9,71.8-35.8
	c1.9,0.5,6.3,54,19.7,54c18.9,0,20.5-21,44.1-20c22.8,1,80.4,25.1,101.6,23c45-4.4,85.9-24,85.9-24"/>
<path class="st16" d="M67.3,146.5c31.6-13.2,29.7-4.7,43.1-17.7c10.7-10.4,16.1,2.9,32.3,2c8.1-0.5,18.9-29,92.2-29
	c7.9,0,30.5,26.9,64.6,29c26.3,1.6,64.5,40,100.1,40c22.8,0,69.3-37,86.7-38"/>
<path class="st17" d="M67,206.2c33.3-29.3,49.7-89.4,74.1-89.4c23.6,0,21.5,46.2,93.8-15c9.5-8,46.3,40.1,64.6,40
	c29.5-0.1,72.5,35.2,100.9,35c46.9-0.4,86.7-25,86.7-25"/>
<path class="st18" d="M66.5,218c29.2-42.1,40.9-105.8,76.1-109.1c6.9-0.6,43.2-7.3,92.2-7c18.5,0.1,44.6,15.2,63.8,7
	c72.5-31,69.9,73.7,102.4,74c47.8,0.5,85.9-72,85.9-72"/>
<path class="st19" d="M64.1,332.4c29.2-41.8,55.4-70.6,78.5-70.6c10.9,0,46.9-12,93-12c23.1,0,38,4.2,63.8,9
	c34.8,6.5,69.4,39.2,100.9,44c35.4,5.4,66.2-48.7,84.2-49.1"/>
<g>
	<path d="M14.5,49.1c-0.6,0-1.9,0-3.5-0.6c-0.1,0-2.6-0.9-2.6-1.4c0-0.1,0-0.1,0-0.3l0.4-2.1c0.1-0.4,0.2-0.4,0.3-0.4
		c0.1,0,0.1,0,0.4,0.3c1.2,1.1,3,1.9,5,1.9c0.8,0,2.9-0.1,2.9-2.3c0-0.9-0.5-1.4-0.7-1.7c-0.5-0.5-1.1-0.6-2.4-0.9
		c-1.9-0.4-3-0.7-4.2-1.9c-0.5-0.5-1.3-1.6-1.3-3.3c0-4.5,3.7-5,5.9-5c1.2,0,2.6,0.1,4.3,1c0.6,0.3,0.6,0.3,0.6,0.5
		c0,0.1,0,0.1,0,0.3l-0.4,2.1c-0.1,0.4-0.2,0.4-0.3,0.4c-0.1,0-0.1,0-0.5-0.4c-1.2-1.2-2.4-1.5-3.7-1.5c-0.8,0-2.9,0-2.9,2.1
		c0,1.4,1.5,1.9,2,2l2.3,0.5c2.4,0.6,4.4,2.6,4.4,5.3C20.4,47.5,18.1,49.1,14.5,49.1z"/>
	<path d="M32.2,43.4h-6.5c0.1,1.5,0.4,3.7,3.1,3.7c0.8,0,2.2-0.2,3.6-1.4c0.3-0.2,0.3-0.2,0.4-0.2c0.2,0,0.2,0,0.3,0.8
		c0,0.2,0.1,0.9,0.1,1.1c0,0.3-0.2,0.4-0.7,0.6c-1.6,0.8-3,0.9-3.9,0.9c-3.8,0-6-1.9-6-5.9c0-3.6,1.9-5.8,5.7-5.8c3.6,0,5,2.1,5,5.2
		C33.4,43.4,32.8,43.4,32.2,43.4z M28.4,38.9c-2.1,0-2.6,1.8-2.6,3.3h5C30.6,40.3,30.3,38.9,28.4,38.9z"/>
	<path d="M45,53.2h-1c-1,0-1.2-0.4-1.2-1.2v-4.7c-0.8,0.9-1.7,1.4-3,1.4c-4.5,0-4.8-3.9-4.8-5.7c0-1.9,0.4-5.8,5-5.8
		c0.4,0,1.8,0,2.9,1.6v-0.5c0-0.8,0.2-1.2,1.2-1.2H45c1,0,1.2,0.4,1.2,1.2v13.6C46.1,52.9,45.9,53.2,45,53.2z M42.9,41.1
		c0-0.3,0-0.7-0.6-1.3c-0.4-0.5-0.9-0.6-1.3-0.6c-2.7,0-2.7,3-2.7,3.9c0,0.9,0,4,2.4,4c1.1,0,1.8-0.7,2.2-1.3V41.1z"/>
	<path d="M58.5,48.6h-0.9c-1,0-1.2-0.4-1.2-1.2v-0.6c-1.1,2-2.8,2-3.5,2c-2.5,0-3.9-0.7-3.9-3.3v-6.8c0-0.9,0.3-1.2,1.2-1.2h1
		c1,0,1.2,0.4,1.2,1.2v7c0,1.3,0.1,1.6,1.5,1.6c1.7,0,2.5-1.4,2.5-3v-5.7c0-0.8,0.2-1.2,1.2-1.2h1c1,0,1.2,0.4,1.2,1.2v8.7
		C59.6,48.3,59.4,48.6,58.5,48.6z"/>
	<path d="M71.4,43.4h-6.5c0.1,1.5,0.4,3.7,3.1,3.7c0.8,0,2.2-0.2,3.6-1.4c0.3-0.2,0.3-0.2,0.4-0.2c0.2,0,0.2,0,0.3,0.8
		c0,0.2,0.1,0.9,0.1,1.1c0,0.3-0.2,0.4-0.7,0.6c-1.6,0.8-3,0.9-3.9,0.9c-3.8,0-6-1.9-6-5.9c0-3.6,1.9-5.8,5.7-5.8c3.6,0,5,2.1,5,5.2
		C72.6,43.4,72,43.4,71.4,43.4z M67.6,38.9c-2.1,0-2.6,1.8-2.6,3.3h5C69.8,40.3,69.5,38.9,67.6,38.9z"/>
	<path d="M84.2,48.6h-1c-1,0-1.2-0.4-1.2-1.2v-6.6c0-1.2-0.2-1.8-1.4-1.8c-1.2,0-2.6,1-2.6,3.1v5.3c0,0.8-0.2,1.2-1.2,1.2h-1
		c-0.9,0-1.2-0.3-1.2-1.2v-8.8c0-0.9,0.3-1.2,1.2-1.2h0.8c1,0,1.2,0.4,1.2,1.2v1.2h0c0.3-0.6,1.4-2.5,3.9-2.5c2.4,0,3.5,1,3.5,3.5
		v6.6C85.3,48.3,85.1,48.6,84.2,48.6z"/>
	<path d="M97.1,48c-1.6,0.8-3,0.8-3.7,0.8c-3.6,0-5.7-1.8-5.7-5.8c0-4.2,2.2-5.9,5.8-5.9c1.7,0,2.4,0.2,3.6,0.8
		c0.4,0.2,0.6,0.3,0.6,0.5c0,0.1-0.2,1.5-0.3,1.7c0,0.1-0.1,0.3-0.3,0.3c-0.1,0-0.1,0-0.4-0.3c-0.9-0.7-1.5-1.1-3.1-1.1
		c-2.4,0-2.6,2-2.6,4c0,1.5,0,4,2.5,4c2,0,3.1-1,3.5-1.3c0.2-0.2,0.3-0.2,0.4-0.2c0.2,0,0.3,0.2,0.3,0.3c0,0.3,0.1,1.4,0.1,1.7
		C97.8,47.6,97.7,47.6,97.1,48z"/>
	<path d="M102.2,35.2H101c-1,0-1.2-0.5-1.2-1.2v-0.5c0-0.8,0.2-1.2,1.2-1.2h1.2c1,0,1.2,0.4,1.2,1.2V34
		C103.4,34.8,103.2,35.2,102.2,35.2z M102,48.6h-0.9c-0.9,0-1.2-0.3-1.2-1.2v-8.7c0-0.9,0.3-1.2,1.2-1.2h0.9c1,0,1.2,0.4,1.2,1.2
		v8.7C103.2,48.3,103,48.6,102,48.6z"/>
	<path d="M115.5,48.6h-1c-1,0-1.2-0.4-1.2-1.2v-6.6c0-1.2-0.2-1.8-1.4-1.8c-1.2,0-2.6,1-2.6,3.1v5.3c0,0.8-0.2,1.2-1.2,1.2h-1
		c-0.9,0-1.2-0.3-1.2-1.2v-8.8c0-0.9,0.3-1.2,1.2-1.2h0.8c1,0,1.2,0.4,1.2,1.2v1.2h0c0.3-0.6,1.4-2.5,3.9-2.5c2.4,0,3.5,1,3.5,3.5
		v6.6C116.7,48.3,116.4,48.6,115.5,48.6z"/>
	<path d="M130.6,39.2c-0.1,0-0.2,0-0.3-0.1c-1-0.3-1.8-0.3-2.2-0.3c0.2,0.3,0.7,1.1,0.7,2.5c0,4-3.8,4-4.8,4c-0.5,0-1.9,0-3-0.6
		c0,0.1,0,0.2,0,0.4c0,0.6,0.4,1,0.5,1.1c0.3,0.3,0.7,0.3,1.5,0.3h1.2c3.2,0,6.6,0,6.6,3.7c0,3.4-4.6,3.4-6,3.4
		c-1.1,0-2.7,0-4.1-0.6c-1.5-0.7-1.9-1.9-1.9-2.7c0-1.5,1.2-2,1.6-2.1c-0.5-0.6-0.6-1.4-0.6-1.9c0-0.1,0-1.1,0.6-1.9
		c-0.9-0.8-1.2-2-1.2-3c0-4,3.8-4,4.8-4c1,0,2.3,0.1,3.4,0.8c0.9-0.6,2.1-0.8,2.9-0.8c0.4,0,0.4,0,0.5,0.6c0,0.2,0.2,0.8,0.2,0.9
		C131,39,130.8,39.2,130.6,39.2z M125.3,49h-2.8c-0.6,0-1.3,0-1.3,1.1c0,1.7,2.6,1.7,3.5,1.7c0.8,0,3.5,0,3.5-1.6
		C128.2,49.3,127.2,49,125.3,49z M124,39.1c-1.7,0-1.8,0.9-1.8,2.3c0,1.3,0.1,2.2,1.8,2.2s1.8-0.9,1.8-2.3
		C125.8,40,125.7,39.1,124,39.1z"/>
	<path d="M154.9,48.6h-1.4c-0.5,0-0.8,0-1.1-0.6l-3.9-6.9h-2.7v6.3c0,0.8-0.2,1.2-1.2,1.2h-1.2c-0.9,0-1.2-0.3-1.2-1.2V33.1
		c0-0.9,0.3-1.2,1.2-1.2h5.8c1.1,0,6.3,0,6.3,4.7c0,3-2.3,3.9-3.8,4.2l4.1,7C155.8,48.6,155.4,48.6,154.9,48.6z M148.9,34h-3.1v5.4
		h3.1c3,0,3.3-1.3,3.3-2.7C152.2,35.1,151.7,34,148.9,34z"/>
	<path d="M167.4,43.4h-6.5c0.1,1.5,0.4,3.7,3.1,3.7c0.8,0,2.2-0.2,3.6-1.4c0.3-0.2,0.3-0.2,0.4-0.2c0.2,0,0.2,0,0.3,0.8
		c0,0.2,0.1,0.9,0.1,1.1c0,0.3-0.2,0.4-0.7,0.6c-1.6,0.8-3,0.9-3.9,0.9c-3.8,0-6-1.9-6-5.9c0-3.6,1.9-5.8,5.7-5.8c3.6,0,5,2.1,5,5.2
		C168.5,43.4,167.9,43.4,167.4,43.4z M163.5,38.9c-2.1,0-2.6,1.8-2.6,3.3h5C165.8,40.3,165.4,38.9,163.5,38.9z"/>
	<path d="M179.5,48.6h-0.9c-1,0-1.2-0.4-1.2-1.2V47c-1.1,1.7-2.9,1.9-3.7,1.9c-2.1,0-3.5-1.8-3.5-3.5c0-3.5,6.3-3.6,7.1-3.6V41
		c0-1.4-0.4-2.2-1.7-2.2c-1.5,0-2.7,0.5-3.7,1.6c-0.1,0.1-0.1,0.1-0.3,0.1c-0.2,0-0.3-0.1-0.3-0.3c0-0.2-0.2-1.6-0.2-1.8
		c0-0.3,0.1-0.3,0.6-0.6c1.6-0.7,2.8-0.8,3.9-0.8c1.2,0,4.8,0,4.8,3.8v6.4C180.7,48.3,180.4,48.6,179.5,48.6z M177.4,42.8
		c-0.7,0-4,0.2-4,2.5c0,0.9,0.6,1.8,1.7,1.8c0.1,0,2.4,0,2.4-2.2V42.8z"/>
	<path d="M192.7,48.6h-1c-0.8,0-1.2-0.2-1.2-1.1c-1,1.1-2.1,1.4-3.1,1.4c-4.8,0-4.8-4.6-4.8-5.7c0-1.2,0-5.8,4.9-5.8
		c0.7,0,1.9,0.2,3,1.2v-5.4c0-0.8,0.2-1.2,1.2-1.2h0.9c1,0,1.2,0.4,1.2,1.2v14.4C193.9,48.3,193.6,48.6,192.7,48.6z M190.6,39.8
		c-0.5-0.5-1.2-0.7-1.9-0.7c-2.7,0-2.7,2.3-2.7,4.1c0,1.8,0,4,2.4,4c0.3,0,0.8,0,1.4-0.4c0.7-0.5,0.7-0.7,0.7-1.1V39.8z"/>
	<path d="M200.6,48.8c-0.4,0-1.4,0-2.7-0.4c0,0-1.8-0.6-1.8-1c0-0.2,0.3-1.6,0.3-1.9c0-0.1,0.1-0.4,0.3-0.4c0.1,0,0.2,0.1,0.3,0.2
		c1.1,1.3,2.5,1.7,3.5,1.7c0.9,0,1.9-0.2,1.9-1.3c0-1.1-1.2-1.3-1.9-1.4c-1.4-0.3-2.3-0.4-3.1-1.2c-0.6-0.6-1.2-1.3-1.2-2.5
		c0-3.4,3.2-3.4,4.3-3.4c0.6,0,1.4,0,2.4,0.3c0.3,0.1,1.5,0.4,1.5,0.8c0,0.1-0.2,1.5-0.3,1.7c0,0.1-0.1,0.3-0.3,0.3
		c-0.1,0-0.1,0-0.4-0.2c-0.6-0.5-1.5-1.1-3.1-1.1c-0.9,0-1.7,0.2-1.7,1.2c0,0.9,1,1.1,2.3,1.4c1,0.2,1.8,0.3,2.8,1.2
		c0.4,0.4,1.2,1.2,1.2,2.6C204.9,48.8,201.8,48.8,200.6,48.8z"/>
</g>
<g>
	<path d="M23.6,390.9l-4.8-0.1v12.9c0,0.8-0.2,1.2-1.2,1.2h-1.2c-0.9,0-1.2-0.3-1.2-1.2v-12.9l-4.8,0.1c-0.7,0-1.2,0-1.2-1.2v-0.2
		c0-0.9,0.3-1.2,1.2-1.2h13.3c1,0,1.2,0.4,1.2,1.2v0.2C24.9,390.9,24.3,390.9,23.6,390.9z"/>
	<path d="M30.2,405.2c-3.8,0-5.8-1.8-5.8-5.7c0-3.9,1.8-6,5.9-6c3.9,0,5.8,2.1,5.8,6S34,405.2,30.2,405.2z M30.2,395.3
		c-2.6,0-2.6,2.1-2.6,4c0,1.9,0,4.1,2.6,4.1c2.6,0,2.6-2.2,2.6-4.1C32.8,397.4,32.8,395.3,30.2,395.3z"/>
	<path d="M44,404.8c-1.2,0.4-2.3,0.4-2.5,0.4c-1.7,0-2.5-1-2.5-3.5v-6.1h-0.5c-0.3,0-1.2,0-1.2-0.9s0.9-0.9,1.2-0.9H39v-2
		c0-0.9,0.3-1.2,1.2-1.2h0.7c1,0,1.2,0.4,1.2,1.2v2h2.1c0.3,0,1.2,0,1.2,0.9s-0.9,0.9-1.2,0.9h-2.1v5.7c0,1.6,0.4,2,0.9,2
		c1,0,1.7-0.5,1.9-0.7c0.1-0.1,0.2-0.2,0.3-0.2c0.2,0,0.3,0.1,0.4,0.6c0.1,0.5,0.2,0.7,0.2,0.7C45.8,404.3,44.4,404.7,44,404.8z"/>
	<path d="M56.7,404.9h-0.9c-1,0-1.2-0.4-1.2-1.2v-0.5c-1.1,1.7-2.9,1.9-3.7,1.9c-2.1,0-3.5-1.8-3.5-3.5c0-3.5,6.3-3.6,7.1-3.6v-0.8
		c0-1.4-0.4-2.2-1.7-2.2c-1.5,0-2.7,0.5-3.7,1.6c-0.1,0.1-0.1,0.1-0.3,0.1c-0.2,0-0.3-0.1-0.3-0.3c0-0.2-0.2-1.6-0.2-1.8
		c0-0.3,0.1-0.3,0.6-0.6c1.6-0.7,2.8-0.8,3.9-0.8c1.2,0,4.8,0,4.8,3.8v6.4C57.9,404.6,57.7,404.9,56.7,404.9z M54.6,399.2
		c-0.7,0-4,0.2-4,2.5c0,0.9,0.6,1.8,1.7,1.8c0.1,0,2.4,0,2.4-2.2V399.2z"/>
	<path d="M62.6,404.9h-0.9c-0.9,0-1.2-0.3-1.2-1.2v-14.4c0-0.9,0.3-1.2,1.2-1.2h0.9c1,0,1.2,0.4,1.2,1.2v14.4
		C63.8,404.6,63.5,404.9,62.6,404.9z"/>
	<path d="M84,404.9h-6.6c-0.9,0-1.2-0.3-1.2-1.2v-14.4c0-0.9,0.3-1.2,1.2-1.2h5.9c1,0,6.1,0,6.1,4.3c0,1.9-1.3,3.1-3.5,3.6
		c0.9,0.1,4.2,0.7,4.2,4.1C90.2,404.6,85.8,404.9,84,404.9z M82.4,390.4h-2.8v5.1h2.8c0.6,0,3.7,0,3.7-2.7
		C86.2,390.4,83.4,390.4,82.4,390.4z M82.7,397.1h-3v5.7h3.5c1.2,0,3.7-0.2,3.7-2.6C86.8,397.1,83.5,397.1,82.7,397.1z"/>
	<path d="M101.9,404.9H101c-1,0-1.2-0.4-1.2-1.2v-0.5c-1.1,1.7-2.9,1.9-3.7,1.9c-2.1,0-3.5-1.8-3.5-3.5c0-3.5,6.3-3.6,7.1-3.6v-0.8
		c0-1.4-0.4-2.2-1.7-2.2c-1.5,0-2.7,0.5-3.7,1.6c-0.1,0.1-0.1,0.1-0.3,0.1c-0.2,0-0.3-0.1-0.3-0.3c0-0.2-0.2-1.6-0.2-1.8
		c0-0.3,0.1-0.3,0.6-0.6c1.6-0.7,2.8-0.8,3.9-0.8c1.2,0,4.8,0,4.8,3.8v6.4C103,404.6,102.8,404.9,101.9,404.9z M99.8,399.2
		c-0.7,0-4,0.2-4,2.5c0,0.9,0.6,1.8,1.7,1.8c0.1,0,2.4,0,2.4-2.2V399.2z"/>
	<path d="M114.5,404.4c-1.6,0.8-3,0.8-3.7,0.8c-3.6,0-5.7-1.8-5.7-5.8c0-4.2,2.2-5.9,5.8-5.9c1.7,0,2.4,0.2,3.6,0.8
		c0.4,0.2,0.6,0.3,0.6,0.5c0,0.1-0.2,1.5-0.3,1.7c0,0.1-0.1,0.3-0.3,0.3c-0.1,0-0.1,0-0.4-0.3c-0.9-0.7-1.5-1.1-3.1-1.1
		c-2.4,0-2.6,2-2.6,4c0,1.5,0,4,2.5,4c2,0,3.1-1,3.5-1.3c0.2-0.2,0.3-0.2,0.4-0.2c0.2,0,0.3,0.2,0.3,0.3c0,0.3,0.1,1.4,0.1,1.7
		C115.2,404,115.2,404,114.5,404.4z"/>
	<path d="M123.2,404.8c-1.2,0.4-2.3,0.4-2.5,0.4c-1.7,0-2.5-1-2.5-3.5v-6.1h-0.5c-0.3,0-1.2,0-1.2-0.9s0.9-0.9,1.2-0.9h0.6v-2
		c0-0.9,0.3-1.2,1.2-1.2h0.7c1,0,1.2,0.4,1.2,1.2v2h2.1c0.3,0,1.2,0,1.2,0.9s-0.9,0.9-1.2,0.9h-2.1v5.7c0,1.6,0.4,2,0.9,2
		c1,0,1.7-0.5,1.9-0.7c0.1-0.1,0.2-0.2,0.3-0.2c0.2,0,0.3,0.1,0.4,0.6c0.1,0.5,0.2,0.7,0.2,0.7C125,404.3,123.6,404.7,123.2,404.8z"
		/>
	<path d="M136,399.8h-6.5c0.1,1.5,0.4,3.7,3.1,3.7c0.8,0,2.2-0.2,3.6-1.4c0.3-0.2,0.3-0.2,0.4-0.2c0.2,0,0.2,0,0.3,0.8
		c0,0.2,0.1,0.9,0.1,1.1c0,0.3-0.2,0.4-0.7,0.6c-1.6,0.8-3,0.9-3.9,0.9c-3.8,0-6-1.9-6-5.9c0-3.6,1.9-5.8,5.7-5.8c3.6,0,5,2.1,5,5.2
		C137.2,399.8,136.6,399.8,136,399.8z M132.2,395.3c-2.1,0-2.6,1.8-2.6,3.3h5C134.5,396.7,134.1,395.3,132.2,395.3z"/>
	<path d="M146,396.1c-1.5,0.1-3.4,1-3.4,3.3v4.4c0,0.8-0.2,1.2-1.2,1.2h-0.9c-0.9,0-1.2-0.3-1.2-1.2V395c0-0.9,0.3-1.2,1.2-1.2h0.8
		c1,0,1.2,0.4,1.2,1.2v1.6h0c1.1-2.6,2.9-2.8,3.6-2.8c0.4,0,0.4,0.2,0.4,0.6v1.1C146.5,396.1,146.5,396.1,146,396.1z"/>
	<path d="M150.6,391.6h-1.2c-1,0-1.2-0.5-1.2-1.2v-0.5c0-0.8,0.2-1.2,1.2-1.2h1.2c1,0,1.2,0.4,1.2,1.2v0.5
		C151.7,391.1,151.6,391.6,150.6,391.6z M150.4,404.9h-0.9c-0.9,0-1.2-0.3-1.2-1.2v-8.7c0-0.9,0.3-1.2,1.2-1.2h0.9
		c1,0,1.2,0.4,1.2,1.2v8.7C151.5,404.6,151.3,404.9,150.4,404.9z"/>
	<path d="M163.3,404.9h-0.9c-1,0-1.2-0.4-1.2-1.2v-0.5c-1.1,1.7-2.9,1.9-3.7,1.9c-2.1,0-3.5-1.8-3.5-3.5c0-3.5,6.3-3.6,7.1-3.6v-0.8
		c0-1.4-0.4-2.2-1.7-2.2c-1.5,0-2.7,0.5-3.7,1.6c-0.1,0.1-0.1,0.1-0.3,0.1c-0.2,0-0.3-0.1-0.3-0.3c0-0.2-0.2-1.6-0.2-1.8
		c0-0.3,0.1-0.3,0.6-0.6c1.6-0.7,2.8-0.8,3.9-0.8c1.2,0,4.8,0,4.8,3.8v6.4C164.4,404.6,164.2,404.9,163.3,404.9z M161.1,399.2
		c-0.7,0-4,0.2-4,2.5c0,0.9,0.6,1.8,1.7,1.8c0.1,0,2.4,0,2.4-2.2V399.2z"/>
	<path d="M169.1,404.9h-0.9c-0.9,0-1.2-0.3-1.2-1.2v-14.4c0-0.9,0.3-1.2,1.2-1.2h0.9c1,0,1.2,0.4,1.2,1.2v14.4
		C170.3,404.6,170,404.9,169.1,404.9z"/>
	<path d="M192.2,404.9h-8.3c-0.9,0-1.2-0.3-1.2-1.2v-14.4c0-0.9,0.3-1.2,1.2-1.2h1.2c1,0,1.2,0.4,1.2,1.2v13.1l6-0.1
		c1.1,0,1.1,0.6,1.1,1.2v0.2C193.4,404.6,193.2,404.9,192.2,404.9z"/>
	<path d="M201.1,405.2c-3.8,0-5.8-1.8-5.8-5.7c0-3.9,1.8-6,5.9-6c3.9,0,5.8,2.1,5.8,6S204.9,405.2,201.1,405.2z M201.1,395.3
		c-2.6,0-2.6,2.1-2.6,4c0,1.9,0,4.1,2.6,4.1c2.6,0,2.6-2.2,2.6-4.1C203.7,397.4,203.7,395.3,201.1,395.3z"/>
	<path d="M218,404.9h-0.9c-1,0-1.2-0.4-1.2-1.2v-0.5c-1.1,1.7-2.9,1.9-3.7,1.9c-2.1,0-3.5-1.8-3.5-3.5c0-3.5,6.3-3.6,7.1-3.6v-0.8
		c0-1.4-0.4-2.2-1.7-2.2c-1.5,0-2.7,0.5-3.7,1.6c-0.1,0.1-0.1,0.1-0.3,0.1c-0.2,0-0.3-0.1-0.3-0.3c0-0.2-0.2-1.6-0.2-1.8
		c0-0.3,0.1-0.3,0.6-0.6c1.6-0.7,2.8-0.8,3.9-0.8c1.2,0,4.8,0,4.8,3.8v6.4C219.1,404.6,218.9,404.9,218,404.9z M215.8,399.2
		c-0.7,0-4,0.2-4,2.5c0,0.9,0.6,1.8,1.7,1.8c0.1,0,2.4,0,2.4-2.2V399.2z"/>
	<path d="M231.2,404.9h-1c-0.8,0-1.2-0.2-1.2-1.1c-1,1.1-2.1,1.4-3.1,1.4c-4.8,0-4.8-4.6-4.8-5.7c0-1.2,0-5.8,4.9-5.8
		c0.7,0,1.9,0.2,3,1.2v-5.4c0-0.8,0.2-1.2,1.2-1.2h0.9c1,0,1.2,0.4,1.2,1.2v14.4C232.3,404.6,232.1,404.9,231.2,404.9z M229,396.2
		c-0.5-0.5-1.2-0.7-1.9-0.7c-2.7,0-2.7,2.3-2.7,4.1c0,1.8,0,4,2.4,4c0.3,0,0.8,0,1.4-0.4c0.7-0.5,0.7-0.7,0.7-1.1V396.2z"/>
	<path d="M250.7,410.9h-0.4c-0.5,0-0.5,0-1-0.5c-4-3.6-4.6-8.6-4.6-11.5c0-5.1,1.8-9.2,4.7-11.6c0.4-0.4,0.5-0.4,0.9-0.4h0.4
		c0.4,0,0.6,0,0.6,0.3c0,0.1,0,0.1-0.1,0.3c-1.3,1.6-3.3,4.4-3.3,11.4c0,6.5,1.7,9.4,3.2,11.3c0.3,0.3,0.3,0.4,0.3,0.4
		C251.4,410.9,251.1,410.9,250.7,410.9z"/>
	<path d="M263.7,409.6h-1c-1,0-1.2-0.4-1.2-1.2v-4.7c-0.8,0.9-1.7,1.4-3,1.4c-4.5,0-4.8-3.9-4.8-5.7c0-1.9,0.4-5.8,5-5.8
		c0.4,0,1.8,0,2.9,1.6v-0.5c0-0.8,0.2-1.2,1.2-1.2h0.9c1,0,1.2,0.4,1.2,1.2v13.6C264.8,409.3,264.6,409.6,263.7,409.6z M261.7,397.4
		c0-0.3,0-0.7-0.6-1.3c-0.4-0.5-0.9-0.6-1.3-0.6c-2.7,0-2.7,3-2.7,3.9c0,0.9,0,4,2.4,4c1.1,0,1.8-0.7,2.2-1.3V397.4z"/>
	<path d="M275.7,398.5H272v5.3c0,0.8-0.2,1.2-1.2,1.2h-1.2c-0.9,0-1.2-0.3-1.2-1.2v-14.4c0-0.9,0.3-1.2,1.2-1.2h6c3.7,0,6,1.6,6,5.2
		C281.7,396.9,279.5,398.5,275.7,398.5z M274.9,390.4h-3v6.3h2.9c3.2,0,3.5-1.5,3.5-3.1C278.4,391.8,278.1,390.4,274.9,390.4z"/>
	<path d="M298.6,403.8c-0.8,0.5-1.6,0.9-2.4,1.1s-1.8,0.3-2.7,0.3c-2.4,0-4.9-0.5-6.6-2.2c-1.7-1.7-2.2-4.1-2.2-6.4
		c0-2.4,0.5-4.8,2.2-6.5c1.7-1.7,4.2-2.2,6.6-2.2c0.8,0,1.6,0,2.4,0.2c0.8,0.1,1.6,0.4,2.4,0.7c0.1,0,0.2,0.1,0.2,0.3l-0.5,2.6
		c0,0.1-0.1,0.2-0.3,0.2c-0.1,0-0.1,0-0.2-0.1c-0.6-0.5-1.2-0.9-1.8-1.2c-0.7-0.3-1.4-0.4-2.2-0.4c-1.5,0-3,0.4-3.9,1.5
		c-1.1,1.3-1.3,3-1.3,4.7c0,1.7,0.2,3.4,1.3,4.7c1,1.1,2.4,1.5,3.9,1.5c0.8,0,1.7,0,2.4-0.3c0.8-0.3,1.5-0.7,2.1-1.2
		c0.1,0,0.1,0,0.2,0c0.1,0,0.3,0.1,0.3,0.3l0.2,2.1C298.7,403.7,298.6,403.8,298.6,403.8z"/>
	<path d="M314.9,404.9h-1.4c-0.5,0-0.8,0-1.1-0.6l-3.9-6.9h-2.7v6.3c0,0.8-0.2,1.2-1.2,1.2h-1.2c-0.9,0-1.2-0.3-1.2-1.2v-14.4
		c0-0.9,0.3-1.2,1.2-1.2h5.8c1.1,0,6.3,0,6.3,4.7c0,3-2.3,3.9-3.8,4.2l4.1,7C315.8,404.9,315.3,404.9,314.9,404.9z M308.8,390.4
		h-3.1v5.4h3.1c3,0,3.3-1.3,3.3-2.7C312.1,391.5,311.6,390.4,308.8,390.4z"/>
	<path d="M320.4,410.6c-0.4,0.4-0.5,0.4-0.9,0.4h-0.4c-0.4,0-0.6,0-0.6-0.3c0,0,0-0.1,0.1-0.3c1.3-1.6,3.3-4.4,3.3-11.4
		c0-6.5-1.7-9.4-3.2-11.3c-0.3-0.3-0.3-0.4-0.3-0.4c0-0.3,0.3-0.3,0.6-0.3h0.4c0.5,0,0.5,0,1,0.5c4,3.6,4.6,8.6,4.6,11.5
		C325.1,404,323.3,408.1,320.4,410.6z"/>
</g>
<g>
	<path d="M54.1,321.2c0.2,0.8,0.3,1.7,0.3,2.5c0,2.1-1,4.1-2.5,5.5c-1.7,1.5-3.8,2.3-6.1,2.3c-2.2,0-4.4-0.8-6.1-2.3
		c-1.6-1.4-2.5-3.4-2.5-5.5c0-0.8,0-1.5,0.2-2.3c0.1-0.8,0.4-1.5,0.7-2.2l2,0.3c-0.4,0.6-0.8,1.3-1,2c-0.2,0.7-0.3,1.4-0.3,2.2
		c0,1.6,0.8,3,2.1,4c1.4,1.1,3.2,1.6,5,1.6s3.6-0.5,5-1.6c1.2-1,2.1-2.4,2.1-4c0-0.8,0-1.7-0.3-2.4c-0.2-0.8-0.7-1.5-1.2-2.2
		l1.7-0.1C53.4,319.6,53.9,320.4,54.1,321.2z"/>
	<path d="M39.1,309.3c0,0.3,0,0.6,0,0.9v3.1h6V306h1.5v7.2h7.6v2.1H37.5V305h1.6V309.3z"/>
	<path d="M54.6,295.7c0,3.2-2.6,6-6.1,6H37.4v-2.1h11.1c3.2,0,4.8-2,4.8-3.9c0-2-1.6-4-4.8-4H37.4v-1.9h11.1
		C52,289.8,54.6,292.5,54.6,295.7z"/>
	<path d="M37,277l22.6,8.2c0.2,0.1,0.5,0.2,0.5,0.5c0,0.3-0.2,0.5-0.5,0.5c0,0-0.1,0-0.4-0.1l-22.6-8.2c-0.2-0.1-0.5-0.2-0.5-0.5
		c0-0.3,0.2-0.5,0.5-0.5C36.6,276.9,36.7,276.9,37,277z"/>
	<path d="M44.6,265.3c0,0.6,0.1,1.2,0.1,1.8l0,0.1c0.4-0.3,1.2-0.8,2.4-0.8c2.1,0,3.9,1.7,3.9,3.8c0,0.9-0.3,1.7-0.7,2.2
		c0.2,0.2,0.6,0.3,0.9,0.3c1.3,0,1.3-1.1,1.3-1.4v-2.1c0-0.9,0-4.9,3.3-4.9c1.8,0,3.3,2.4,3.3,5.3c0,2.9-1.4,5.3-3.2,5.3
		c-0.6,0-1.7-0.3-2.5-1.5c-0.5,0.4-1.2,0.6-1.8,0.6c-0.1,0-1.1,0-2-0.7c-0.6,0.5-1.5,0.8-2.4,0.8c-2.2,0-3.9-1.8-3.9-3.8
		c0-1,0.4-1.8,0.8-2.3c-0.3-0.7-0.8-2.1-0.8-3.8l1.5-0.3C44.7,263.9,44.6,264.8,44.6,265.3z M44.5,270.2c0,0.9,0.6,2.1,2.5,2.1
		s2.5-1.2,2.5-2.1c0-1-0.7-2.2-2.5-2.2C45.2,268,44.5,269.2,44.5,270.2z M54.2,269.1v2.2c0,1.9,1.6,1.9,1.6,1.9
		c1.1,0,1.9-1.7,1.9-3.6c0-2-0.8-3.6-1.8-3.6C54.2,265.9,54.2,268.6,54.2,269.1z"/>
</g>
<g>
	<path d="M26.3,205.7h5.1v1.8H20.7v-1.7h2.2c-1.1-0.7-2.3-2.1-2.3-4.2h1.6C22.2,203.9,23.9,205.7,26.3,205.7z"/>
	<path d="M26.2,198.7c2.4-0.1,4.1-1.6,4.1-3.5c0-0.6-0.1-2.1-1.3-3.6l1.6-0.1c0.7,0.9,1.2,2.3,1.2,3.8c0,2.9-2.5,5.2-5.7,5.2
		c-3.1,0-5.6-2.2-5.6-4.8c0-0.9,0.3-2.3,1.8-3.3c1.4-0.9,3.2-1,4.1-1V198.7z M21.9,195.6c0,1.4,1.2,2.6,3,3v-5.9
		C22.7,193,21.9,194.3,21.9,195.6z"/>
	<path d="M31.5,188.6H14.8v-1.8h16.7V188.6z"/>
	<path d="M31.5,176.8h-0.9c1.1,1.4,1.1,3.6,1.1,4c0,2.1-1.9,2.7-3,2.7c-2.1,0-3.1-3-3.2-6.6h-1c-1.8,0-2.7,1-2.7,2.1
		c0,1.2,0.3,2.4,1.2,3.6l-1.6,0.1c-0.6-1.1-1-2.2-1-3.8c0-2.2,1.7-4,4.1-4h6.9V176.8z M26.8,176.9c0,1,0.2,4.9,1.9,4.9
		c1,0,1.6-1.1,1.6-2.2c0-0.3,0-1.2-0.5-1.9c-0.5-0.8-1.1-0.8-1.5-0.8H26.8z"/>
	<path d="M31.7,168.8c0,1.7-1.7,2-3.1,2h-6.4v2h-1.4v-2.1h-3v-1.7h3v-3.4h1.4v3.4h6c1.3,0,2-0.3,2-1.2c0-0.8-0.3-1.5-0.8-2.2
		l1.4-0.4C31.1,165.9,31.7,167.2,31.7,168.8z"/>
	<path d="M17.9,162.8h-2.1v-2.1h2.1V162.8z M31.5,162.7H20.8v-1.8h10.7V162.7z"/>
	<path d="M31.5,152.3v2.1l-10.7,4.1v-1.9l6.2-2.3c0.6-0.2,2.3-0.9,3.2-1v0c-1.1-0.2-3.1-0.9-4.4-1.4l-5-1.9v-1.8L31.5,152.3z"/>
	<path d="M26.2,145.3c2.4-0.1,4.1-1.6,4.1-3.5c0-0.6-0.1-2.1-1.3-3.6l1.6-0.1c0.7,0.9,1.2,2.3,1.2,3.8c0,2.9-2.5,5.2-5.7,5.2
		c-3.1,0-5.6-2.2-5.6-4.8c0-0.9,0.3-2.3,1.8-3.3c1.4-0.9,3.2-1,4.1-1V145.3z M21.9,142.2c0,1.4,1.2,2.6,3,3v-5.9
		C22.7,139.6,21.9,140.9,21.9,142.2z"/>
	<path d="M57.5,201.4h-0.9c1.1,1.4,1.1,3.6,1.1,4c0,2.1-1.9,2.7-3,2.7c-2.1,0-3.1-3-3.2-6.6h-1c-1.8,0-2.7,1-2.7,2.1
		c0,1.2,0.3,2.4,1.2,3.6l-1.6,0.1c-0.6-1.1-1-2.2-1-3.8c0-2.2,1.7-4,4.1-4h6.9V201.4z M52.8,201.5c0,1,0.2,4.9,1.9,4.9
		c1,0,1.6-1.1,1.6-2.2c0-0.3,0-1.2-0.5-1.9c-0.5-0.8-1.1-0.8-1.5-0.8H52.8z"/>
	<path d="M57.7,190.8c0,1.6-0.8,2.6-1.4,3.2h1.1v1.9H40.8v-1.8H48c-1.2-1.4-1.4-2.9-1.4-3.9c0-2.3,2.6-3.9,5.6-3.9
		C55.3,186.4,57.7,188.4,57.7,190.8z M48,191.5c0,1.3,0.8,2.2,1.4,2.6h5.3c1.1-0.6,1.5-1.4,1.5-2.3c0-1.5-1-3.5-4.2-3.5
		C49,188.3,48,190.1,48,191.5z"/>
	<path d="M57.5,176.9h-1.2c1,1.2,1.4,2.9,1.4,4.2c0,2-1.2,2.5-2.9,2.5h-8v-1.9h7.9c1,0,1.7-0.2,1.7-1.9c0-1.5-0.8-2.9-2.6-2.9h-7
		v-1.9h10.7V176.9z"/>
	<path d="M57.5,164.5h-7c-0.8,0-2.5,0-2.5,2.3c0,1.8,2,2.4,3.6,2.4h5.9v1.9H46.7v-1.7h1.7c-0.2-0.1-1.8-1.3-1.8-3.5
		c0-2.9,2.2-3.3,3.8-3.3h7.2V164.5z"/>
	<path d="M57.5,152.1h-1.2c1.3,1.3,1.5,2.8,1.5,3.6c0,2.3-2.4,4.1-5.6,4.1c-3.1,0-5.6-1.9-5.6-4.2c0-0.9,0.3-2.2,1.3-3.5h-7.1v-1.8
		h16.7V152.1z M49.3,152.1c-0.8,0.5-1.3,1.2-1.3,2.3c0,1.4,1,3.5,4.2,3.5c3,0,4.1-1.8,4.1-3.2c0-0.6-0.2-1.2-0.7-1.8
		c-0.7-0.8-1.1-0.8-1.5-0.8H49.3z"/>
	<path d="M57.5,140.3h-0.9c1.1,1.4,1.1,3.6,1.1,4c0,2.1-1.9,2.7-3,2.7c-2.1,0-3.1-3-3.2-6.6h-1c-1.8,0-2.7,1-2.7,2.1
		c0,1.2,0.3,2.4,1.2,3.6l-1.6,0.1c-0.6-1.1-1-2.2-1-3.8c0-2.2,1.7-4,4.1-4h6.9V140.3z M52.8,140.3c0,1,0.2,4.9,1.9,4.9
		c1,0,1.6-1.1,1.6-2.2c0-0.3,0-1.2-0.5-1.9c-0.5-0.8-1.1-0.8-1.5-0.8H52.8z"/>
	<path d="M57.5,128.2h-7c-0.8,0-2.5,0-2.5,2.3c0,1.8,2,2.4,3.6,2.4h5.9v1.9H46.7v-1.7h1.7c-0.2-0.1-1.8-1.3-1.8-3.5
		c0-2.9,2.2-3.3,3.8-3.3h7.2V128.2z"/>
	<path d="M57.7,118.3c0,3-2.6,5.2-5.6,5.2c-2.8,0-5.7-1.9-5.7-5.3c0-1.5,0.2-2.3,1-3.7l1.6,0.3c-0.9,1.3-1.1,2.1-1.1,3.4
		c0,2.5,2.3,3.4,4.2,3.4c2.4,0,4.1-1.3,4.1-3.3c0-1.2-0.3-2.5-1.3-3.7l1.6-0.1C57.4,115.6,57.7,117,57.7,118.3z"/>
	<path d="M52.2,111.1c2.4-0.1,4.1-1.6,4.1-3.5c0-0.6-0.1-2.1-1.3-3.6l1.6-0.1c0.7,0.9,1.2,2.3,1.2,3.8c0,2.9-2.5,5.2-5.7,5.2
		c-3.1,0-5.6-2.2-5.6-4.8c0-0.9,0.3-2.3,1.8-3.3c1.4-0.9,3.2-1,4.1-1V111.1z M47.9,108c0,1.4,1.2,2.6,3,3v-5.9
		C48.7,105.4,47.9,106.7,47.9,108z"/>
</g>
<g>
	<path class="st0" d="M706.1,229.2h-0.8c-1.2,0-1.4-0.5-1.4-1.4v-15.5h0c-0.2,0.8-1.8,4.9-2.1,5.6l-3.8,9.4
		c-0.5,1.3-1.3,1.3-2.3,1.3s-1.7,0-2.3-1.3l-3.5-8.5c-0.7-1.8-2.1-5.1-2.4-6.4h0v15.5c0,1-0.3,1.4-1.4,1.4h-0.8
		c-1.1,0-1.4-0.4-1.4-1.4v-17.9c0-1.1,0.4-1.4,1.4-1.4h2.5c0.5,0,1.5,0,2,1.2l3.8,9.5c0.6,1.6,1.9,4.6,2.1,5.6h0
		c0.2-1,1.4-3.8,2-5.3l4-9.7c0.5-1.2,1.3-1.3,2-1.3h2.5c1.2,0,1.4,0.5,1.4,1.4v17.9C707.6,228.8,707.3,229.2,706.1,229.2z"/>
	<path class="st0" d="M722.4,229.2h-7.9c-1.1,0-1.4-0.4-1.4-1.4v-17.9c0-1.1,0.4-1.4,1.4-1.4h7.9c2,0,5.5,0.4,7.8,3.2
		c1.7,2.1,2.1,5,2.1,7.4C732.3,224.8,729.8,229.2,722.4,229.2z M721.2,211h-3.8v15.7h3.9c6.4,0,6.7-4.3,6.7-7.7
		C728,215.6,727.7,211,721.2,211z"/>
	<path class="st0" d="M743.3,229.9c-0.8,0-2.4-0.1-4.4-0.7c-0.1-0.1-3.3-1.1-3.3-1.8c0-0.1,0-0.2,0.1-0.4l0.5-2.6
		c0.1-0.5,0.2-0.5,0.4-0.5c0.1,0,0.2,0,0.5,0.4c1.5,1.3,3.7,2.4,6.2,2.4c1,0,3.6-0.1,3.6-2.9c0-1.1-0.6-1.8-0.9-2.1
		c-0.7-0.6-1.3-0.8-3-1.1c-2.3-0.5-3.7-0.8-5.3-2.4c-0.6-0.6-1.7-2-1.7-4.1c0-5.6,4.6-6.2,7.3-6.2c1.5,0,3.3,0.2,5.4,1.2
		c0.8,0.4,0.8,0.4,0.8,0.7c0,0.1,0,0.2-0.1,0.4l-0.4,2.6c-0.1,0.5-0.2,0.5-0.4,0.5c-0.1,0-0.1,0-0.6-0.5c-1.5-1.4-3-1.8-4.6-1.8
		c-1,0-3.6,0.1-3.6,2.6c0,1.7,1.9,2.4,2.5,2.5l2.9,0.7c3,0.7,5.5,3.2,5.5,6.6C750.6,227.9,747.8,229.9,743.3,229.9z"/>
	<path class="st0" d="M758.2,229.2h-1.5c-1.1,0-1.4-0.4-1.4-1.4v-17.9c0-1.1,0.4-1.4,1.4-1.4h1.5c1.2,0,1.4,0.5,1.4,1.4v17.9
		C759.7,228.8,759.4,229.2,758.2,229.2z"/>
	<path class="st0" d="M782,229.2h-2.8c-0.6,0-1.5,0-2.1-1.2l-8.2-16h0v15.8c0,1-0.3,1.4-1.4,1.4h-0.8c-1.1,0-1.4-0.4-1.4-1.4v-17.9
		c0-1.1,0.4-1.4,1.4-1.4h2.8c0.6,0,1.5,0,2.1,1.2l8.2,16h0v-15.7c0-1,0.3-1.4,1.4-1.4h0.8c1.2,0,1.4,0.5,1.4,1.4v17.9
		C783.5,228.8,783.2,229.2,782,229.2z"/>
	<path class="st0" d="M802.7,229.2h-12.2c-1.1,0-1.4-0.4-1.4-1.4v-17.8c0-1.1,0.4-1.4,1.4-1.4h11.8c1.2,0,1.4,0.5,1.4,1.4v0.2
		c0,1.4-0.7,1.4-1.7,1.4l-7-0.1h-1.5v5.5h7.9c1,0,1.4,0.3,1.4,1.4c0,1.2-0.5,1.4-1.4,1.4h-7.9v6.2l4.4-0.1l4.6-0.1
		c1,0,1.7,0,1.7,1.4v0.4C804.1,228.8,803.8,229.2,802.7,229.2z"/>
	<path class="st0" d="M818.9,229.2h-10.3c-1.1,0-1.4-0.4-1.4-1.4v-0.2c0-0.5,0-0.6,0.3-0.9l5.7-6.1c1.8-1.9,2.9-3.9,2.9-5.8
		c0-1.8-1-4-3.3-4c-1.9,0-2.9,1.3-3.5,3.3c-0.1,0.4-0.2,0.6-0.4,0.6c-0.2,0-0.3-0.1-0.5-0.4l-1.5-1.9c0.5-2,1.9-3.1,2.2-3.3
		c1.4-1.2,3.1-1.3,4.2-1.3c4.4,0,7,3.2,7,6.9c0,2.7-1.6,4.3-3.3,5.9c-0.5,0.4-1.6,1.3-2,1.7l-4,3.8h4.9l2,0c0.6,0,1.6,0,1.8,0.1
		c0.6,0.3,0.6,0.8,0.6,1.3v0.4C820.3,228.8,820,229.2,818.9,229.2z"/>
</g>
<g>
	<path d="M438.4,390.4c-1.8,0-2.2-1.8-2.2-3.4V380h-2.2v-1.5h2.3v-3.3h1.8v3.3h3.7v1.5h-3.7v6.5c0,1.4,0.4,2.2,1.3,2.2
		c0.8,0,1.7-0.3,2.3-0.9l0.4,1.5C441.6,389.7,440.2,390.4,438.4,390.4z"/>
	<path d="M444.9,375.4V373h2.3v2.3H444.9z M445.1,390.1v-11.5h2v11.5H445.1z"/>
	<path d="M465.7,390.1v-7.6c0-1-0.1-2.7-2.5-2.7c-1.9,0-2.6,2.1-2.6,3.9v6.4h-2v-7.6c0-1-0.1-2.7-2.5-2.7c-1.9,0-2.6,2.1-2.6,3.9
		v6.4h-2v-11.7h1.9v1.9c0.7-0.9,1.9-2,3.8-2c0.8,0,2.7,0.2,3.3,2.1c1-1.4,2.3-2.1,3.9-2.1c3.1,0,3.6,2.3,3.6,4.1v7.7H465.7z"/>
	<path d="M472.5,384.4c0.1,2.5,1.7,4.4,3.8,4.4c0.6,0,2.3-0.1,4-1.5l0.2,1.7c-1,0.7-2.5,1.4-4.1,1.4c-3.1,0-5.6-2.7-5.6-6.2
		c0-3.4,2.3-6.1,5.2-6.1c0.9,0,2.5,0.3,3.6,1.9c1,1.6,1,3.5,1,4.4H472.5z M475.9,379.7c-1.5,0-2.9,1.3-3.3,3.3h6.4
		C478.8,380.6,477.3,379.7,475.9,379.7z"/>
</g>
<g>
	<rect x="1221.2" y="50.1" class="st20" width="23.9" height="23.9"/>
	<rect x="1221.2" y="74" class="st21" width="23.9" height="23.9"/>
	<g>
		<path d="M1252.9,63.8c-0.9,0-1.6-0.4-2.1-0.9v3.7h-1.2v-9.8h1.1v0.8c0.7-0.6,1.6-0.9,2.5-0.9c1.5,0,2.4,1.7,2.4,3.6
			C1255.7,62.3,1254.4,63.8,1252.9,63.8z M1252.4,57.6c-0.7,0-1.3,0.4-1.6,0.9v3.1c0,0.3,0,0.3,0.2,0.5c0.3,0.4,0.7,0.7,1.3,0.7
			c1.1,0,2.2-1.1,2.2-2.7C1254.5,58.8,1253.6,57.6,1252.4,57.6z"/>
		<path d="M1258.3,60.3c0,1.5,1,2.6,2.3,2.6c0.4,0,1.4-0.1,2.3-0.9l0.1,1c-0.6,0.4-1.5,0.8-2.4,0.8c-1.8,0-3.3-1.6-3.3-3.6
			c0-2,1.4-3.6,3.1-3.6c0.6,0,1.5,0.2,2.1,1.1c0.6,0.9,0.6,2.1,0.6,2.6H1258.3z M1260.3,57.5c-0.9,0-1.7,0.8-1.9,1.9h3.8
			C1262,58,1261.1,57.5,1260.3,57.5z"/>
		<path d="M1265.9,60.3v3.3h-1.1v-6.9h1.1v1.4c0.5-0.7,1.3-1.5,2.7-1.5v1C1267,57.7,1265.9,58.8,1265.9,60.3z"/>
		<path d="M1271.6,63.8c-1.1,0-1.3-1.1-1.3-2v-4.1h-1.3v-0.9h1.3v-1.9h1.1v1.9h2.2v0.9h-2.2v3.8c0,0.8,0.2,1.3,0.8,1.3
			c0.5,0,1-0.2,1.4-0.5l0.2,0.9C1273.5,63.4,1272.7,63.8,1271.6,63.8z"/>
		<path d="M1279.8,63.6v-0.7c-0.8,0.7-1.8,0.9-2.7,0.9c-1.3,0-1.6-0.7-1.6-1.8v-5.1h1.2v5.1c0,0.7,0.1,1.1,1.2,1.1
			c1,0,1.8-0.5,1.8-1.7v-4.4h1.2v6.8H1279.8z"/>
		<path d="M1284.6,60.3v3.3h-1.1v-6.9h1.1v1.4c0.5-0.7,1.3-1.5,2.7-1.5v1C1285.7,57.7,1284.6,58.8,1284.6,60.3z"/>
		<path d="M1291.9,63.8c-1,0-1.7-0.5-2.1-0.9v0.7h-1.2V53h1.1v4.6c0.9-0.8,1.9-0.9,2.5-0.9c1.4,0,2.5,1.7,2.5,3.6
			C1294.8,62.3,1293.5,63.8,1291.9,63.8z M1291.5,57.6c-0.8,0-1.4,0.5-1.6,0.9v3.4c0.4,0.7,0.9,1,1.5,1c0.9,0,2.2-0.7,2.2-2.7
			C1293.6,58.2,1292.4,57.6,1291.5,57.6z"/>
		<path d="M1300.5,63.6v-0.6c-0.9,0.7-2.3,0.7-2.5,0.7c-1.3,0-1.7-1.2-1.7-1.9c0-1.3,1.9-2,4.2-2v-0.7c0-1.1-0.6-1.7-1.3-1.7
			c-0.8,0-1.5,0.2-2.3,0.8l-0.1-1c0.7-0.4,1.4-0.7,2.4-0.7c1.4,0,2.5,1.1,2.5,2.6v4.4H1300.5z M1300.4,60.7c-0.7,0-3.1,0.1-3.1,1.2
			c0,0.6,0.7,1,1.4,1c0.2,0,0.8,0,1.2-0.3c0.5-0.3,0.5-0.7,0.5-1V60.7z"/>
		<path d="M1305.6,63.8c-1.1,0-1.3-1.1-1.3-2v-4.1h-1.3v-0.9h1.3v-1.9h1.1v1.9h2.2v0.9h-2.2v3.8c0,0.8,0.2,1.3,0.8,1.3
			c0.5,0,1-0.2,1.4-0.5l0.2,0.9C1307.4,63.4,1306.6,63.8,1305.6,63.8z"/>
		<path d="M1309.4,55v-1.4h1.4V55H1309.4z M1309.5,63.6v-6.8h1.1v6.8H1309.5z"/>
		<path d="M1315.7,63.8c-1.8,0-3.4-1.5-3.4-3.5c0-2,1.5-3.7,3.4-3.7c1.8,0,3.4,1.6,3.4,3.7C1319.1,62.2,1317.6,63.8,1315.7,63.8z
			 M1315.7,57.5c-1,0-2.2,0.8-2.2,2.6c0,1.9,1.1,2.7,2.2,2.7c1.1,0,2.2-0.9,2.2-2.7C1317.9,58.3,1316.8,57.5,1315.7,57.5z"/>
		<path d="M1325,63.6v-4.5c0-0.5,0-1.6-1.5-1.6c-1.2,0-1.5,1.3-1.5,2.3v3.8h-1.2v-6.9h1.1v1.1c0.1-0.1,0.8-1.2,2.2-1.2
			c1.9,0,2.1,1.4,2.1,2.4v4.6H1325z"/>
		<path d="M1334.1,63.6v-0.9h1.9v-8c-0.8,0.3-1.5,0.4-2,0.4v-0.9c0.7,0,2-0.1,2.9-1h0.3v9.5h1.9v0.9H1334.1z"/>
	</g>
	<g>
		<path d="M1253,88.7c-0.9,0-1.6-0.4-2.1-0.9v3.7h-1.2v-9.8h1.1v0.8c0.7-0.6,1.6-0.9,2.5-0.9c1.5,0,2.4,1.7,2.4,3.6
			C1255.9,87.2,1254.5,88.7,1253,88.7z M1252.6,82.6c-0.7,0-1.3,0.4-1.6,0.9v3.1c0,0.3,0,0.3,0.2,0.5c0.3,0.4,0.7,0.7,1.3,0.7
			c1.1,0,2.2-1.1,2.2-2.7C1254.7,83.7,1253.7,82.6,1252.6,82.6z"/>
		<path d="M1258.5,85.2c0,1.5,1,2.6,2.3,2.6c0.4,0,1.4-0.1,2.3-0.9l0.1,1c-0.6,0.4-1.5,0.8-2.4,0.8c-1.8,0-3.3-1.6-3.3-3.6
			c0-2,1.4-3.6,3.1-3.6c0.6,0,1.5,0.2,2.1,1.1c0.6,0.9,0.6,2.1,0.6,2.6H1258.5z M1260.5,82.4c-0.9,0-1.7,0.8-1.9,1.9h3.8
			C1262.1,82.9,1261.3,82.4,1260.5,82.4z"/>
		<path d="M1266.1,85.3v3.3h-1.1v-6.9h1.1v1.4c0.5-0.7,1.3-1.5,2.7-1.5v1C1267.2,82.6,1266.1,83.7,1266.1,85.3z"/>
		<path d="M1271.7,88.7c-1.1,0-1.3-1.1-1.3-2v-4.1h-1.3v-0.9h1.3v-1.9h1.1v1.9h2.2v0.9h-2.2v3.8c0,0.8,0.2,1.3,0.8,1.3
			c0.5,0,1-0.2,1.4-0.5l0.2,0.9C1273.6,88.3,1272.8,88.7,1271.7,88.7z"/>
		<path d="M1279.9,88.6v-0.7c-0.8,0.7-1.8,0.9-2.7,0.9c-1.3,0-1.6-0.7-1.6-1.8v-5.1h1.2v5.1c0,0.7,0.1,1.1,1.2,1.1
			c1,0,1.8-0.5,1.8-1.7v-4.4h1.2v6.8H1279.9z"/>
		<path d="M1284.7,85.3v3.3h-1.1v-6.9h1.1v1.4c0.5-0.7,1.3-1.5,2.7-1.5v1C1285.8,82.6,1284.7,83.7,1284.7,85.3z"/>
		<path d="M1292.1,88.7c-1,0-1.7-0.5-2.1-0.9v0.7h-1.2V77.9h1.1v4.6c0.9-0.8,1.9-0.9,2.5-0.9c1.4,0,2.5,1.7,2.5,3.6
			C1294.9,87.2,1293.6,88.7,1292.1,88.7z M1291.7,82.5c-0.8,0-1.4,0.5-1.6,0.9v3.4c0.4,0.7,0.9,1,1.5,1c0.9,0,2.2-0.7,2.2-2.7
			C1293.7,83.2,1292.6,82.5,1291.7,82.5z"/>
		<path d="M1300.6,88.6V88c-0.9,0.7-2.3,0.7-2.5,0.7c-1.3,0-1.7-1.2-1.7-1.9c0-1.3,1.9-2,4.2-2v-0.7c0-1.1-0.6-1.7-1.3-1.7
			c-0.8,0-1.5,0.2-2.3,0.8l-0.1-1c0.7-0.4,1.4-0.7,2.4-0.7c1.4,0,2.5,1.1,2.5,2.6v4.4H1300.6z M1300.6,85.6c-0.7,0-3.1,0.1-3.1,1.2
			c0,0.6,0.7,1,1.4,1c0.2,0,0.8,0,1.2-0.3c0.5-0.3,0.5-0.7,0.5-1V85.6z"/>
		<path d="M1305.7,88.7c-1.1,0-1.3-1.1-1.3-2v-4.1h-1.3v-0.9h1.3v-1.9h1.1v1.9h2.2v0.9h-2.2v3.8c0,0.8,0.2,1.3,0.8,1.3
			c0.5,0,1-0.2,1.4-0.5l0.2,0.9C1307.6,88.3,1306.8,88.7,1305.7,88.7z"/>
		<path d="M1309.5,79.9v-1.4h1.4v1.4H1309.5z M1309.6,88.6v-6.8h1.1v6.8H1309.6z"/>
		<path d="M1315.9,88.7c-1.8,0-3.4-1.5-3.4-3.5c0-2,1.5-3.7,3.4-3.7c1.8,0,3.4,1.6,3.4,3.7C1319.2,87.2,1317.7,88.7,1315.9,88.7z
			 M1315.9,82.4c-1,0-2.2,0.8-2.2,2.6c0,1.9,1.1,2.7,2.2,2.7c1.1,0,2.2-0.9,2.2-2.7S1316.9,82.4,1315.9,82.4z"/>
		<path d="M1325.2,88.6v-4.5c0-0.5,0-1.6-1.5-1.6c-1.2,0-1.5,1.3-1.5,2.3v3.8h-1.2v-6.9h1.1v1.1c0.1-0.1,0.8-1.2,2.2-1.2
			c1.9,0,2.1,1.4,2.1,2.4v4.6H1325.2z"/>
		<path d="M1333.5,88.6v-1l1.9-1.9l1.2-1.1c0.9-0.9,1.8-1.8,1.8-3.1c0-1.2-0.8-2.3-2.2-2.3c-1.4,0-1.8,1.2-2.1,2.4
			c-0.2-0.2-0.3-0.4-0.3-0.4c0,0-0.1-0.1-0.3-0.4c0.4-1.3,1.2-2.5,3-2.5c2,0,3.3,1.5,3.3,3.3c0,1.3-0.8,2.1-1.5,2.8
			c-0.3,0.3-1.1,0.9-1.4,1.2c-0.5,0.4-1.6,1.6-2.1,2h1.7c0.2,0,0.4,0,0.6,0h2.8v1.1H1333.5z"/>
	</g>
</g>
<g>
	<rect x="999.3" y="282" class="st22" width="22.6" height="22.6"/>
	<rect x="999.3" y="304.7" class="st23" width="22.6" height="22.6"/>
</g>
<g>
	<rect x="1307.1" y="281.4" class="st24" width="22.6" height="22.6"/>
	<rect x="1307.1" y="304" class="st22" width="22.6" height="22.6"/>
</g>
<g>
	<g>
		<line class="st25" x1="604" y1="220" x2="546.5" y2="220"/>
		<g>
			<polygon points="600.3,207.5 621.9,220 600.3,232.4 			"/>
		</g>
	</g>
</g>
<g>
	<g>
		<line class="st25" x1="943.1" y1="218.7" x2="885.6" y2="218.7"/>
		<g>
			<polygon points="939.4,206.2 961,218.7 939.4,231.1 			"/>
		</g>
	</g>
</g>
<g>
	<path d="M901.7,32c-1,0-1.7-0.4-2.2-0.9V35h-1.2V24.8h1.2v0.8c0.7-0.6,1.7-1,2.6-1c1.5,0,2.5,1.8,2.5,3.7
		C904.7,30.5,903.3,32,901.7,32z M901.3,25.6c-0.7,0-1.3,0.4-1.7,0.9v3.2c0,0.3,0,0.3,0.2,0.6c0.3,0.4,0.8,0.8,1.4,0.8
		c1.2,0,2.3-1.1,2.3-2.8C903.5,26.8,902.5,25.6,901.3,25.6z"/>
	<path d="M907.4,28.4c0,1.6,1.1,2.7,2.4,2.7c0.4,0,1.4-0.1,2.4-0.9l0.1,1c-0.6,0.4-1.5,0.8-2.5,0.8c-1.9,0-3.5-1.7-3.5-3.8
		c0-2.1,1.4-3.8,3.2-3.8c0.6,0,1.6,0.2,2.2,1.2c0.6,1,0.6,2.2,0.6,2.7H907.4z M909.5,25.5c-0.9,0-1.8,0.8-2,2h4
		C911.2,26,910.4,25.5,909.5,25.5z"/>
	<path d="M915.4,28.4v3.4h-1.2v-7.2h1.1v1.5c0.5-0.7,1.4-1.5,2.8-1.5v1.1C916.5,25.7,915.4,26.8,915.4,28.4z"/>
	<path d="M921.3,32c-1.1,0-1.3-1.1-1.3-2.1v-4.3h-1.3v-0.9h1.4v-2h1.1v2h2.3v0.9h-2.3v4c0,0.8,0.2,1.3,0.8,1.3c0.5,0,1-0.2,1.4-0.5
		l0.3,0.9C923.2,31.6,922.4,32,921.3,32z"/>
	<path d="M929.9,31.9v-0.8c-0.8,0.7-1.9,0.9-2.8,0.9c-1.3,0-1.7-0.8-1.7-1.9v-5.4h1.2v5.3c0,0.7,0.1,1.1,1.2,1.1
		c1,0,1.9-0.6,1.9-1.8v-4.6h1.2v7.1H929.9z"/>
	<path d="M934.9,28.4v3.4h-1.2v-7.2h1.1v1.5c0.5-0.7,1.4-1.5,2.8-1.5v1.1C936,25.7,934.9,26.8,934.9,28.4z"/>
	<path d="M942.5,32c-1.1,0-1.8-0.6-2.1-0.9v0.7h-1.2V20.8h1.2v4.8c1-0.8,2-0.9,2.6-0.9c1.5,0,2.6,1.7,2.6,3.7
		C945.5,30.4,944.1,32,942.5,32z M942.1,25.6c-0.9,0-1.5,0.6-1.7,0.9V30c0.4,0.7,0.9,1,1.6,1c1,0,2.3-0.7,2.3-2.8
		C944.3,26.3,943.1,25.6,942.1,25.6z"/>
	<path d="M951.5,31.9v-0.6c-0.9,0.7-2.4,0.8-2.7,0.8c-1.4,0-1.8-1.3-1.8-2c0-1.4,2-2.1,4.4-2.1v-0.7c0-1.2-0.6-1.8-1.4-1.8
		c-0.8,0-1.6,0.2-2.4,0.8l-0.1-1.1c0.8-0.4,1.5-0.7,2.5-0.7c1.5,0,2.6,1.1,2.6,2.8v4.6H951.5z M951.4,28.8c-0.7,0-3.3,0.1-3.3,1.3
		c0,0.7,0.7,1,1.5,1c0.2,0,0.8,0,1.2-0.3c0.5-0.3,0.5-0.7,0.5-1V28.8z"/>
	<path d="M956.8,32c-1.1,0-1.3-1.1-1.3-2.1v-4.3h-1.3v-0.9h1.4v-2h1.1v2h2.3v0.9h-2.3v4c0,0.8,0.2,1.3,0.8,1.3c0.5,0,1-0.2,1.4-0.5
		l0.3,0.9C958.7,31.6,957.9,32,956.8,32z"/>
	<path d="M960.8,22.8v-1.4h1.4v1.4H960.8z M960.9,31.9v-7.1h1.2v7.1H960.9z"/>
	<path d="M967.4,32c-1.9,0-3.5-1.6-3.5-3.7c0-2.1,1.6-3.9,3.5-3.9c1.9,0,3.5,1.7,3.5,3.9C970.9,30.4,969.3,32,967.4,32z M967.4,25.5
		c-1,0-2.3,0.8-2.3,2.7c0,1.9,1.2,2.8,2.3,2.8c1.2,0,2.3-0.9,2.3-2.8C969.7,26.3,968.5,25.5,967.4,25.5z"/>
	<path d="M977.1,31.9v-4.7c0-0.5,0-1.6-1.6-1.6c-1.2,0-1.6,1.3-1.6,2.4v3.9h-1.2v-7.2h1.2v1.1c0.1-0.1,0.9-1.2,2.3-1.2
		c2,0,2.2,1.5,2.2,2.5v4.8H977.1z"/>
</g>
<g>
	
		<linearGradient id="SVGID_1_" gradientUnits="userSpaceOnUse" x1="1002.3175" y1="105.8351" x2="1002.3175" y2="192.6142" gradientTransform="matrix(0 1 -1 0 1106.5148 -954.5161)">
		<stop  offset="0" style="stop-color:#50BEED"/>
		<stop  offset="0.4797" style="stop-color:#FFFFFF"/>
		<stop  offset="1" style="stop-color:#F69696"/>
	</linearGradient>
	<polygon class="st26" points="913.9,59.3 913.9,36.3 1000.7,36.3 1000.7,59.3 	"/>
	<g>
		<path d="M994.8,48h-4.9v4.9c0,0.2,0,1-0.8,1c-0.8,0-0.8-0.8-0.8-1V48h-4.9c-0.2,0-1,0-1-0.8c0-0.8,0.8-0.8,1-0.8h4.9v-4.9
			c0-0.2,0-1,0.8-1c0.8,0,0.8,0.8,0.8,1v4.9h4.9c0.2,0,1,0,1,0.8C995.7,48,995,48,994.8,48z"/>
	</g>
	<g>
		<path d="M930.6,48h-11.3c-0.2,0-1,0-1-0.8c0-0.8,0.8-0.8,1-0.8h11.3c0.2,0,1,0,1,0.8C931.6,48,930.9,48,930.6,48z"/>
	</g>
</g>
<path class="st27" d="M66.8,210.7c29.2-42.1,49-93.9,74.2-93.9c22.4,0,74.4-23,93.8-23c6.3,0,30.8,21.1,63.8,22
	c29.2,0.8,71.7,33,100.1,33c14.2,0,74.1-31,88.2-31"/>
<path class="st28" d="M66.7,196.7c12.9-18.6,80.3-34.2,168.9-46.9c15.2-2.2,57-0.3,63.8,17c19.7,50,69.8,43.2,100.9,40
	c48.1-4.9,86.7-85,86.7-85"/>
<path class="st29" d="M66.8,167c10.9-22.7,89.1-37.8,174.9-47.6c18-2,46,21.2,57.7,11.3c44.9-38,71.3,74.7,102.4,73
	c48.3-2.7,85.1-77,85.1-77"/>
<path class="st30" d="M66.5,191.6c11.9-43.3,157.3-49.7,168.6-49.9c25.7-0.3,64.3,4,64.4,4.1c39.4,122,60,51,100.9,51
	c3.9,0,13.4-44,26-45c32.3-2.6,42.4-3.9,60.7-7"/>
<path class="st31" d="M67.3,180.3c26.1-37.7,41.5-10.5,75.4-9.5c1.7,0.1,49.6-18,92.2-18c18.1,0,29.9,21,63.8,22
	c26.8,0.8,65.6,42,101.6,42c12.3,0,87.6-41.6,86.7-41"/>
<g>
	<g>
		<polyline class="st32" points="484.3,366.5 63.6,366.5 63.6,239.7 		"/>
		<g>
			<polygon points="483.4,363.2 489.1,366.5 483.4,369.7 			"/>
		</g>
		<g>
			<polygon points="66.9,240.6 63.6,234.9 60.3,240.6 			"/>
		</g>
	</g>
</g>
<g>
	<g>
		<line class="st33" x1="975.7" y1="95.2" x2="991.9" y2="95.2"/>
		<g>
			<polygon points="990.4,100.2 999.1,95.2 990.4,90.2 			"/>
		</g>
	</g>
</g>
<g>
	<g>
		<line class="st33" x1="975.7" y1="117.8" x2="998.1" y2="117.8"/>
		<g>
			<rect x="997.1" y="111.3" width="2" height="13"/>
		</g>
	</g>
</g>
<g>
	<path d="M920.3,100c-1,0-1.7-0.4-2.2-0.9v3.8h-1.2V92.7h1.2v0.8c0.7-0.6,1.7-1,2.6-1c1.5,0,2.5,1.8,2.5,3.7
		C923.3,98.4,921.9,100,920.3,100z M919.9,93.6c-0.7,0-1.3,0.4-1.7,0.9v3.2c0,0.3,0,0.3,0.2,0.6c0.3,0.4,0.8,0.8,1.4,0.8
		c1.2,0,2.3-1.1,2.3-2.8C922,94.8,921.1,93.6,919.9,93.6z"/>
	<path d="M928.3,100c-1.9,0-3.5-1.6-3.5-3.7c0-2.1,1.6-3.9,3.5-3.9c1.9,0,3.5,1.7,3.5,3.9C931.8,98.4,930.2,100,928.3,100z
		 M928.3,93.4c-1,0-2.3,0.8-2.3,2.7c0,1.9,1.2,2.8,2.3,2.8c1.2,0,2.3-0.9,2.3-2.8C930.6,94.3,929.4,93.4,928.3,93.4z"/>
	<path d="M937.3,99.5c-0.7,0.5-1.6,0.5-1.9,0.5c-1.3,0-2.2-0.4-2.7-0.7l0.2-1.1c0.3,0.2,1.2,0.8,2.5,0.8c0.2,0,1.5,0,1.5-1.1
		c0-0.8-0.9-1-1.5-1.2c-0.9-0.2-1.2-0.2-1.7-0.6c-0.4-0.3-0.9-0.8-0.9-1.6c0-2.1,2.3-2.1,2.7-2.1c0.8,0,1.5,0.1,2.3,0.5l-0.2,1
		c-0.9-0.5-1.8-0.6-2.3-0.6c-0.2,0-1.4,0-1.4,1c0,0.8,0.7,0.9,1.6,1.1c0.8,0.1,1.2,0.2,1.9,0.8c0,0,0.6,0.6,0.6,1.5
		C938.1,98.5,937.8,99.1,937.3,99.5z"/>
	<path d="M939.7,90.8v-1.4h1.4v1.4H939.7z M939.8,99.8v-7.1h1.2v7.1H939.8z"/>
	<path d="M945.3,100c-1.1,0-1.3-1.1-1.3-2.1v-4.3h-1.3v-0.9h1.4v-2h1.1v2h2.3v0.9h-2.3v4c0,0.8,0.2,1.3,0.8,1.3c0.5,0,1-0.2,1.4-0.5
		l0.3,0.9C947.2,99.6,946.4,100,945.3,100z"/>
	<path d="M949.3,90.8v-1.4h1.4v1.4H949.3z M949.4,99.8v-7.1h1.2v7.1H949.4z"/>
	<path d="M956.3,99.8h-1.4l-2.8-7.1h1.2l1.6,4.1c0.2,0.4,0.6,1.5,0.7,2.1h0c0.1-0.8,0.6-2,1-2.9l1.3-3.3h1.2L956.3,99.8z"/>
	<path d="M960.9,96.3c0,1.6,1.1,2.7,2.4,2.7c0.4,0,1.4-0.1,2.4-0.9l0.1,1c-0.6,0.4-1.5,0.8-2.5,0.8c-1.9,0-3.5-1.7-3.5-3.8
		c0-2.1,1.4-3.8,3.2-3.8c0.6,0,1.6,0.2,2.2,1.2c0.6,1,0.6,2.2,0.6,2.7H960.9z M963,93.4c-0.9,0-1.8,0.8-2,2h4
		C964.8,94,963.9,93.4,963,93.4z"/>
</g>
<g>
	<path d="M918.7,121.9v-4.7c0-0.5,0-1.6-1.6-1.6c-1.2,0-1.6,1.3-1.6,2.4v3.9h-1.2v-7.2h1.2v1.1c0.1-0.1,0.9-1.2,2.3-1.2
		c2,0,2.2,1.5,2.2,2.5v4.8H918.7z"/>
	<path d="M922.9,118.4c0,1.6,1.1,2.7,2.4,2.7c0.4,0,1.4-0.1,2.4-0.9l0.1,1c-0.6,0.4-1.5,0.8-2.5,0.8c-1.9,0-3.5-1.7-3.5-3.8
		c0-2.1,1.4-3.8,3.2-3.8c0.6,0,1.6,0.2,2.2,1.2c0.6,1,0.6,2.2,0.6,2.7H922.9z M925,115.5c-0.9,0-1.8,0.8-2,2h4
		C926.8,116,925.9,115.5,925,115.5z"/>
	<path d="M935.2,115.5c-0.4,0-0.8,0.1-1.2,0.1l-0.1,0c0.2,0.2,0.5,0.8,0.5,1.6c0,1.4-1.1,2.6-2.6,2.6c-0.6,0-1.1-0.2-1.5-0.5
		c-0.1,0.1-0.2,0.4-0.2,0.6c0,0.8,0.7,0.8,0.9,0.8h1.4c0.6,0,3.3,0,3.3,2.2c0,1.2-1.6,2.2-3.6,2.2c-2,0-3.5-1-3.5-2.2
		c0-0.4,0.2-1.2,1-1.6c-0.3-0.3-0.4-0.8-0.4-1.2c0-0.1,0-0.7,0.5-1.4c-0.3-0.4-0.5-1-0.5-1.6c0-1.5,1.2-2.6,2.5-2.6
		c0.6,0,1.2,0.2,1.5,0.5c0.5-0.2,1.4-0.5,2.5-0.5l0.2,1C936.1,115.6,935.5,115.5,935.2,115.5z M932.6,121.9h-1.4
		c-1.2,0-1.2,1-1.2,1.1c0,0.8,1.1,1.2,2.4,1.2c1.3,0,2.4-0.5,2.4-1.2C934.8,121.9,933,121.9,932.6,121.9z M931.9,115.5
		c-0.6,0-1.4,0.4-1.4,1.7c0,1.3,0.8,1.7,1.4,1.7c0.7,0,1.4-0.4,1.4-1.7C933.3,115.9,932.6,115.5,931.9,115.5z"/>
	<path d="M941.7,121.9v-0.6c-0.9,0.7-2.4,0.8-2.7,0.8c-1.4,0-1.8-1.3-1.8-2c0-1.4,2-2.1,4.4-2.1v-0.7c0-1.2-0.6-1.8-1.4-1.8
		c-0.8,0-1.6,0.2-2.4,0.8l-0.1-1.1c0.8-0.4,1.5-0.7,2.5-0.7c1.5,0,2.6,1.1,2.6,2.8v4.6H941.7z M941.7,118.8c-0.7,0-3.3,0.1-3.3,1.3
		c0,0.7,0.7,1,1.5,1c0.2,0,0.8,0,1.2-0.3c0.5-0.3,0.5-0.7,0.5-1V118.8z"/>
	<path d="M947,122c-1.1,0-1.3-1.1-1.3-2.1v-4.3h-1.3v-0.9h1.4v-2h1.1v2h2.3v0.9h-2.3v4c0,0.8,0.2,1.3,0.8,1.3c0.5,0,1-0.2,1.4-0.5
		l0.3,0.9C949,121.6,948.2,122,947,122z"/>
	<path d="M951,112.8v-1.4h1.4v1.4H951z M951.1,121.9v-7.1h1.2v7.1H951.1z"/>
	<path d="M958,121.9h-1.4l-2.8-7.1h1.2l1.6,4.1c0.2,0.4,0.6,1.5,0.7,2.1h0c0.1-0.8,0.6-2,1-2.9l1.3-3.3h1.2L958,121.9z"/>
	<path d="M962.7,118.4c0,1.6,1.1,2.7,2.4,2.7c0.4,0,1.4-0.1,2.4-0.9l0.1,1c-0.6,0.4-1.5,0.8-2.5,0.8c-1.9,0-3.5-1.7-3.5-3.8
		c0-2.1,1.4-3.8,3.2-3.8c0.6,0,1.6,0.2,2.2,1.2c0.6,1,0.6,2.2,0.6,2.7H962.7z M964.8,115.5c-0.9,0-1.8,0.8-2,2h4
		C966.5,116,965.7,115.5,964.8,115.5z"/>
</g>
<g>
	<path d="M898.5,73.5V72h1.4v1.4H898.5z M898.6,82.5v-7.1h1.2v7.1H898.6z"/>
	<path d="M906.9,82.5v-4.7c0-0.5,0-1.6-1.6-1.6c-1.2,0-1.6,1.3-1.6,2.4v3.9h-1.2v-7.2h1.2v1.1c0.1-0.1,0.9-1.2,2.3-1.2
		c2,0,2.2,1.5,2.2,2.5v4.8H906.9z"/>
	<path d="M912.4,82.7c-1.1,0-1.3-1.1-1.3-2.1v-4.3h-1.3v-0.9h1.4v-2h1.1v2h2.3v0.9h-2.3v4c0,0.8,0.2,1.3,0.8,1.3
		c0.5,0,1-0.2,1.4-0.5l0.3,0.9C914.4,82.3,913.5,82.7,912.4,82.7z"/>
	<path d="M916.9,79c0,1.6,1.1,2.7,2.4,2.7c0.4,0,1.4-0.1,2.4-0.9l0.1,1c-0.6,0.4-1.5,0.8-2.5,0.8c-1.9,0-3.5-1.7-3.5-3.8
		c0-2.1,1.4-3.8,3.2-3.8c0.6,0,1.6,0.2,2.2,1.2c0.6,1,0.6,2.2,0.6,2.7H916.9z M919,76.1c-0.9,0-1.8,0.8-2,2h4
		C920.7,76.7,919.8,76.1,919,76.1z"/>
	<path d="M924.8,79.1v3.4h-1.2v-7.2h1.1v1.5c0.5-0.7,1.4-1.5,2.8-1.5v1.1C926,76.3,924.8,77.5,924.8,79.1z"/>
	<path d="M933.1,82.5v-0.6c-0.9,0.7-2.4,0.8-2.7,0.8c-1.4,0-1.8-1.3-1.8-2c0-1.4,2-2.1,4.4-2.1v-0.7c0-1.2-0.6-1.8-1.4-1.8
		c-0.8,0-1.6,0.2-2.4,0.8l-0.1-1.1c0.8-0.4,1.5-0.7,2.5-0.7c1.5,0,2.6,1.1,2.6,2.8v4.6H933.1z M933.1,79.4c-0.7,0-3.3,0.1-3.3,1.3
		c0,0.7,0.7,1,1.5,1c0.2,0,0.8,0,1.2-0.3c0.5-0.3,0.5-0.7,0.5-1V79.4z"/>
	<path d="M939.5,82.7c-2,0-3.5-1.7-3.5-3.7c0-1.9,1.3-3.8,3.5-3.8c1,0,1.5,0.1,2.5,0.7l-0.2,1c-0.9-0.6-1.4-0.7-2.3-0.7
		c-1.7,0-2.3,1.5-2.3,2.8c0,1.6,0.9,2.7,2.2,2.7c0.8,0,1.7-0.2,2.5-0.9l0.1,1.1C941.3,82.5,940.4,82.7,939.5,82.7z"/>
	<path d="M945.6,82.7c-1.1,0-1.3-1.1-1.3-2.1v-4.3h-1.3v-0.9h1.4v-2h1.1v2h2.3v0.9h-2.3v4c0,0.8,0.2,1.3,0.8,1.3
		c0.5,0,1-0.2,1.4-0.5l0.3,0.9C947.5,82.3,946.7,82.7,945.6,82.7z"/>
	<path d="M949.6,73.5V72h1.4v1.4H949.6z M949.7,82.5v-7.1h1.2v7.1H949.7z"/>
	<path d="M956.2,82.7c-1.9,0-3.5-1.6-3.5-3.7c0-2.1,1.6-3.9,3.5-3.9c1.9,0,3.5,1.7,3.5,3.9C959.7,81.1,958.1,82.7,956.2,82.7z
		 M956.2,76.1c-1,0-2.3,0.8-2.3,2.7c0,1.9,1.2,2.8,2.3,2.8c1.2,0,2.3-0.9,2.3-2.8C958.5,76.9,957.3,76.1,956.2,76.1z"/>
	<path d="M965.9,82.5v-4.7c0-0.5,0-1.6-1.6-1.6c-1.2,0-1.6,1.3-1.6,2.4v3.9h-1.2v-7.2h1.2v1.1c0.1-0.1,0.9-1.2,2.3-1.2
		c2,0,2.2,1.5,2.2,2.5v4.8H965.9z"/>
	<path d="M973.5,82.2c-0.7,0.5-1.6,0.5-1.9,0.5c-1.3,0-2.2-0.4-2.7-0.7l0.2-1.1c0.3,0.2,1.2,0.8,2.5,0.8c0.2,0,1.5,0,1.5-1.1
		c0-0.8-0.9-1-1.5-1.2c-0.9-0.2-1.2-0.2-1.7-0.6c-0.4-0.3-0.9-0.8-0.9-1.6c0-2.1,2.3-2.1,2.7-2.1c0.8,0,1.5,0.1,2.3,0.5l-0.2,1
		c-0.9-0.5-1.8-0.6-2.3-0.6c-0.2,0-1.4,0-1.4,1c0,0.8,0.7,0.9,1.6,1.1c0.8,0.1,1.2,0.2,1.9,0.8c0,0,0.6,0.6,0.6,1.5
		C974.2,81.2,974,81.8,973.5,82.2z"/>
</g>
<g>
	<g>
		<polyline class="st32" points="486.7,221.4 66,221.4 66,94.6 		"/>
		<g>
			<polygon points="485.7,218.1 491.4,221.4 485.7,224.7 			"/>
		</g>
		<g>
			<polygon points="69.3,95.5 66,89.8 62.7,95.5 			"/>
		</g>
	</g>
</g>
<line class="st34" x1="487" y1="73.8" x2="487" y2="192.8"/>
<g>
	<g>
		<path class="st6" d="M1200.1,164.3c13.8,15.4,27.8,40.9,32.3,56"/>
		<g>
			<polygon class="st8" points="1197.5,168.8 1195.1,159.2 1204.7,161.9 			"/>
		</g>
	</g>
</g>
<g>
	<path d="M1074.1,40.7v-6.4c0-0.8-0.1-2.3-2.2-2.3c-1.6,0-2.2,1.8-2.2,3.3v5.4h-1.7v-6.4c0-0.8-0.1-2.3-2.2-2.3
		c-1.6,0-2.2,1.8-2.2,3.3v5.4h-1.7v-9.9h1.6v1.6c0.6-0.8,1.6-1.7,3.2-1.7c0.7,0,2.2,0.1,2.8,1.8c0.8-1.2,2-1.8,3.3-1.8
		c2.7,0,3,2,3,3.5v6.6H1074.1z"/>
	<path d="M1083.1,41c-2.6,0-4.8-2.2-4.8-5.1c0-2.9,2.1-5.3,4.8-5.3c2.6,0,4.8,2.4,4.8,5.3C1087.9,38.7,1085.7,41,1083.1,41z
		 M1083.1,31.9c-1.4,0-3.1,1.1-3.1,3.7c0,2.7,1.6,3.9,3.1,3.9c1.6,0,3.1-1.3,3.1-3.9C1086.2,33.1,1084.6,31.9,1083.1,31.9z"/>
	<path d="M1097.1,40.7v-1.1c-1.2,1.2-2.5,1.4-3.3,1.4c-2.1,0-3.8-2.2-3.8-5.1c0-2.8,1.7-5.1,3.9-5.1c0.8,0,2,0.2,3.2,1.2v-6.5h1.7
		v15.3H1097.1z M1097.1,33.3c-0.5-0.7-1.1-1.2-2.1-1.2c-1.3,0-3.2,0.9-3.2,3.8c0,2.7,1.6,3.8,3,3.8c0.6,0,1.1-0.2,1.6-0.6
		c0.7-0.6,0.7-1,0.7-1.3V33.3z"/>
	<path d="M1108.5,40.7v-1.1c-1.1,0.9-2.6,1.3-3.8,1.3c-1.8,0-2.3-1.1-2.3-2.6V31h1.7v7.3c0,0.9,0.2,1.5,1.7,1.5
		c1.4,0,2.6-0.8,2.6-2.4V31h1.7v9.8H1108.5z"/>
	<path d="M1113.8,40.7V25.5h1.7v15.3H1113.8z"/>
	<path d="M1119.6,35.9c0.1,2.2,1.5,3.7,3.2,3.7c0.5,0,2-0.1,3.3-1.2l0.1,1.4c-0.9,0.6-2.1,1.1-3.5,1.1c-2.6,0-4.8-2.3-4.8-5.2
		c0-2.8,2-5.2,4.4-5.2c0.8,0,2.1,0.2,3,1.6c0.9,1.3,0.9,3,0.9,3.7H1119.6z M1122.4,31.9c-1.3,0-2.4,1.1-2.8,2.8h5.4
		C1124.8,32.7,1123.6,31.9,1122.4,31.9z"/>
</g>
<g>
	<path d="M1063.7,74.3c-1.5,0-1.8-1.5-1.8-2.9v-5.9h-1.8v-1.3h1.9v-2.8h1.5v2.8h3.1v1.3h-3.1v5.5c0,1.2,0.3,1.8,1.1,1.8
		c0.7,0,1.4-0.3,2-0.7l0.4,1.3C1066.3,73.7,1065.2,74.3,1063.7,74.3z"/>
	<path d="M1074.9,74.1v-0.8c-1.3,1-3.3,1-3.7,1c-1.9,0-2.5-1.8-2.5-2.7c0-1.9,2.8-2.9,6.1-2.9v-0.9c0-1.6-0.9-2.5-1.9-2.5
		c-1.1,0-2.2,0.3-3.3,1.1l-0.1-1.5c1-0.6,2-0.9,3.5-0.9c2,0,3.6,1.5,3.6,3.8v6.4H1074.9z M1074.8,69.8c-0.9,0-4.5,0.2-4.5,1.7
		c0,0.9,1,1.4,2,1.4c0.2,0,1.1,0,1.7-0.4c0.7-0.4,0.7-1,0.7-1.4V69.8z"/>
	<path d="M1086.4,74.1l-3.3-4.1l-3.2,4.1h-1.8l4.3-5l-4.1-4.7h1.8l3,3.6l2.9-3.6h1.8l-4,4.7l4.4,5H1086.4z"/>
	<path d="M1095.6,74.1v-0.8c-1.3,1-3.3,1-3.7,1c-1.9,0-2.5-1.8-2.5-2.7c0-1.9,2.8-2.9,6.1-2.9v-0.9c0-1.6-0.9-2.5-1.9-2.5
		c-1.1,0-2.2,0.3-3.3,1.1l-0.1-1.5c1-0.6,2-0.9,3.5-0.9c2,0,3.6,1.5,3.6,3.8v6.4H1095.6z M1095.5,69.8c-0.9,0-4.5,0.2-4.5,1.7
		c0,0.9,1,1.4,2,1.4c0.2,0,1.1,0,1.7-0.4c0.7-0.4,0.7-1,0.7-1.4V69.8z"/>
</g>
<path class="st35" d="M1101.9,69.8c19-1,20,24,31,39"/>
<path class="st35" d="M1134.9,34.8c13,0,38,28,38,39"/>
<g>
	<path d="M150.8,84.9c-1,0-1.7-0.4-2.2-0.9v3.8h-1.2V77.6h1.2v0.8c0.7-0.6,1.7-1,2.6-1c1.5,0,2.5,1.8,2.5,3.7
		C153.8,83.3,152.4,84.9,150.8,84.9z M150.4,78.5c-0.7,0-1.3,0.4-1.7,0.9v3.2c0,0.3,0,0.3,0.2,0.6c0.3,0.4,0.8,0.8,1.4,0.8
		c1.2,0,2.3-1.1,2.3-2.8C152.5,79.7,151.6,78.5,150.4,78.5z"/>
	<path d="M156.5,81.2c0,1.6,1.1,2.7,2.4,2.7c0.4,0,1.4-0.1,2.4-0.9l0.1,1c-0.6,0.4-1.5,0.8-2.5,0.8c-1.9,0-3.5-1.7-3.5-3.8
		c0-2.1,1.4-3.8,3.2-3.8c0.6,0,1.6,0.2,2.2,1.2c0.6,1,0.6,2.2,0.6,2.7H156.5z M158.6,78.3c-0.9,0-1.8,0.8-2,2h4
		C160.3,78.9,159.4,78.3,158.6,78.3z"/>
	<path d="M164.4,81.3v3.4h-1.2v-7.2h1.1V79c0.5-0.7,1.4-1.5,2.8-1.5v1.1C165.6,78.6,164.4,79.7,164.4,81.3z"/>
	<path d="M170.4,84.9c-1.1,0-1.3-1.1-1.3-2.1v-4.3h-1.3v-0.9h1.4v-2h1.1v2h2.3v0.9h-2.3v4c0,0.8,0.2,1.3,0.8,1.3
		c0.5,0,1-0.2,1.4-0.5l0.3,0.9C172.3,84.5,171.5,84.9,170.4,84.9z"/>
	<path d="M178.9,84.7V84c-0.8,0.7-1.9,0.9-2.8,0.9c-1.3,0-1.7-0.8-1.7-1.9v-5.4h1.2v5.3c0,0.7,0.1,1.1,1.2,1.1c1,0,1.9-0.6,1.9-1.8
		v-4.6h1.2v7.1H178.9z"/>
	<path d="M184,81.3v3.4h-1.2v-7.2h1.1V79c0.5-0.7,1.4-1.5,2.8-1.5v1.1C185.1,78.6,184,79.7,184,81.3z"/>
	<path d="M191.6,84.9c-1.1,0-1.8-0.6-2.1-0.9v0.7h-1.2V73.6h1.2v4.8c1-0.8,2-0.9,2.6-0.9c1.5,0,2.6,1.7,2.6,3.7
		C194.6,83.3,193.2,84.9,191.6,84.9z M191.2,78.4c-0.9,0-1.5,0.6-1.7,0.9v3.5c0.4,0.7,0.9,1,1.6,1c1,0,2.3-0.7,2.3-2.8
		C193.4,79.1,192.1,78.4,191.2,78.4z"/>
	<path d="M200.5,84.7v-0.6c-0.9,0.7-2.4,0.8-2.7,0.8c-1.4,0-1.8-1.3-1.8-2c0-1.4,2-2.1,4.4-2.1v-0.7c0-1.2-0.6-1.8-1.4-1.8
		c-0.8,0-1.6,0.2-2.4,0.8l-0.1-1.1c0.8-0.4,1.5-0.7,2.5-0.7c1.5,0,2.6,1.1,2.6,2.8v4.6H200.5z M200.5,81.6c-0.7,0-3.3,0.1-3.3,1.3
		c0,0.7,0.7,1,1.5,1c0.2,0,0.8,0,1.2-0.3c0.5-0.3,0.5-0.7,0.5-1V81.6z"/>
	<path d="M205.9,84.9c-1.1,0-1.3-1.1-1.3-2.1v-4.3h-1.3v-0.9h1.4v-2h1.1v2h2.3v0.9h-2.3v4c0,0.8,0.2,1.3,0.8,1.3
		c0.5,0,1-0.2,1.4-0.5l0.3,0.9C207.8,84.5,207,84.9,205.9,84.9z"/>
	<path d="M209.9,75.7v-1.4h1.4v1.4H209.9z M210,84.7v-7.1h1.2v7.1H210z"/>
	<path d="M216.5,84.9c-1.9,0-3.5-1.6-3.5-3.7c0-2.1,1.6-3.9,3.5-3.9c1.9,0,3.5,1.7,3.5,3.9C220,83.3,218.4,84.9,216.5,84.9z
		 M216.5,78.3c-1,0-2.3,0.8-2.3,2.7s1.2,2.8,2.3,2.8c1.2,0,2.3-0.9,2.3-2.8S217.6,78.3,216.5,78.3z"/>
	<path d="M226.2,84.7v-4.7c0-0.5,0-1.6-1.6-1.6c-1.2,0-1.6,1.3-1.6,2.4v3.9h-1.2v-7.2h1.2v1.1c0.1-0.1,0.9-1.2,2.3-1.2
		c2,0,2.2,1.5,2.2,2.5v4.8H226.2z"/>
	<path d="M235.6,84.7v-0.9h2v-8.3c-0.8,0.3-1.6,0.4-2.1,0.4v-0.9c0.8,0,2.1-0.1,3-1.1h0.3v9.9h2v0.9H235.6z"/>
</g>
<g>
	<path d="M309.9,87.9c-1,0-1.7-0.4-2.2-0.9v3.8h-1.2V80.6h1.2v0.8c0.7-0.6,1.7-1,2.6-1c1.5,0,2.5,1.8,2.5,3.7
		C312.9,86.3,311.5,87.9,309.9,87.9z M309.5,81.5c-0.7,0-1.3,0.4-1.7,0.9v3.2c0,0.3,0,0.3,0.2,0.6c0.3,0.4,0.8,0.8,1.4,0.8
		c1.2,0,2.3-1.1,2.3-2.8C311.6,82.7,310.7,81.5,309.5,81.5z"/>
	<path d="M315.6,84.2c0,1.6,1.1,2.7,2.4,2.7c0.4,0,1.4-0.1,2.4-0.9l0.1,1c-0.6,0.4-1.5,0.8-2.5,0.8c-1.9,0-3.5-1.7-3.5-3.8
		c0-2.1,1.4-3.8,3.2-3.8c0.6,0,1.6,0.2,2.2,1.2c0.6,1,0.6,2.2,0.6,2.7H315.6z M317.7,81.3c-0.9,0-1.8,0.8-2,2h4
		C319.4,81.9,318.5,81.3,317.7,81.3z"/>
	<path d="M323.5,84.3v3.4h-1.2v-7.2h1.1V82c0.5-0.7,1.4-1.5,2.8-1.5v1.1C324.7,81.6,323.5,82.7,323.5,84.3z"/>
	<path d="M329.5,87.9c-1.1,0-1.3-1.1-1.3-2.1v-4.3h-1.3v-0.9h1.4v-2h1.1v2h2.3v0.9h-2.3v4c0,0.8,0.2,1.3,0.8,1.3
		c0.5,0,1-0.2,1.4-0.5l0.3,0.9C331.4,87.5,330.6,87.9,329.5,87.9z"/>
	<path d="M338,87.7V87c-0.8,0.7-1.9,0.9-2.8,0.9c-1.3,0-1.7-0.8-1.7-1.9v-5.4h1.2v5.3c0,0.7,0.1,1.1,1.2,1.1c1,0,1.9-0.6,1.9-1.8
		v-4.6h1.2v7.1H338z"/>
	<path d="M343.1,84.3v3.4h-1.2v-7.2h1.1V82c0.5-0.7,1.4-1.5,2.8-1.5v1.1C344.2,81.6,343.1,82.7,343.1,84.3z"/>
	<path d="M350.7,87.9c-1.1,0-1.8-0.6-2.1-0.9v0.7h-1.2V76.6h1.2v4.8c1-0.8,2-0.9,2.6-0.9c1.5,0,2.6,1.7,2.6,3.7
		C353.7,86.3,352.3,87.9,350.7,87.9z M350.3,81.4c-0.9,0-1.5,0.6-1.7,0.9v3.5c0.4,0.7,0.9,1,1.6,1c1,0,2.3-0.7,2.3-2.8
		C352.5,82.1,351.2,81.4,350.3,81.4z"/>
	<path d="M359.6,87.7v-0.6c-0.9,0.7-2.4,0.8-2.7,0.8c-1.4,0-1.8-1.3-1.8-2c0-1.4,2-2.1,4.4-2.1v-0.7c0-1.2-0.6-1.8-1.4-1.8
		c-0.8,0-1.6,0.2-2.4,0.8l-0.1-1.1c0.8-0.4,1.5-0.7,2.5-0.7c1.5,0,2.6,1.1,2.6,2.8v4.6H359.6z M359.6,84.6c-0.7,0-3.3,0.1-3.3,1.3
		c0,0.7,0.7,1,1.5,1c0.2,0,0.8,0,1.2-0.3c0.5-0.3,0.5-0.7,0.5-1V84.6z"/>
	<path d="M365,87.9c-1.1,0-1.3-1.1-1.3-2.1v-4.3h-1.3v-0.9h1.4v-2h1.1v2h2.3v0.9h-2.3v4c0,0.8,0.2,1.3,0.8,1.3c0.5,0,1-0.2,1.4-0.5
		l0.3,0.9C366.9,87.5,366.1,87.9,365,87.9z"/>
	<path d="M369,78.7v-1.4h1.4v1.4H369z M369.1,87.7v-7.1h1.2v7.1H369.1z"/>
	<path d="M375.6,87.9c-1.9,0-3.5-1.6-3.5-3.7c0-2.1,1.6-3.9,3.5-3.9c1.9,0,3.5,1.7,3.5,3.9C379.1,86.3,377.5,87.9,375.6,87.9z
		 M375.6,81.3c-1,0-2.3,0.8-2.3,2.7s1.2,2.8,2.3,2.8c1.2,0,2.3-0.9,2.3-2.8S376.7,81.3,375.6,81.3z"/>
	<path d="M385.3,87.7v-4.7c0-0.5,0-1.6-1.6-1.6c-1.2,0-1.6,1.3-1.6,2.4v3.9h-1.2v-7.2h1.2v1.1c0.1-0.1,0.9-1.2,2.3-1.2
		c2,0,2.2,1.5,2.2,2.5v4.8H385.3z"/>
	<path d="M394,87.7v-1l2-2l1.2-1.1c0.9-1,1.9-1.9,1.9-3.2c0-1.2-0.8-2.4-2.3-2.4c-1.5,0-1.9,1.2-2.2,2.5c-0.2-0.2-0.3-0.4-0.4-0.5
		c0,0-0.1-0.1-0.3-0.4c0.4-1.4,1.3-2.6,3.1-2.6c2.1,0,3.4,1.6,3.4,3.4c0,1.4-0.9,2.2-1.6,2.9c-0.3,0.3-1.1,1-1.4,1.2
		c-0.5,0.5-1.7,1.7-2.2,2.1h1.7c0.2,0,0.4,0,0.6,0h2.9v1.1H394z"/>
</g>
<g>
	<path d="M1219.8,41.1c-1.3,0-2.3-0.6-3-1.3v5.3h-1.7v-14h1.6v1.1c1-0.9,2.3-1.3,3.6-1.3c2.1,0,3.5,2.5,3.5,5.1
		C1223.8,38.9,1221.9,41.1,1219.8,41.1z M1219.1,32.2c-0.9,0-1.8,0.5-2.3,1.3v4.4c0,0.4,0,0.4,0.2,0.8c0.4,0.6,1,1,1.9,1
		c1.7,0,3.2-1.5,3.2-3.8C1222.1,33.9,1220.8,32.2,1219.1,32.2z"/>
	<path d="M1227.6,36c0.1,2.2,1.5,3.7,3.2,3.7c0.5,0,2-0.1,3.3-1.2l0.1,1.4c-0.9,0.6-2.1,1.1-3.5,1.1c-2.6,0-4.8-2.3-4.8-5.2
		c0-2.8,2-5.2,4.4-5.2c0.8,0,2.1,0.2,3,1.6c0.9,1.3,0.9,3,0.9,3.7H1227.6z M1230.5,32c-1.3,0-2.4,1.1-2.8,2.8h5.4
		C1232.8,32.8,1231.6,32,1230.5,32z"/>
	<path d="M1238.5,36.1v4.7h-1.6v-9.9h1.5v2c0.7-1,1.9-2.1,3.9-2.1v1.5C1240.1,32.3,1238.5,33.9,1238.5,36.1z"/>
	<path d="M1246.7,41.1c-1.5,0-1.8-1.5-1.8-2.9v-5.9h-1.8v-1.3h1.9v-2.8h1.5v2.8h3.1v1.3h-3.1v5.5c0,1.2,0.3,1.8,1.1,1.8
		c0.7,0,1.4-0.3,2-0.7l0.4,1.3C1249.3,40.5,1248.2,41.1,1246.7,41.1z"/>
	<path d="M1258.4,40.8v-1.1c-1.1,0.9-2.6,1.3-3.8,1.3c-1.8,0-2.3-1.1-2.3-2.6v-7.4h1.7v7.3c0,0.9,0.2,1.5,1.7,1.5
		c1.4,0,2.6-0.8,2.6-2.4v-6.4h1.7v9.8H1258.4z"/>
	<path d="M1265.3,36.1v4.7h-1.6v-9.9h1.5v2c0.7-1,1.9-2.1,3.9-2.1v1.5C1266.9,32.3,1265.3,33.9,1265.3,36.1z"/>
	<path d="M1275.9,41.1c-1.5,0-2.4-0.8-2.9-1.3v1h-1.7V25.5h1.6v6.6c1.3-1.1,2.7-1.3,3.5-1.3c2.1,0,3.6,2.4,3.6,5.1
		C1280,38.9,1278.1,41.1,1275.9,41.1z M1275.3,32.2c-1.2,0-2,0.8-2.4,1.3v4.9c0.5,1,1.3,1.4,2.1,1.4c1.3,0,3.2-0.9,3.2-3.8
		C1278.3,33.1,1276.6,32.2,1275.3,32.2z"/>
	<path d="M1288.1,40.8V40c-1.3,1-3.3,1-3.7,1c-1.9,0-2.5-1.8-2.5-2.7c0-1.9,2.8-2.9,6.1-2.9v-0.9c0-1.6-0.9-2.5-1.9-2.5
		c-1.1,0-2.2,0.3-3.3,1.1l-0.1-1.5c1-0.6,2-0.9,3.5-0.9c2,0,3.6,1.5,3.6,3.8v6.4H1288.1z M1288.1,36.6c-0.9,0-4.5,0.2-4.5,1.7
		c0,0.9,1,1.4,2,1.4c0.2,0,1.1,0,1.7-0.4c0.7-0.4,0.7-1,0.7-1.4V36.6z"/>
	<path d="M1295.5,41.1c-1.5,0-1.8-1.5-1.8-2.9v-5.9h-1.8v-1.3h1.9v-2.8h1.5v2.8h3.1v1.3h-3.1v5.5c0,1.2,0.3,1.8,1.1,1.8
		c0.7,0,1.4-0.3,2-0.7l0.4,1.3C1298.1,40.5,1297,41.1,1295.5,41.1z"/>
	<path d="M1301,28.4v-2h2v2H1301z M1301.1,40.8v-9.8h1.7v9.8H1301.1z"/>
	<path d="M1310,41.1c-2.6,0-4.8-2.2-4.8-5.1c0-2.9,2.1-5.3,4.8-5.3c2.6,0,4.8,2.4,4.8,5.3C1314.9,38.8,1312.7,41.1,1310,41.1z
		 M1310,32c-1.4,0-3.1,1.1-3.1,3.7c0,2.7,1.6,3.9,3.1,3.9c1.6,0,3.1-1.3,3.1-3.9C1313.2,33.2,1311.6,32,1310,32z"/>
	<path d="M1323.4,40.8v-6.4c0-0.7,0-2.3-2.1-2.3c-1.7,0-2.2,1.8-2.2,3.3v5.4h-1.7v-9.9h1.6v1.6c0.1-0.2,1.2-1.7,3.2-1.7
		c2.7,0,3,2,3,3.5v6.6H1323.4z"/>
	<path d="M1333.8,40.4c-0.9,0.7-2.2,0.7-2.6,0.7c-1.8,0-3-0.6-3.7-1l0.3-1.5c0.4,0.3,1.6,1.1,3.4,1.1c0.3,0,2.1,0,2.1-1.5
		c0-1.2-1.3-1.4-2.1-1.6c-1.2-0.2-1.7-0.3-2.4-0.8c-0.5-0.4-1.2-1.1-1.2-2.2c0-2.9,3.1-2.9,3.7-2.9c1.1,0,2,0.2,3.2,0.7l-0.3,1.4
		c-1.3-0.7-2.4-0.8-3.1-0.8c-0.3,0-1.9,0-1.9,1.4c0,1.1,1,1.3,2.2,1.5c1.1,0.2,1.7,0.3,2.6,1.1c0,0.1,0.9,0.8,0.9,2
		C1334.9,38.9,1334.5,39.8,1333.8,40.4z"/>
</g>
<g>
	<path d="M1268.5,168.4v-2h2v2H1268.5z M1268.6,180.8V171h1.7v9.8H1268.6z"/>
	<path d="M1279.9,180.8v-6.4c0-0.7,0-2.3-2.1-2.3c-1.7,0-2.2,1.8-2.2,3.3v5.4h-1.7v-9.9h1.6v1.6c0.1-0.2,1.2-1.7,3.2-1.7
		c2.7,0,3,2,3,3.5v6.6H1279.9z"/>
	<path d="M1287.5,181.1c-1.5,0-1.8-1.5-1.8-2.9v-5.9h-1.8V171h1.9v-2.8h1.5v2.8h3.1v1.3h-3.1v5.5c0,1.2,0.3,1.8,1.1,1.8
		c0.7,0,1.4-0.3,2-0.7l0.4,1.3C1290.2,180.5,1289.1,181.1,1287.5,181.1z"/>
	<path d="M1293.7,176c0.1,2.2,1.5,3.7,3.2,3.7c0.5,0,2-0.1,3.3-1.2l0.1,1.4c-0.9,0.6-2.1,1.1-3.5,1.1c-2.6,0-4.8-2.3-4.8-5.2
		c0-2.8,2-5.2,4.4-5.2c0.8,0,2.1,0.2,3,1.6c0.9,1.3,0.9,3,0.9,3.7H1293.7z M1296.6,172c-1.3,0-2.4,1.1-2.8,2.8h5.4
		C1298.9,172.8,1297.7,172,1296.6,172z"/>
	<path d="M1304.6,176.1v4.7h-1.6v-9.9h1.5v2c0.7-1,1.9-2.1,3.9-2.1v1.5C1306.2,172.3,1304.6,173.9,1304.6,176.1z"/>
	<path d="M1316,180.8V180c-1.3,1-3.3,1-3.7,1c-1.9,0-2.5-1.8-2.5-2.7c0-1.9,2.8-2.9,6.1-2.9v-0.9c0-1.6-0.9-2.5-1.9-2.5
		c-1.1,0-2.2,0.3-3.3,1.1l-0.1-1.5c1-0.6,2-0.9,3.5-0.9c2,0,3.6,1.5,3.6,3.8v6.4H1316z M1315.9,176.6c-0.9,0-4.5,0.2-4.5,1.7
		c0,0.9,1,1.4,2,1.4c0.2,0,1.1,0,1.7-0.4c0.7-0.4,0.7-1,0.7-1.4V176.6z"/>
	<path d="M1324.8,181.1c-2.8,0-4.8-2.4-4.8-5.1c0-2.6,1.8-5.3,4.8-5.3c1.3,0,2.1,0.2,3.4,0.9l-0.3,1.4c-1.2-0.8-2-1-3.1-1
		c-2.3,0-3.1,2.1-3.1,3.8c0,2.2,1.2,3.7,3.1,3.7c1.1,0,2.3-0.3,3.4-1.2l0.1,1.5C1327.2,180.8,1326,181.1,1324.8,181.1z"/>
	<path d="M1333.1,181.1c-1.5,0-1.8-1.5-1.8-2.9v-5.9h-1.8V171h1.9v-2.8h1.5v2.8h3.1v1.3h-3.1v5.5c0,1.2,0.3,1.8,1.1,1.8
		c0.7,0,1.4-0.3,2-0.7l0.4,1.3C1335.8,180.5,1334.6,181.1,1333.1,181.1z"/>
	<path d="M1338.6,168.4v-2h2v2H1338.6z M1338.7,180.8V171h1.7v9.8H1338.7z"/>
	<path d="M1347.7,181.1c-2.6,0-4.8-2.2-4.8-5.1c0-2.9,2.1-5.3,4.8-5.3c2.6,0,4.8,2.4,4.8,5.3
		C1352.5,178.8,1350.3,181.1,1347.7,181.1z M1347.7,172c-1.4,0-3.1,1.1-3.1,3.7s1.6,3.9,3.1,3.9c1.6,0,3.1-1.3,3.1-3.9
		S1349.2,172,1347.7,172z"/>
	<path d="M1361.1,180.8v-6.4c0-0.7,0-2.3-2.1-2.3c-1.7,0-2.2,1.8-2.2,3.3v5.4h-1.7v-9.9h1.6v1.6c0.1-0.2,1.2-1.7,3.2-1.7
		c2.7,0,3,2,3,3.5v6.6H1361.1z"/>
	<path d="M1371.5,180.4c-0.9,0.7-2.2,0.7-2.6,0.7c-1.8,0-3-0.6-3.7-1l0.3-1.5c0.4,0.3,1.6,1.1,3.4,1.1c0.3,0,2.1,0,2.1-1.5
		c0-1.2-1.3-1.4-2.1-1.6c-1.2-0.2-1.7-0.3-2.4-0.8c-0.5-0.4-1.2-1.1-1.2-2.2c0-2.9,3.1-2.9,3.7-2.9c1.1,0,2,0.2,3.2,0.7l-0.3,1.4
		c-1.3-0.7-2.4-0.8-3.1-0.8c-0.3,0-1.9,0-1.9,1.4c0,1.1,1,1.3,2.2,1.5c1.1,0.2,1.7,0.3,2.6,1.1c0,0.1,0.9,0.8,0.9,2
		C1372.5,178.9,1372.1,179.8,1371.5,180.4z"/>
</g>
<path class="st35" d="M1266.9,173.8c-20-7-31.7,22.8-49,16"/>
<path class="st35" d="M1164.9,282.8c4,26.4-11,46-8,58"/>
<g>
	<g>
		<polyline class="st36" points="1238.5,444.8 1090.9,444.8 1090.9,358.2 		"/>
		<g>
			<polygon points="1238.1,443.2 1240.9,444.8 1238.1,446.5 			"/>
		</g>
		<g>
			<polygon points="1092.5,358.7 1090.9,355.8 1089.3,358.7 			"/>
		</g>
	</g>
</g>
<g>
	<path d="M1140.9,457.2c-1.1,0-1.9-0.5-2.4-1v4.3h-1.4V449h1.4v0.9c0.8-0.7,1.9-1.1,3-1.1c1.7,0,2.9,2,2.9,4.2
		C1144.2,455.4,1142.6,457.2,1140.9,457.2z M1140.3,449.9c-0.8,0-1.5,0.4-1.9,1v3.6c0,0.3,0,0.4,0.2,0.6c0.4,0.5,0.8,0.8,1.5,0.8
		c1.4,0,2.6-1.3,2.6-3.1C1142.8,451.3,1141.7,449.9,1140.3,449.9z"/>
	<path d="M1150.9,457v-0.6c-1,0.8-2.7,0.8-3,0.8c-1.6,0-2.1-1.5-2.1-2.2c0-1.6,2.3-2.3,5-2.4v-0.8c0-1.3-0.7-2.1-1.6-2.1
		c-0.9,0-1.8,0.2-2.7,0.9l-0.1-1.2c0.8-0.5,1.7-0.8,2.8-0.8c1.7,0,3,1.3,3,3.1v5.2H1150.9z M1150.8,453.5c-0.8,0-3.7,0.2-3.7,1.4
		c0,0.8,0.8,1.2,1.7,1.2c0.2,0,0.9,0,1.4-0.3c0.6-0.3,0.6-0.8,0.6-1.1V453.5z"/>
	<path d="M1155.8,453.1v3.9h-1.4v-8.1h1.3v1.6c0.6-0.8,1.5-1.7,3.2-1.7v1.2C1157.1,450,1155.8,451.3,1155.8,453.1z"/>
	<path d="M1165.2,457v-0.6c-1,0.8-2.7,0.8-3,0.8c-1.6,0-2.1-1.5-2.1-2.2c0-1.6,2.3-2.3,5-2.4v-0.8c0-1.3-0.7-2.1-1.6-2.1
		c-0.9,0-1.8,0.2-2.7,0.9l-0.1-1.2c0.8-0.5,1.7-0.8,2.8-0.8c1.7,0,3,1.3,3,3.1v5.2H1165.2z M1165.1,453.5c-0.8,0-3.7,0.2-3.7,1.4
		c0,0.8,0.8,1.2,1.7,1.2c0.2,0,0.9,0,1.4-0.3c0.6-0.3,0.6-0.8,0.6-1.1V453.5z"/>
	<path d="M1179.3,457v-5.2c0-0.7-0.1-1.9-1.8-1.9c-1.3,0-1.8,1.5-1.8,2.7v4.4h-1.4v-5.2c0-0.7-0.1-1.9-1.8-1.9
		c-1.3,0-1.8,1.5-1.8,2.7v4.4h-1.4v-8.1h1.3v1.3c0.5-0.6,1.3-1.4,2.6-1.4c0.6,0,1.8,0.1,2.3,1.5c0.7-1,1.6-1.5,2.7-1.5
		c2.2,0,2.5,1.6,2.5,2.8v5.4H1179.3z"/>
	<path d="M1184,453c0.1,1.8,1.2,3,2.6,3c0.4,0,1.6-0.1,2.7-1l0.1,1.2c-0.7,0.5-1.7,0.9-2.9,0.9c-2.2,0-3.9-1.9-3.9-4.3
		c0-2.3,1.6-4.2,3.6-4.2c0.6,0,1.7,0.2,2.5,1.3c0.7,1.1,0.7,2.4,0.7,3H1184z M1186.4,449.8c-1,0-2,0.9-2.3,2.3h4.4
		C1188.3,450.4,1187.3,449.8,1186.4,449.8z"/>
	<path d="M1193.5,457.2c-1.2,0-1.5-1.3-1.5-2.3V450h-1.5v-1h1.6v-2.3h1.2v2.3h2.5v1h-2.5v4.5c0,1,0.3,1.5,0.9,1.5
		c0.6,0,1.2-0.2,1.6-0.6l0.3,1.1C1195.6,456.7,1194.7,457.2,1193.5,457.2z"/>
	<path d="M1198.5,453c0.1,1.8,1.2,3,2.6,3c0.4,0,1.6-0.1,2.7-1l0.1,1.2c-0.7,0.5-1.7,0.9-2.9,0.9c-2.2,0-3.9-1.9-3.9-4.3
		c0-2.3,1.6-4.2,3.6-4.2c0.6,0,1.7,0.2,2.5,1.3c0.7,1.1,0.7,2.4,0.7,3H1198.5z M1200.9,449.8c-1,0-2,0.9-2.3,2.3h4.4
		C1202.8,450.4,1201.8,449.8,1200.9,449.8z"/>
	<path d="M1207.4,453.1v3.9h-1.4v-8.1h1.3v1.6c0.6-0.8,1.5-1.7,3.2-1.7v1.2C1208.7,450,1207.4,451.3,1207.4,453.1z"/>
</g>
<g>
	<path d="M1073,433c0,0.5,0.1,1.7,1.5,1.7h2.1v-2h1v2h7v1.4h-7v1.3h-1V436h-1.6c-1.8,0-3.1-1.3-3.1-3c0-0.7,0.1-1.2,0.2-1.4h1.2
		C1073.1,432.2,1073,432.7,1073,433z"/>
	<path d="M1080.8,429.5h3.9v1.4h-8.1v-1.3h1.6c-0.8-0.6-1.7-1.5-1.7-3.2h1.2C1077.7,428.2,1079,429.5,1080.8,429.5z"/>
	<path d="M1080.7,424.2c1.8-0.1,3-1.2,3-2.6c0-0.4-0.1-1.6-1-2.7l1.2-0.1c0.5,0.7,0.9,1.7,0.9,2.9c0,2.2-1.9,3.9-4.3,3.9
		c-2.3,0-4.2-1.6-4.2-3.6c0-0.6,0.2-1.7,1.3-2.5c1.1-0.7,2.4-0.7,3-0.7V424.2z M1077.4,421.9c0,1,0.9,2,2.3,2.3v-4.4
		C1078.1,419.9,1077.4,421,1077.4,421.9z"/>
	<path d="M1088.1,411.7h-4.4c0.7,0.8,1.1,1.7,1.1,2.7c0,1.7-1.9,3-4.2,3c-2.4,0-4.2-1.5-4.2-3.3c0-1.4,1-2.3,1.2-2.5h-1.2v-1.4h11.7
		V411.7z M1079.6,411.7c-0.7,0-2,0.6-2,1.8c0,1.3,1.2,2.6,3.1,2.6c1.7,0,3.1-1.1,3.1-2.4c0-0.6-0.3-1.3-1-1.8
		c-0.2-0.2-0.3-0.2-0.6-0.2H1079.6z"/>
	<path d="M1084.6,402.4h-0.9c0.8,0.9,1.1,2.2,1.1,3.1c0,1.5-0.9,1.9-2.2,1.9h-6V406h6c0.8,0,1.2-0.1,1.2-1.4c0-1.2-0.6-2.2-2-2.2
		h-5.2V401h8V402.4z"/>
	<path d="M1080.7,397.6c1.8-0.1,3-1.2,3-2.6c0-0.4-0.1-1.6-1-2.7l1.2-0.1c0.5,0.7,0.9,1.7,0.9,2.9c0,2.2-1.9,3.9-4.3,3.9
		c-2.3,0-4.2-1.6-4.2-3.6c0-0.6,0.2-1.7,1.3-2.5c1.1-0.7,2.4-0.7,3-0.7V397.6z M1077.4,395.3c0,1,0.9,2,2.3,2.3v-4.4
		C1078.1,393.3,1077.4,394.3,1077.4,395.3z"/>
	<path d="M1084.6,385.1h-5.2c-0.6,0-1.9,0-1.9,1.7c0,1.4,1.5,1.8,2.7,1.8h4.4v1.4h-8.1v-1.3h1.3c-0.1-0.1-1.4-1-1.4-2.6
		c0-2.2,1.6-2.5,2.8-2.5h5.4V385.1z"/>
	<path d="M1084.8,377.7c0,2.2-2,3.9-4.2,3.9c-2.1,0-4.3-1.5-4.3-4c0-1.1,0.2-1.7,0.8-2.8l1.2,0.2c-0.6,1-0.8,1.6-0.8,2.5
		c0,1.9,1.7,2.6,3.1,2.6c1.8,0,3.1-1,3.1-2.5c0-0.9-0.3-1.9-1-2.8l1.2-0.1C1084.6,375.7,1084.8,376.7,1084.8,377.7z"/>
	<path d="M1086.3,370.1c1.8,0.7,2.1,1.4,2.1,2c0,0.4-0.1,0.9-0.1,1.3l-1.2,0.1c0.2-0.5,0.3-1.1,0.3-1.4c0-0.3,0-0.6-1-1l-1.6-0.6
		l-8,3.5v-1.4l2.2-1c0.2-0.1,3.5-1.5,4.7-1.6v0c-0.4,0-1.2-0.1-7-2.4v-1.4L1086.3,370.1z"/>
</g>
<path class="st37" d="M1095.4,444.3c27.5,0.5,34.5-24.5,70.5-24.5c30,0,44,25,67.5,24.5"/>
<path class="st38" d="M1095.2,444.2c12.6,1.6,15.8-77.9,32.3-77.9c13.7,0,20.1,79.4,30.9,77.9"/>
<g>
	<path d="M1180.2,381.3c-1.1,0-1.9-0.5-2.4-1v4.3h-1.4v-11.5h1.4v0.9c0.8-0.7,1.9-1.1,3-1.1c1.7,0,2.9,2,2.9,4.2
		C1183.6,379.6,1182,381.3,1180.2,381.3z M1179.7,374.1c-0.8,0-1.5,0.4-1.9,1v3.6c0,0.3,0,0.4,0.2,0.6c0.4,0.5,0.8,0.8,1.5,0.8
		c1.4,0,2.6-1.3,2.6-3.1C1182.2,375.4,1181.1,374.1,1179.7,374.1z"/>
	<path d="M1189.2,381.3c-2.1,0-3.9-1.8-3.9-4.2c0-2.4,1.7-4.3,4-4.3c2.1,0,3.9,1.9,3.9,4.3C1193.2,379.5,1191.4,381.3,1189.2,381.3z
		 M1189.2,373.9c-1.2,0-2.5,0.9-2.5,3.1s1.3,3.2,2.5,3.2c1.3,0,2.6-1.1,2.6-3.2C1191.8,374.9,1190.5,373.9,1189.2,373.9z"/>
	<path d="M1199.4,380.7c-0.8,0.6-1.8,0.6-2.1,0.6c-1.5,0-2.4-0.5-3-0.8l0.2-1.2c0.3,0.2,1.3,0.9,2.8,0.9c0.3,0,1.7,0,1.7-1.2
		c0-1-1-1.2-1.7-1.3c-1-0.2-1.4-0.3-1.9-0.7c-0.5-0.3-1-0.9-1-1.8c0-2.4,2.5-2.4,3-2.4c0.9,0,1.7,0.1,2.6,0.6l-0.2,1.2
		c-1-0.6-2-0.7-2.6-0.7c-0.2,0-1.5,0-1.5,1.1c0,0.9,0.8,1.1,1.8,1.3c0.9,0.2,1.4,0.3,2.1,0.9c0,0.1,0.7,0.7,0.7,1.7
		C1200.2,379.6,1199.9,380.3,1199.4,380.7z"/>
	<path d="M1204,381.3c-1.2,0-1.5-1.3-1.5-2.3v-4.8h-1.5v-1h1.6v-2.3h1.2v2.3h2.5v1h-2.5v4.5c0,1,0.3,1.5,0.9,1.5
		c0.6,0,1.2-0.2,1.6-0.6l0.3,1.1C1206.2,380.9,1205.2,381.3,1204,381.3z"/>
	<path d="M1209,377.2c0.1,1.8,1.2,3,2.6,3c0.4,0,1.6-0.1,2.7-1l0.1,1.2c-0.7,0.5-1.7,0.9-2.9,0.9c-2.2,0-3.9-1.9-3.9-4.3
		c0-2.3,1.6-4.2,3.6-4.2c0.6,0,1.7,0.2,2.5,1.3c0.7,1.1,0.7,2.4,0.7,3H1209z M1211.4,373.9c-1,0-2,0.9-2.3,2.3h4.4
		C1213.3,374.5,1212.3,373.9,1211.4,373.9z"/>
	<path d="M1218,377.3v3.9h-1.4V373h1.3v1.6c0.6-0.8,1.5-1.7,3.2-1.7v1.2C1219.3,374.2,1218,375.5,1218,377.3z"/>
	<path d="M1222.6,370.9v-1.6h1.6v1.6H1222.6z M1222.7,381.1v-8h1.4v8H1222.7z"/>
	<path d="M1230.1,381.3c-2.1,0-3.9-1.8-3.9-4.2c0-2.4,1.7-4.3,4-4.3c2.1,0,3.9,1.9,3.9,4.3C1234,379.5,1232.2,381.3,1230.1,381.3z
		 M1230.1,373.9c-1.2,0-2.5,0.9-2.5,3.1s1.3,3.2,2.5,3.2c1.3,0,2.6-1.1,2.6-3.2C1232.6,374.9,1231.3,373.9,1230.1,373.9z"/>
	<path d="M1236.9,377.3v3.9h-1.4V373h1.3v1.6c0.6-0.8,1.5-1.7,3.2-1.7v1.2C1238.2,374.2,1236.9,375.5,1236.9,377.3z"/>
</g>
<g>
	<path d="M1225.7,427.7c-1.1,0-1.9-0.5-2.4-1v4.3h-1.4v-11.5h1.4v0.9c0.8-0.7,1.9-1.1,3-1.1c1.7,0,2.9,2,2.9,4.2
		C1229,425.9,1227.5,427.7,1225.7,427.7z M1225.2,420.4c-0.8,0-1.5,0.4-1.9,1v3.6c0,0.3,0,0.4,0.2,0.6c0.4,0.5,0.8,0.8,1.5,0.8
		c1.4,0,2.6-1.3,2.6-3.1C1227.6,421.8,1226.6,420.4,1225.2,420.4z"/>
	<path d="M1232,423.6v3.9h-1.4v-8.1h1.3v1.6c0.6-0.8,1.5-1.7,3.2-1.7v1.2C1233.3,420.5,1232,421.8,1232,423.6z"/>
	<path d="M1236.7,417.3v-1.6h1.6v1.6H1236.7z M1236.8,427.5v-8h1.4v8H1236.8z"/>
	<path d="M1244.1,427.7c-2.1,0-3.9-1.8-3.9-4.2c0-2.4,1.7-4.3,4-4.3c2.1,0,3.9,1.9,3.9,4.3C1248.1,425.9,1246.3,427.7,1244.1,427.7z
		 M1244.1,420.3c-1.2,0-2.5,0.9-2.5,3.1s1.3,3.2,2.5,3.2c1.3,0,2.6-1.1,2.6-3.2C1246.7,421.2,1245.4,420.3,1244.1,420.3z"/>
	<path d="M1251,423.6v3.9h-1.4v-8.1h1.3v1.6c0.6-0.8,1.5-1.7,3.2-1.7v1.2C1252.3,420.5,1251,421.8,1251,423.6z"/>
</g>
<path class="st35" d="M1216.9,424.8c-20-7-35.1-10.9-42-5"/>
<path class="st35" d="M1171.9,377.8c-20-7-35-16-44-11"/>
<g>
	<path d="M585.1,297.9h-1.2c-0.2,0-0.4,0-0.4-0.3s0.3-0.3,0.8-0.3v-7.4h-0.1l-1.6,4.8c-0.1,0.2-0.3,0.2-0.5,0.2
		c-0.1,0-0.4,0-0.4-0.2l-1.6-4.8H580v7.4c0.5,0,0.8,0,0.8,0.3s-0.3,0.3-0.4,0.3h-1.2c-0.2,0-0.4,0-0.4-0.3s0.3-0.3,0.8-0.3v-7.4
		c-0.5,0-0.8,0-0.8-0.3s0.3-0.3,0.4-0.3h0.8c0.2,0,0.5,0,0.6,0.3l1.5,4.8h0l1.5-4.5c0.1-0.3,0.2-0.5,0.7-0.5h0.8
		c0.2,0,0.4,0,0.4,0.3s-0.3,0.3-0.8,0.3v7.4c0.5,0,0.8,0,0.8,0.3S585.3,297.9,585.1,297.9z"/>
	<path d="M589.5,297.9h-3c-0.2,0-0.4,0-0.4-0.3s0.3-0.3,0.4-0.3h0.5v-7.4h-0.5c-0.2,0-0.4,0-0.4-0.3c0-0.3,0.3-0.3,0.4-0.3h3
		c1.9,0,3,2.1,3,4.3C592.6,295.9,591.4,297.9,589.5,297.9z M589.3,289.9h-1.5v7.4h1.5c1.7,0,2.6-1.8,2.6-3.6
		C591.9,291.9,591,289.9,589.3,289.9z"/>
	<path d="M597.2,298c-0.9,0-1.8-0.2-2.5-0.8c-0.2,0.6-0.2,0.8-0.4,0.8c-0.3,0-0.3-0.3-0.3-0.4v-1.9c0-0.2,0-0.4,0.4-0.4
		c0.3,0,0.3,0.2,0.4,0.4c0,0.3,0.1,1,0.7,1.4c0.6,0.4,1.3,0.5,1.8,0.5c1.2,0,1.9-0.9,1.9-1.8c0-1.4-1.3-1.7-1.7-1.8l-1.7-0.4
		c-1.1-0.3-1.8-1.2-1.8-2.1c0-1.2,1-2.2,2.5-2.2c0.6,0,1.4,0.2,2.1,0.8c0.2-0.6,0.2-0.8,0.4-0.8c0.3,0,0.3,0.3,0.3,0.4v1.9
		c0,0.2,0,0.4-0.4,0.4c-0.2,0-0.3,0-0.3-0.2c-0.1-0.6-0.4-2-2.2-2c-1.1,0-1.9,0.8-1.9,1.6c0,0.7,0.6,1.3,1.3,1.5l1.2,0.3
		c1.1,0.3,1.5,0.3,2,0.9c0.2,0.2,0.7,0.8,0.7,1.6C599.7,296.9,598.7,298,597.2,298z"/>
	<path d="M606.3,297.9h-4.1c-0.2,0-0.4,0-0.4-0.3c0-0.3,0.3-0.3,0.4-0.3h1.7v-7.4h-1.7c-0.2,0-0.4,0-0.4-0.3s0.3-0.3,0.4-0.3h4.1
		c0.2,0,0.4,0,0.4,0.3c0,0.3-0.3,0.3-0.4,0.3h-1.7v7.4h1.7c0.2,0,0.4,0,0.4,0.3S606.4,297.9,606.3,297.9z"/>
	<path d="M614.3,289.9h-0.5v7.5c0,0.4-0.1,0.4-0.5,0.4c-0.3,0-0.5,0-0.7-0.4l-2.8-7.6h-0.1v7.4h0.5c0.2,0,0.4,0,0.4,0.3
		s-0.3,0.3-0.4,0.3h-1.5c-0.2,0-0.4,0-0.4-0.3c0-0.3,0.3-0.3,0.4-0.3h0.5v-7.4h-0.5c-0.2,0-0.4,0-0.4-0.3s0.3-0.3,0.4-0.3h1
		c0.3,0,0.5,0,0.7,0.4l2.8,7.6h0.1v-7.4h-0.5c-0.2,0-0.4,0-0.4-0.3c0-0.3,0.3-0.3,0.4-0.3h1.5c0.2,0,0.4,0,0.4,0.3
		C614.8,289.9,614.5,289.9,614.3,289.9z"/>
	<path d="M621.8,297.9h-5.7c-0.2,0-0.4,0-0.4-0.3s0.3-0.3,0.4-0.3h0.6v-7.4h-0.6c-0.2,0-0.4,0-0.4-0.3s0.3-0.3,0.4-0.3h5.4
		c0.4,0,0.4,0.1,0.4,0.4v1.1c0,0.2,0,0.4-0.4,0.4c-0.4,0-0.4-0.3-0.4-0.4v-0.9h-3.8v3.2h2.2c0-0.6,0-0.8,0.4-0.8
		c0.4,0,0.4,0.3,0.4,0.4v1.3c0,0.2,0,0.4-0.4,0.4c-0.4,0-0.4-0.2-0.4-0.8h-2.2v3.6h4.2v-1.1c0-0.2,0-0.4,0.4-0.4
		c0.4,0,0.4,0.2,0.4,0.4v1.3C622.2,297.8,622.1,297.9,621.8,297.9z"/>
	<path d="M628.7,297.9h-4.9c-0.2,0-0.4,0-0.4-0.3c0-0.1,0.1-0.2,0.2-0.3l3.2-2.7c1-0.8,1.7-1.7,1.7-2.8c0-1.4-1.2-2.1-2.5-2.1
		c-0.9,0-1.6,0.5-1.9,1.3c0.2,0.1,0.2,0.3,0.2,0.4c0,0.3-0.3,0.5-0.5,0.5c-0.2,0-0.5-0.1-0.5-0.5c0-1.2,1.1-2.3,2.7-2.3
		c1.7,0,3.1,1,3.1,2.7c0,1-0.5,1.8-1.3,2.5c-0.9,0.8-2.3,1.9-3.4,2.9h4c0-0.5,0-0.7,0.4-0.7c0.4,0,0.4,0.3,0.4,0.4v0.4
		C629.1,297.8,629,297.9,628.7,297.9z"/>
	<path d="M633.6,297.9c-0.4,0-0.8-0.3-0.8-0.8c0-0.4,0.3-0.8,0.8-0.8c0.4,0,0.8,0.3,0.8,0.8C634.4,297.5,634,297.9,633.6,297.9z"/>
	<path d="M641.2,298c-0.4,0-1-0.1-1.8-1v3.5h0.8c0.2,0,0.4,0,0.4,0.3c0,0.3-0.3,0.3-0.4,0.3h-2.3c-0.2,0-0.4,0-0.4-0.3
		c0-0.3,0.3-0.3,0.4-0.3h0.8v-8h-0.8c-0.2,0-0.4,0-0.4-0.3c0-0.3,0.3-0.3,0.4-0.3h1.1c0.4,0,0.4,0.2,0.4,0.8c0.7-0.6,1.3-0.9,2-0.9
		c1.5,0,2.7,1.4,2.7,3.1C644.1,296.7,642.7,298,641.2,298z M641.3,292.4c-1,0-1.9,0.8-1.9,1.8v1.1c0,0.7,0.6,2.1,1.8,2.1
		c1.1,0,2.2-1,2.2-2.5C643.4,293.6,642.4,292.4,641.3,292.4z"/>
	<path d="M651.2,292.5h-0.5l-2.3,6.7c-0.1,0.2-0.7,2-2,2c-0.6,0-1.1-0.5-1.1-1.1c0-0.3,0.2-0.5,0.5-0.5c0.3,0,0.5,0.2,0.5,0.5
		c0,0.2-0.1,0.3-0.1,0.3s0.1,0.2,0.2,0.2c0.4,0,0.8-0.1,1.2-0.9c0.2-0.4,0.6-1.6,0.6-1.6c0,0-2.2-5.5-2.2-5.5h-0.5
		c-0.2,0-0.4,0-0.4-0.3c0-0.3,0.3-0.3,0.4-0.3h1.7c0.2,0,0.4,0,0.4,0.3c0,0.3-0.3,0.3-0.4,0.3h-0.6l1.8,4.9l1.6-4.9h-0.6
		c-0.2,0-0.4,0-0.4-0.3s0.3-0.3,0.4-0.3h1.7c0.2,0,0.4,0,0.4,0.3C651.6,292.5,651.3,292.5,651.2,292.5z"/>
	<path d="M583.9,321.9c-0.4,0-0.6-0.4-0.7-0.6c-0.4,0-1.1,0.1-1.1,1v0.5h1.6c0.3,0,0.6,0,0.6,0.5c0,0.5-0.4,0.5-0.6,0.5h-1.6v4h1.3
		c0.3,0,0.7,0,0.7,0.5c0,0.5-0.4,0.5-0.7,0.5h-3.7c-0.3,0-0.7,0-0.7-0.5c0-0.5,0.4-0.5,0.7-0.5h1.3v-4h-1.3c-0.3,0-0.7,0-0.7-0.5
		c0-0.5,0.4-0.5,0.7-0.5h1.3v-0.6c0-1.3,1.1-1.9,2.2-1.9c0.3,0,1.4,0,1.4,0.9C584.6,321.6,584.2,321.9,583.9,321.9z"/>
	<path d="M589.5,329c-1.6,0-2.9-1.3-2.9-3.1c0-1.8,1.3-3.2,2.9-3.2s2.9,1.4,2.9,3.2S591,329,589.5,329z M589.5,323.7
		c-0.9,0-1.8,0.8-1.8,2c0,1.2,0.8,2.2,1.8,2.2s1.8-1,1.8-2.2C591.2,324.6,590.4,323.7,589.5,323.7z"/>
	<path d="M599.3,324.3c-0.4,0-0.7-0.3-0.7-0.6c-1.5,0-2.2,1.3-2.2,2.5v1.6h1.4c0.3,0,0.7,0,0.7,0.5c0,0.5-0.4,0.5-0.7,0.5h-3.6
		c-0.3,0-0.7,0-0.7-0.5c0-0.5,0.4-0.5,0.7-0.5h1v-4h-1c-0.3,0-0.7,0-0.7-0.5c0-0.5,0.4-0.5,0.7-0.5h1.5c0.6,0,0.7,0.2,0.7,0.7v0.2
		c0.7-0.7,1.5-0.9,2.2-0.9c1.2,0,1.4,0.6,1.4,1C600,324.1,599.7,324.3,599.3,324.3z"/>
	<path d="M611.8,329c-1.8,0-3.2-1.4-3.2-3.2c0-1.7,1.4-3.2,3.1-3.2c1.8,0,2.8,1.4,2.8,3c0,0.6-0.3,0.6-0.7,0.6h-3.9
		c0.3,1,1.2,1.6,2.1,1.6c0.4,0,1-0.1,1.3-0.8c0.1-0.3,0.3-0.4,0.6-0.4c0.1,0,0.6,0,0.6,0.5C614.4,327.7,613.7,329,611.8,329z
		 M611.6,323.7c-0.9,0-1.6,0.6-1.8,1.5h3.4C613,324,612.3,323.7,611.6,323.7z"/>
	<path d="M621.7,328.9c-0.5,0-1.1,0-1.5-0.4c-0.6,0.4-1.5,0.5-2,0.5c-1.5,0-2.4-1-2.4-1.9c0-1.3,1.7-2.1,4.1-2.1
		c0-0.8-0.7-1.2-1.6-1.2c-0.2,0-0.7,0-0.7,0c0,0.6-0.5,0.7-0.7,0.7c-0.4,0-0.7-0.3-0.7-0.7c0-1.1,1.5-1.1,2.1-1.1
		c2,0,2.8,1.2,2.8,2.2v2.9c0.1,0,0.3,0.1,0.7,0.1c0.3,0,0.7,0,0.7,0.5S622.2,328.9,621.7,328.9z M620,325.9
		c-1.8,0.1-2.9,0.5-2.9,1.1c0,0.5,0.5,0.9,1.3,0.9c0.1,0,0.7,0,1.2-0.2c0.5-0.2,0.5-0.5,0.5-0.7V325.9z"/>
	<path d="M626.7,329c-1.8,0-3.1-1.4-3.1-3.1c0-1.2,0.9-3.2,3.3-3.2c0.7,0,2.1,0,2.1,1.1c0,0.5-0.3,0.7-0.7,0.7
		c-0.4,0-0.7-0.2-0.7-0.8l-0.7,0c-1.8,0-2.1,1.5-2.1,2.1c0,1.2,0.9,2.1,2,2.1c0.9,0,1.2-0.6,1.2-0.8c0.1-0.3,0.3-0.4,0.6-0.4
		c0.1,0,0.6,0,0.6,0.5C629.1,327.5,628.7,329,626.7,329z"/>
	<path d="M636.5,328.9h-2.1c-0.2,0-0.7,0-0.7-0.5c0-0.5,0.4-0.5,0.7-0.5h0.4v-3c0-0.7-0.2-1.1-0.8-1.1c-0.6,0-1.6,0.5-1.6,1.8v2.3
		h0.5c0.3,0,0.7,0,0.7,0.5c0,0.5-0.4,0.5-0.7,0.5h-2.2c-0.2,0-0.6,0-0.6-0.5c0-0.5,0.4-0.5,0.7-0.5h0.5v-6.5h-0.5
		c-0.2,0-0.6,0-0.6-0.5c0-0.5,0.4-0.5,0.7-0.5h1c0.6,0,0.7,0.2,0.7,0.7v2.3c0.3-0.3,0.9-0.6,1.7-0.6c1.1,0,1.9,0.6,1.9,2.1v3.1h0.5
		c0.3,0,0.7,0,0.7,0.5C637.1,328.9,636.7,328.9,636.5,328.9z"/>
	<path d="M651.3,323.9c-0.1,0-0.4-0.1-0.4-0.5c-0.3,0-0.7,0.1-1.2,0.4c0.3,0.5,0.4,0.9,0.4,1.3c0,1.2-1,2.2-2.2,2.2
		c-0.7,0-1.2-0.3-1.4-0.4c-0.1,0.3-0.2,0.6-0.2,0.6c0,0,0,0.4,0.2,0.6c0.2,0.3,0.3,0.3,0.6,0.3c0.1,0,0.3,0,0.4,0h1
		c1.3,0,1.8,0.3,2,0.4c0.7,0.4,0.9,1,0.9,1.5c0,1.2-1.5,2-3.2,2s-3.2-0.8-3.2-2c0-0.1,0-1.1,1.1-1.8c-0.2-0.3-0.4-0.6-0.4-1.1
		c0-0.4,0.1-0.7,0.3-1c-0.3-0.4-0.5-0.8-0.5-1.4c0-1.2,1-2.2,2.2-2.2c0.6,0,1.1,0.3,1.4,0.5c0.7-0.5,1.4-0.5,1.5-0.5
		c0.7,0,0.9,0.4,0.9,0.6C651.7,323.7,651.5,323.9,651.3,323.9z M647.9,328.8c-1.1,0-1.2,0-1.6,0.3c-0.5,0.3-0.7,0.8-0.7,1.1
		c0,0.7,1.1,1.4,2.7,1.4c1.5,0,2.7-0.7,2.7-1.4C651,328.9,649.3,328.8,647.9,328.8z M647.9,323.4c-0.8,0-1.5,0.7-1.5,1.6
		c0,0.8,0.7,1.6,1.5,1.6c0.8,0,1.5-0.7,1.5-1.6C649.4,324.2,648.7,323.4,647.9,323.4z"/>
	<path d="M657.8,328.9h-4.3c-0.2,0-0.4,0-0.4-0.3s0.3-0.3,0.4-0.3h1.9v-4.8h-1.8c-0.2,0-0.4,0-0.4-0.3s0.3-0.3,0.4-0.3h2.1
		c0.4,0,0.4,0.1,0.4,0.4v4.9h1.7c0.2,0,0.4,0,0.4,0.3S658,328.9,657.8,328.9z M655.6,321.6c-0.3,0-0.6-0.3-0.6-0.6
		c0-0.3,0.3-0.6,0.6-0.6s0.6,0.3,0.6,0.6C656.2,321.3,656,321.6,655.6,321.6z"/>
	<path d="M663.3,329c-0.4,0-1-0.1-1.8-1c0,0.6,0,0.9-0.3,0.9c-0.4,0-0.4-0.2-0.4-0.4v-7.5h-0.8c-0.2,0-0.4,0-0.4-0.3
		c0-0.3,0.3-0.3,0.4-0.3h1.1c0.4,0,0.4,0.1,0.4,0.4v3c0.7-0.6,1.3-0.9,2-0.9c1.5,0,2.7,1.4,2.7,3.1C666.1,327.7,664.8,329,663.3,329
		z M663.3,323.4c-1,0-1.9,0.8-1.9,1.8v1.1c0,0.7,0.6,2.1,1.8,2.1c1.1,0,2.2-1,2.2-2.5C665.4,324.6,664.5,323.4,663.3,323.4z"/>
	<path d="M670.6,329c-0.4,0-1-0.1-1.8-1c0,0.6,0,0.9-0.3,0.9c-0.4,0-0.4-0.2-0.4-0.4v-7.5h-0.8c-0.2,0-0.4,0-0.4-0.3
		c0-0.3,0.3-0.3,0.4-0.3h1.1c0.4,0,0.4,0.1,0.4,0.4v3c0.7-0.6,1.3-0.9,2-0.9c1.5,0,2.7,1.4,2.7,3.1C673.5,327.7,672.1,329,670.6,329
		z M670.7,323.4c-1,0-1.9,0.8-1.9,1.8v1.1c0,0.7,0.6,2.1,1.8,2.1c1.1,0,2.2-1,2.2-2.5C672.8,324.6,671.8,323.4,670.7,323.4z"/>
	<path d="M677.8,329c-0.4,0-1.1,0-2-0.6c-0.2,0.6-0.4,0.6-0.4,0.6c-0.3,0-0.3-0.3-0.3-0.4v-1.4c0-0.2,0-0.4,0.4-0.4
		c0.2,0,0.3,0.1,0.3,0.2c0.4,1.4,1.3,1.5,2,1.5c1.4,0,2-0.6,2-1.2c0-0.8-1.2-1.1-2-1.2c-1.3-0.2-2.7-0.4-2.7-1.6
		c0-0.5,0.3-1.6,2.6-1.6c0.3,0,0.9,0,1.6,0.4c0.1-0.2,0.1-0.4,0.3-0.4c0.3,0,0.3,0.3,0.3,0.4v1c0,0.2,0,0.4-0.4,0.4
		c-0.2,0-0.3-0.1-0.3-0.2c-0.1-0.6-0.3-1.1-1.6-1.1c-1.5,0-2,0.6-2,1c0,0.6,1.1,0.9,1.5,1l1,0.2c0.4,0.1,2.2,0.4,2.2,1.7
		C680.4,327.9,679.9,329,677.8,329z"/>
	<path d="M692.5,329c-0.4,0-1.1,0-2-0.6c-0.2,0.6-0.3,0.6-0.4,0.6c-0.3,0-0.3-0.3-0.3-0.4v-1.4c0-0.2,0-0.4,0.4-0.4
		c0.2,0,0.3,0.1,0.3,0.2c0.4,1.4,1.3,1.5,2,1.5c1.4,0,2-0.6,2-1.2c0-0.8-1.2-1.1-2-1.2c-1.3-0.2-2.7-0.4-2.7-1.6
		c0-0.5,0.3-1.6,2.6-1.6c0.3,0,0.9,0,1.6,0.4c0.1-0.2,0.1-0.4,0.4-0.4c0.3,0,0.3,0.3,0.3,0.4v1c0,0.2,0,0.4-0.4,0.4
		c-0.2,0-0.3-0.1-0.3-0.2c-0.1-0.6-0.3-1.1-1.6-1.1c-1.5,0-2,0.6-2,1c0,0.6,1.1,0.9,1.5,1l1,0.2c0.4,0.1,2.2,0.4,2.2,1.7
		C695.1,327.9,694.6,329,692.5,329z"/>
	<path d="M700.2,329c-1,0-1.9-0.5-1.9-1.8v-3.7h-1.4c-0.2,0-0.4,0-0.4-0.3c0-0.3,0.3-0.3,0.4-0.3h1.4v-1.3c0-0.2,0-0.4,0.4-0.4
		c0.3,0,0.3,0.3,0.3,0.4v1.3h2.5c0.2,0,0.4,0,0.4,0.3c0,0.3-0.3,0.3-0.4,0.3H699v3.6c0,0.4,0,1.3,1.3,1.3c0.4,0,1.3-0.2,1.3-1.2
		c0-0.2,0-0.4,0.4-0.4c0.4,0,0.4,0.2,0.4,0.4C702.3,328.4,701.2,329,700.2,329z"/>
	<path d="M707.4,329c-1.8,0-3.2-1.4-3.2-3.1c0-1.7,1.3-3.1,3-3.1c1.8,0,2.7,1.4,2.7,2.9c0,0.4-0.2,0.4-0.4,0.4h-4.5
		c0.3,1.5,1.4,2.3,2.6,2.3c0.4,0,1.3-0.2,1.7-1c0.1-0.1,0.1-0.2,0.3-0.2c0.1,0,0.3,0,0.3,0.3C709.9,327.8,709.2,329,707.4,329z
		 M707.2,323.4c-1.1,0-2,0.8-2.2,2.1h4.2C709,323.8,708,323.4,707.2,323.4z"/>
	<path d="M714.7,329c-0.4,0-1-0.1-1.8-1v3.5h0.8c0.2,0,0.4,0,0.4,0.3c0,0.3-0.3,0.3-0.4,0.3h-2.3c-0.2,0-0.4,0-0.4-0.3
		c0-0.3,0.3-0.3,0.4-0.3h0.8v-8h-0.8c-0.2,0-0.4,0-0.4-0.3c0-0.3,0.3-0.3,0.4-0.3h1.1c0.4,0,0.4,0.2,0.4,0.8c0.7-0.6,1.3-0.9,2-0.9
		c1.5,0,2.7,1.4,2.7,3.1C717.6,327.7,716.2,329,714.7,329z M714.8,323.4c-1,0-1.9,0.8-1.9,1.8v1.1c0,0.7,0.6,2.1,1.8,2.1
		c1.1,0,2.2-1,2.2-2.5C716.9,324.6,715.9,323.4,714.8,323.4z"/>
	<path d="M732.1,323.9c-0.1,0-0.4-0.1-0.4-0.5c-0.3,0-0.7,0.1-1.2,0.4c0.3,0.5,0.4,0.9,0.4,1.3c0,1.2-1,2.2-2.2,2.2
		c-0.7,0-1.2-0.3-1.4-0.4c-0.1,0.3-0.2,0.6-0.2,0.6c0,0,0,0.4,0.2,0.6c0.2,0.3,0.3,0.3,0.6,0.3c0.1,0,0.3,0,0.4,0h1
		c1.3,0,1.8,0.3,2,0.4c0.7,0.4,0.9,1,0.9,1.5c0,1.2-1.5,2-3.2,2s-3.2-0.8-3.2-2c0-0.1,0-1.1,1.1-1.8c-0.2-0.3-0.4-0.6-0.4-1.1
		c0-0.4,0.1-0.7,0.3-1c-0.3-0.4-0.5-0.8-0.5-1.4c0-1.2,1-2.2,2.2-2.2c0.6,0,1.1,0.3,1.4,0.5c0.7-0.5,1.4-0.5,1.5-0.5
		c0.7,0,0.9,0.4,0.9,0.6C732.6,323.7,732.3,323.9,732.1,323.9z M728.7,328.8c-1.1,0-1.2,0-1.6,0.3c-0.5,0.3-0.7,0.8-0.7,1.1
		c0,0.7,1.1,1.4,2.7,1.4c1.5,0,2.7-0.7,2.7-1.4C731.8,328.9,730.1,328.8,728.7,328.8z M728.7,323.4c-0.8,0-1.5,0.7-1.5,1.6
		c0,0.8,0.7,1.6,1.5,1.6c0.8,0,1.5-0.7,1.5-1.6C730.3,324.2,729.6,323.4,728.7,323.4z"/>
	<path d="M746,328.9h-4.3c-0.2,0-0.4,0-0.4-0.3s0.3-0.3,0.4-0.3h1.9v-4.8h-1.8c-0.2,0-0.4,0-0.4-0.3s0.3-0.3,0.4-0.3h2.1
		c0.4,0,0.4,0.1,0.4,0.4v4.9h1.7c0.2,0,0.4,0,0.4,0.3S746.2,328.9,746,328.9z M743.8,321.6c-0.3,0-0.6-0.3-0.6-0.6
		c0-0.3,0.3-0.6,0.6-0.6c0.3,0,0.6,0.3,0.6,0.6C744.4,321.3,744.2,321.6,743.8,321.6z"/>
	<path d="M754.2,328.9H752c-0.2,0-0.4,0-0.4-0.3s0.3-0.3,0.4-0.3h0.7v-3.4c0-1-0.3-1.4-1.1-1.4c-0.8,0-2,0.6-2,2.1v2.7h0.8
		c0.2,0,0.4,0,0.4,0.3s-0.3,0.3-0.4,0.3h-2.3c-0.2,0-0.4,0-0.4-0.3s0.3-0.3,0.4-0.3h0.8v-4.8h-0.8c-0.2,0-0.4,0-0.4-0.3
		c0-0.3,0.3-0.3,0.4-0.3h1.1c0.4,0,0.4,0.2,0.4,0.9c0.5-0.5,1.1-1,2-1c1.1,0,1.7,0.6,1.7,1.9v3.5h0.8c0.2,0,0.4,0,0.4,0.3
		S754.4,328.9,754.2,328.9z"/>
	<path d="M768.4,325.9v2.6c0,0.2,0,0.4-0.4,0.4c-0.4,0-0.4-0.2-0.4-0.9c-0.5,0.6-1.1,1-1.9,1c-1.7,0-3.1-1.9-3.1-4.4
		c0-2.5,1.4-4.4,3.1-4.4c0.6,0,1.1,0.2,1.8,0.7c0.3-0.6,0.3-0.7,0.5-0.7c0.3,0,0.3,0.3,0.3,0.4v2c0,0.2,0,0.4-0.4,0.4
		c-0.2,0-0.3-0.1-0.3-0.2c-0.3-1.8-1.3-2.1-1.8-2.1c-1.2,0-2.4,1.5-2.4,3.9c0,2.2,1.2,3.8,2.4,3.8c0.8,0,1.6-0.7,1.8-2.6h-0.8
		c-0.2,0-0.4,0-0.4-0.3c0-0.3,0.3-0.3,0.4-0.3h1.7c0.2,0,0.4,0,0.4,0.3C769.1,325.9,768.8,325.9,768.4,325.9z"/>
	<path d="M606,343.9c-0.4,0-0.6-0.4-0.7-0.6c-0.4,0-1.1,0.1-1.1,1v0.5h1.6c0.3,0,0.6,0,0.6,0.5c0,0.5-0.4,0.5-0.6,0.5h-1.6v4h1.3
		c0.3,0,0.7,0,0.7,0.5c0,0.5-0.4,0.5-0.7,0.5h-3.7c-0.3,0-0.7,0-0.7-0.5c0-0.5,0.4-0.5,0.7-0.5h1.3v-4h-1.3c-0.3,0-0.7,0-0.7-0.5
		c0-0.5,0.4-0.5,0.7-0.5h1.3v-0.6c0-1.3,1.1-1.9,2.2-1.9c0.3,0,1.4,0,1.4,0.9C606.7,343.6,606.3,343.9,606,343.9z"/>
	<path d="M611.5,351c-1.6,0-2.9-1.3-2.9-3.1c0-1.8,1.3-3.2,2.9-3.2s2.9,1.4,2.9,3.2S613.1,351,611.5,351z M611.5,345.7
		c-0.9,0-1.8,0.8-1.8,2c0,1.2,0.8,2.2,1.8,2.2s1.8-1,1.8-2.2C613.3,346.6,612.5,345.7,611.5,345.7z"/>
	<path d="M621.4,346.3c-0.4,0-0.7-0.3-0.7-0.6c-1.5,0-2.2,1.3-2.2,2.5v1.6h1.4c0.3,0,0.7,0,0.7,0.5c0,0.5-0.4,0.5-0.7,0.5h-3.6
		c-0.3,0-0.7,0-0.7-0.5c0-0.5,0.4-0.5,0.7-0.5h1v-4h-1c-0.3,0-0.7,0-0.7-0.5c0-0.5,0.4-0.5,0.7-0.5h1.5c0.6,0,0.7,0.2,0.7,0.7v0.2
		c0.7-0.7,1.5-0.9,2.2-0.9c1.2,0,1.4,0.6,1.4,1C622.1,346.1,621.7,346.3,621.4,346.3z"/>
	<path d="M633.9,351c-1.8,0-3.2-1.4-3.2-3.2c0-1.7,1.4-3.2,3.1-3.2c1.8,0,2.8,1.4,2.8,3c0,0.6-0.3,0.6-0.7,0.6h-3.9
		c0.3,1,1.2,1.6,2.1,1.6c0.4,0,1-0.1,1.3-0.8c0.1-0.3,0.3-0.4,0.6-0.4c0.1,0,0.6,0,0.6,0.5C636.5,349.7,635.8,351,633.9,351z
		 M633.7,345.7c-0.9,0-1.6,0.6-1.8,1.5h3.4C635.1,346,634.3,345.7,633.7,345.7z"/>
	<path d="M643.8,350.9c-0.5,0-1.1,0-1.5-0.4c-0.6,0.4-1.5,0.5-2,0.5c-1.5,0-2.4-1-2.4-1.9c0-1.3,1.7-2.1,4.1-2.1
		c0-0.8-0.7-1.2-1.6-1.2c-0.2,0-0.7,0-0.7,0c0,0.6-0.5,0.7-0.7,0.7c-0.4,0-0.7-0.3-0.7-0.7c0-1.1,1.5-1.1,2.1-1.1
		c2,0,2.8,1.2,2.8,2.2v2.9c0.1,0,0.3,0.1,0.7,0.1c0.3,0,0.7,0,0.7,0.5S644.2,350.9,643.8,350.9z M642,347.9
		c-1.8,0.1-2.9,0.5-2.9,1.1c0,0.5,0.5,0.9,1.3,0.9c0.1,0,0.7,0,1.2-0.2c0.5-0.2,0.5-0.5,0.5-0.7V347.9z"/>
	<path d="M648.7,351c-1.8,0-3.1-1.4-3.1-3.1c0-1.2,0.9-3.2,3.3-3.2c0.7,0,2.1,0,2.1,1.1c0,0.5-0.3,0.7-0.7,0.7
		c-0.4,0-0.7-0.2-0.7-0.8l-0.7,0c-1.8,0-2.1,1.5-2.1,2.1c0,1.2,0.9,2.1,2,2.1c0.9,0,1.2-0.6,1.2-0.8c0.1-0.3,0.3-0.4,0.6-0.4
		c0.1,0,0.6,0,0.6,0.5C651.2,349.5,650.7,351,648.7,351z"/>
	<path d="M658.5,350.9h-2.1c-0.2,0-0.7,0-0.7-0.5c0-0.5,0.4-0.5,0.7-0.5h0.4v-3c0-0.7-0.2-1.1-0.8-1.1c-0.6,0-1.6,0.5-1.6,1.8v2.3
		h0.5c0.3,0,0.7,0,0.7,0.5c0,0.5-0.4,0.5-0.7,0.5h-2.2c-0.2,0-0.6,0-0.6-0.5c0-0.5,0.4-0.5,0.7-0.5h0.5v-6.5h-0.5
		c-0.2,0-0.6,0-0.6-0.5c0-0.5,0.4-0.5,0.7-0.5h1c0.6,0,0.7,0.2,0.7,0.7v2.3c0.3-0.3,0.9-0.6,1.7-0.6c1.1,0,1.9,0.6,1.9,2.1v3.1h0.5
		c0.3,0,0.7,0,0.7,0.5C659.2,350.9,658.7,350.9,658.5,350.9z"/>
	<path d="M670.6,351c-0.4,0-1-0.1-1.8-1v3.5h0.8c0.2,0,0.4,0,0.4,0.3c0,0.3-0.3,0.3-0.4,0.3h-2.3c-0.2,0-0.4,0-0.4-0.3
		c0-0.3,0.3-0.3,0.4-0.3h0.8v-8h-0.8c-0.2,0-0.4,0-0.4-0.3c0-0.3,0.3-0.3,0.4-0.3h1.1c0.4,0,0.4,0.2,0.4,0.8c0.7-0.6,1.3-0.9,2-0.9
		c1.5,0,2.7,1.4,2.7,3.1C673.5,349.7,672.1,351,670.6,351z M670.7,345.4c-1,0-1.9,0.8-1.9,1.8v1.1c0,0.7,0.6,2.1,1.8,2.1
		c1.1,0,2.2-1,2.2-2.5C672.8,346.6,671.8,345.4,670.7,345.4z"/>
	<path d="M687.2,350.9H683c-0.2,0-0.4,0-0.4-0.3s0.3-0.3,0.4-0.3h1.9v-4.8h-1.8c-0.2,0-0.4,0-0.4-0.3s0.3-0.3,0.4-0.3h2.1
		c0.4,0,0.4,0.1,0.4,0.4v4.9h1.7c0.2,0,0.4,0,0.4,0.3S687.4,350.9,687.2,350.9z M685,343.6c-0.3,0-0.6-0.3-0.6-0.6
		c0-0.3,0.3-0.6,0.6-0.6s0.6,0.3,0.6,0.6C685.6,343.3,685.4,343.6,685,343.6z"/>
	<path d="M695.4,350.9h-2.2c-0.2,0-0.4,0-0.4-0.3s0.3-0.3,0.4-0.3h0.7v-3.4c0-1-0.3-1.4-1.1-1.4c-0.8,0-2,0.6-2,2.1v2.7h0.8
		c0.2,0,0.4,0,0.4,0.3s-0.3,0.3-0.4,0.3h-2.3c-0.2,0-0.4,0-0.4-0.3s0.3-0.3,0.4-0.3h0.8v-4.8h-0.8c-0.2,0-0.4,0-0.4-0.3
		c0-0.3,0.3-0.3,0.4-0.3h1.1c0.4,0,0.4,0.2,0.4,0.9c0.5-0.5,1.1-1,2-1c1.1,0,1.7,0.6,1.7,1.9v3.5h0.8c0.2,0,0.4,0,0.4,0.3
		S695.6,350.9,695.4,350.9z"/>
	<path d="M707.4,351c-0.4,0-1-0.1-1.8-1v3.5h0.8c0.2,0,0.4,0,0.4,0.3c0,0.3-0.3,0.3-0.4,0.3H704c-0.2,0-0.4,0-0.4-0.3
		c0-0.3,0.3-0.3,0.4-0.3h0.8v-8H704c-0.2,0-0.4,0-0.4-0.3c0-0.3,0.3-0.3,0.4-0.3h1.1c0.4,0,0.4,0.2,0.4,0.8c0.7-0.6,1.3-0.9,2-0.9
		c1.5,0,2.7,1.4,2.7,3.1C710.2,349.7,708.9,351,707.4,351z M707.4,345.4c-1,0-1.9,0.8-1.9,1.8v1.1c0,0.7,0.6,2.1,1.8,2.1
		c1.1,0,2.2-1,2.2-2.5C709.5,346.6,708.6,345.4,707.4,345.4z"/>
	<path d="M717.4,350.9c-0.5,0-1.2,0-1.5-0.5c-0.8,0.5-1.6,0.6-2.1,0.6c-1.4,0-2.3-0.9-2.3-1.8c0-1.3,1.8-2,4.3-2
		c0-1.3-0.8-1.8-2-1.8c-0.4,0-1,0.1-1,0.3c0,0.4-0.3,0.5-0.5,0.5c-0.3,0-0.5-0.2-0.5-0.5c0-0.9,1.4-0.9,2-0.9c2,0,2.7,1.1,2.7,2.1
		v3.2c0.2,0.1,0.4,0.2,1,0.2c0.2,0,0.4,0,0.4,0.3C717.9,350.9,717.7,350.9,717.4,350.9z M715.8,347.7c-2.4,0.1-3.6,0.7-3.6,1.5
		c0,0.6,0.6,1.2,1.6,1.2c0.1,0,0.8,0,1.3-0.3c0.6-0.3,0.6-0.6,0.6-1V347.7z"/>
	<path d="M724.4,346.1c-0.3,0-0.5-0.2-0.5-0.6c-2,0-2.9,1.5-2.9,2.9v2h1.8c0.2,0,0.4,0,0.4,0.3s-0.3,0.3-0.4,0.3H719
		c-0.2,0-0.4,0-0.4-0.3c0-0.3,0.3-0.3,0.4-0.3h1.3v-4.8H719c-0.2,0-0.4,0-0.4-0.3s0.3-0.3,0.4-0.3h1.6c0.4,0,0.4,0.1,0.4,0.4v0.9
		c1-1.2,1.9-1.4,2.6-1.4c1.1,0,1.2,0.5,1.2,0.8C724.9,345.9,724.7,346.1,724.4,346.1z"/>
	<path d="M732.1,350.9c-0.5,0-1.2,0-1.5-0.5c-0.8,0.5-1.6,0.6-2.1,0.6c-1.4,0-2.3-0.9-2.3-1.8c0-1.3,1.8-2,4.3-2
		c0-1.3-0.8-1.8-2-1.8c-0.4,0-1,0.1-1,0.3c0,0.4-0.3,0.5-0.5,0.5c-0.3,0-0.5-0.2-0.5-0.5c0-0.9,1.4-0.9,2-0.9c2,0,2.7,1.1,2.7,2.1
		v3.2c0.2,0.1,0.4,0.2,1,0.2c0.2,0,0.4,0,0.4,0.3C732.6,350.9,732.4,350.9,732.1,350.9z M730.5,347.7c-2.4,0.1-3.6,0.7-3.6,1.5
		c0,0.6,0.6,1.2,1.6,1.2c0.1,0,0.8,0,1.3-0.3c0.6-0.3,0.6-0.6,0.6-1V347.7z"/>
	<path d="M739.6,350.9h-1.1c-0.2,0-0.4,0-0.4-0.3s0.3-0.3,0.6-0.3v-3.5c0-1.1-0.3-1.3-0.6-1.3c-0.7,0-1.3,0.7-1.3,2.1v2.7
		c0.6,0,0.8,0,0.8,0.3s-0.3,0.3-0.4,0.3h-1.1c-0.2,0-0.4,0-0.4-0.3s0.3-0.3,0.6-0.3v-3.5c0-1.1-0.3-1.3-0.6-1.3
		c-0.6,0-1.3,0.7-1.3,2.1v2.7c0.6,0,0.8,0,0.8,0.3s-0.3,0.3-0.4,0.3h-1.3c-0.1,0-0.4,0-0.4-0.3s0.2-0.3,0.8-0.3v-4.8
		c-0.6,0-0.8,0-0.8-0.3s0.3-0.3,0.4-0.3h0.5c0.2,0,0.4,0,0.5,0.6c0.5-0.5,0.9-0.7,1.3-0.7c0.4,0,0.8,0.2,1.1,0.9
		c0.5-0.7,1.1-0.9,1.5-0.9c1.1,0,1.2,1.5,1.2,1.8v3.7c0.6,0,0.8,0,0.8,0.3S739.7,350.9,739.6,350.9z"/>
	<path d="M744.2,351c-1.8,0-3.2-1.4-3.2-3.1c0-1.7,1.3-3.1,3-3.1c1.8,0,2.7,1.4,2.7,2.9c0,0.4-0.2,0.4-0.4,0.4h-4.5
		c0.3,1.5,1.4,2.3,2.6,2.3c0.4,0,1.3-0.2,1.7-1c0.1-0.1,0.1-0.2,0.3-0.2c0.1,0,0.3,0,0.3,0.3C746.6,349.8,745.9,351,744.2,351z
		 M743.9,345.4c-1.1,0-2,0.8-2.2,2.1h4.2C745.7,345.8,744.8,345.4,743.9,345.4z"/>
	<path d="M751.6,351c-1,0-1.9-0.5-1.9-1.8v-3.7h-1.4c-0.2,0-0.4,0-0.4-0.3c0-0.3,0.3-0.3,0.4-0.3h1.4v-1.3c0-0.2,0-0.4,0.4-0.4
		c0.3,0,0.3,0.3,0.3,0.4v1.3h2.5c0.2,0,0.4,0,0.4,0.3c0,0.3-0.3,0.3-0.4,0.3h-2.5v3.6c0,0.4,0,1.3,1.3,1.3c0.4,0,1.3-0.2,1.3-1.2
		c0-0.2,0-0.4,0.4-0.4c0.4,0,0.4,0.2,0.4,0.4C753.7,350.4,752.6,351,751.6,351z"/>
	<path d="M758.9,351c-1.8,0-3.2-1.4-3.2-3.1c0-1.7,1.3-3.1,3-3.1c1.8,0,2.7,1.4,2.7,2.9c0,0.4-0.2,0.4-0.4,0.4h-4.5
		c0.3,1.5,1.4,2.3,2.6,2.3c0.4,0,1.3-0.2,1.7-1c0.1-0.1,0.1-0.2,0.3-0.2c0.1,0,0.3,0,0.3,0.3C761.3,349.8,760.6,351,758.9,351z
		 M758.6,345.4c-1.1,0-2,0.8-2.2,2.1h4.2C760.4,345.8,759.5,345.4,758.6,345.4z"/>
	<path d="M768.5,346.1c-0.3,0-0.5-0.2-0.5-0.6c-2,0-2.9,1.5-2.9,2.9v2h1.8c0.2,0,0.4,0,0.4,0.3s-0.3,0.3-0.4,0.3h-3.8
		c-0.2,0-0.4,0-0.4-0.3c0-0.3,0.3-0.3,0.4-0.3h1.3v-4.8h-1.3c-0.2,0-0.4,0-0.4-0.3s0.3-0.3,0.4-0.3h1.6c0.4,0,0.4,0.1,0.4,0.4v0.9
		c1-1.2,1.9-1.4,2.6-1.4c1.1,0,1.2,0.5,1.2,0.8C769,345.9,768.8,346.1,768.5,346.1z"/>
	<path d="M783,350.9h-4.8c-0.1,0-0.4,0-0.4-0.3s0.3-0.3,0.4-0.3h2v-7.4h-2c-0.1,0-0.4,0-0.4-0.3c0-0.3,0.3-0.3,0.4-0.3h2.3
		c0.4,0,0.4,0.1,0.4,0.4v7.5h2c0.2,0,0.4,0,0.4,0.3S783.1,350.9,783,350.9z"/>
	<path d="M790.1,350.9h-4.3c-0.2,0-0.4,0-0.4-0.3s0.3-0.3,0.4-0.3h1.9v-4.8H786c-0.2,0-0.4,0-0.4-0.3s0.3-0.3,0.4-0.3h2.1
		c0.4,0,0.4,0.1,0.4,0.4v4.9h1.7c0.2,0,0.4,0,0.4,0.3S790.3,350.9,790.1,350.9z M787.9,343.6c-0.3,0-0.6-0.3-0.6-0.6
		c0-0.3,0.3-0.6,0.6-0.6s0.6,0.3,0.6,0.6C788.5,343.3,788.3,343.6,787.9,343.6z"/>
	<path d="M795.4,351c-0.4,0-1.1,0-2-0.6c-0.2,0.6-0.3,0.6-0.4,0.6c-0.3,0-0.3-0.3-0.3-0.4v-1.4c0-0.2,0-0.4,0.4-0.4
		c0.2,0,0.3,0.1,0.3,0.2c0.4,1.4,1.3,1.5,2,1.5c1.4,0,2-0.6,2-1.2c0-0.8-1.2-1.1-2-1.2c-1.3-0.2-2.7-0.4-2.7-1.6
		c0-0.5,0.3-1.6,2.6-1.6c0.3,0,0.9,0,1.6,0.4c0.1-0.2,0.1-0.4,0.4-0.4c0.3,0,0.3,0.3,0.3,0.4v1c0,0.2,0,0.4-0.4,0.4
		c-0.2,0-0.3-0.1-0.3-0.2c-0.1-0.6-0.3-1.1-1.6-1.1c-1.5,0-2,0.6-2,1c0,0.6,1.1,0.9,1.5,1l1,0.2c0.4,0.1,2.2,0.4,2.2,1.7
		C798,349.9,797.5,351,795.4,351z"/>
	<path d="M803.1,351c-1,0-1.9-0.5-1.9-1.8v-3.7h-1.4c-0.2,0-0.4,0-0.4-0.3c0-0.3,0.3-0.3,0.4-0.3h1.4v-1.3c0-0.2,0-0.4,0.4-0.4
		c0.3,0,0.3,0.3,0.3,0.4v1.3h2.5c0.2,0,0.4,0,0.4,0.3c0,0.3-0.3,0.3-0.4,0.3h-2.5v3.6c0,0.4,0,1.3,1.3,1.3c0.4,0,1.3-0.2,1.3-1.2
		c0-0.2,0-0.4,0.4-0.4c0.4,0,0.4,0.2,0.4,0.4C805.2,350.4,804.1,351,803.1,351z"/>
	<path d="M817.7,347.3h-2v3h0.6c0.2,0,0.4,0,0.4,0.3s-0.3,0.3-0.4,0.3h-1.9c-0.2,0-0.4,0-0.4-0.3s0.3-0.3,0.4-0.3h0.6v-7.4h-0.6
		c-0.2,0-0.4,0-0.4-0.3s0.3-0.3,0.4-0.3h3.2c1.6,0,2.6,1.2,2.6,2.5C820.3,346.1,819.3,347.3,817.7,347.3z M817.5,342.9h-1.7v3.8h1.7
		c1.5,0,2.2-1.1,2.2-1.9C819.6,344,819,342.9,817.5,342.9z"/>
	<path d="M626.3,373c-0.4,0-1.1,0-1.7-0.5c-0.2,0.5-0.4,0.5-0.6,0.5c-0.5,0-0.5-0.4-0.5-0.7V371c0-0.3,0-0.7,0.6-0.7
		c0.4,0,0.5,0.2,0.6,0.5c0.3,1,1,1.1,1.6,1.1c1.1,0,1.6-0.4,1.6-0.9c0-0.6-1.1-0.8-1.7-0.9c-1.3-0.2-2.8-0.5-2.8-1.8
		c0-0.5,0.3-1.7,2.7-1.7c0.3,0,0.8,0,1.4,0.2c0.1-0.1,0.2-0.2,0.5-0.2c0.5,0,0.5,0.4,0.5,0.7v1c0,0.3,0,0.7-0.6,0.7
		c-0.5,0-0.6-0.3-0.6-0.6c0-0.3-0.2-0.7-1.3-0.7c-1.2,0-1.6,0.3-1.6,0.7s0.4,0.5,0.7,0.6l1.4,0.3c0.5,0.1,2.3,0.4,2.3,1.9
		C629,371.8,628.6,373,626.3,373z"/>
	<path d="M636.4,372.9c-0.5,0-1.1,0-1.5-0.4c-0.6,0.4-1.5,0.5-2,0.5c-1.5,0-2.4-1-2.4-1.9c0-1.3,1.7-2.1,4.1-2.1
		c0-0.8-0.7-1.2-1.6-1.2c-0.2,0-0.7,0-0.7,0c0,0.6-0.5,0.7-0.7,0.7c-0.4,0-0.7-0.3-0.7-0.7c0-1.1,1.5-1.1,2.1-1.1
		c2,0,2.8,1.2,2.8,2.2v2.9c0.1,0,0.3,0.1,0.7,0.1c0.3,0,0.7,0,0.7,0.5S636.9,372.9,636.4,372.9z M634.7,369.9
		c-1.8,0.1-2.9,0.5-2.9,1.1c0,0.5,0.5,0.9,1.3,0.9c0.1,0,0.7,0,1.2-0.2c0.5-0.2,0.5-0.5,0.5-0.7V369.9z"/>
	<path d="M643.9,372.9h-1c-0.2,0-0.6,0-0.6-0.5c0-0.4,0.3-0.5,0.5-0.5v-3.1c0-0.8-0.1-1-0.4-1c-0.5,0-1,0.6-1,1.7v2.3
		c0.5,0,0.7,0.1,0.7,0.5c0,0.5-0.4,0.5-0.6,0.5h-1c-0.2,0-0.6,0-0.6-0.5c0-0.4,0.3-0.5,0.6-0.5v-3.1c0-0.8-0.1-1-0.4-1
		c-0.5,0-1,0.6-1,1.7v2.3c0.5,0,0.7,0.1,0.7,0.5c0,0.5-0.4,0.5-0.6,0.5h-1.2c-0.2,0-0.7,0-0.7-0.5c0-0.5,0.3-0.5,0.8-0.5v-4
		c-0.5,0-0.8-0.1-0.8-0.5c0-0.5,0.4-0.5,0.7-0.5h0.4c0.3,0,0.5,0,0.6,0.3c0.3-0.3,0.7-0.4,1.1-0.4c0.4,0,0.8,0.2,1.1,0.6
		c0.4-0.5,0.9-0.6,1.3-0.6c1.3,0,1.3,1.6,1.3,1.9v3.2c0.5,0,0.8,0.1,0.8,0.5C644.6,372.9,644.2,372.9,643.9,372.9z"/>
	<path d="M648.5,373c-0.4,0-0.9-0.1-1.5-0.6v2.5h0.5c0.3,0,0.7,0,0.7,0.5c0,0.5-0.4,0.5-0.7,0.5h-2.2c-0.2,0-0.7,0-0.7-0.5
		c0-0.5,0.4-0.5,0.7-0.5h0.5v-7h-0.5c-0.2,0-0.7,0-0.7-0.5c0-0.5,0.4-0.5,0.7-0.5h1c0.5,0,0.6,0.2,0.6,0.5c0.5-0.4,1-0.5,1.6-0.5
		c1.5,0,2.8,1.4,2.8,3.1C651.5,371.6,650.1,373,648.5,373z M648.6,367.8c-0.8,0-1.5,0.7-1.5,1.4v1c0,0.6,0.4,1.8,1.4,1.8
		c0.9,0,1.8-0.9,1.8-2.1C650.3,368.7,649.6,367.8,648.6,367.8z"/>
	<path d="M657.9,372.9h-4.5c-0.2,0-0.7,0-0.7-0.5c0-0.5,0.4-0.5,0.7-0.5h1.7v-6.5h-1.7c-0.2,0-0.7,0-0.7-0.5c0-0.5,0.4-0.5,0.7-0.5
		h2.2c0.6,0,0.7,0.2,0.7,0.7v6.8h1.7c0.3,0,0.7,0,0.7,0.5C658.5,372.9,658.1,372.9,657.9,372.9z"/>
	<path d="M663.3,373c-1.8,0-3.2-1.4-3.2-3.2c0-1.7,1.4-3.2,3.1-3.2c1.8,0,2.8,1.4,2.8,3c0,0.6-0.3,0.6-0.7,0.6h-3.9
		c0.3,1,1.2,1.6,2.1,1.6c0.4,0,1-0.1,1.3-0.8c0.1-0.3,0.3-0.4,0.6-0.4c0.1,0,0.6,0,0.6,0.5C665.9,371.7,665.2,373,663.3,373z
		 M663.1,367.7c-0.9,0-1.6,0.6-1.8,1.5h3.4C664.5,368,663.7,367.7,663.1,367.7z"/>
	<path d="M678,373c-0.4,0-1-0.1-1.8-1v3.5h0.8c0.2,0,0.4,0,0.4,0.3c0,0.3-0.3,0.3-0.4,0.3h-2.3c-0.2,0-0.4,0-0.4-0.3
		c0-0.3,0.3-0.3,0.4-0.3h0.8v-8h-0.8c-0.2,0-0.4,0-0.4-0.3c0-0.3,0.3-0.3,0.4-0.3h1.1c0.4,0,0.4,0.2,0.4,0.8c0.7-0.6,1.3-0.9,2-0.9
		c1.5,0,2.7,1.4,2.7,3.1C680.8,371.7,679.5,373,678,373z M678,367.4c-1,0-1.9,0.8-1.9,1.8v1.1c0,0.7,0.6,2.1,1.8,2.1
		c1.1,0,2.2-1,2.2-2.5C680.1,368.6,679.2,367.4,678,367.4z"/>
	<path d="M687.1,374.1c-0.3,0-1.4-0.8-2.1-1.8c-0.5-0.7-1.1-2-1.1-3.7c0-3.6,2.8-5.5,3.2-5.5c0.3,0,0.3,0.2,0.3,0.3
		c0,0.1-0.1,0.2-0.3,0.3c-2,1.4-2.5,3.4-2.5,4.9c0,1.7,0.7,3.6,2.5,4.9c0.2,0.1,0.3,0.2,0.3,0.3
		C687.4,373.9,687.4,374.1,687.1,374.1z"/>
	<path d="M695.4,367.9c-0.1,0-0.4-0.1-0.4-0.5c-0.3,0-0.7,0.1-1.2,0.4c0.3,0.5,0.4,0.9,0.4,1.3c0,1.2-1,2.2-2.2,2.2
		c-0.7,0-1.2-0.3-1.4-0.4c-0.1,0.3-0.2,0.6-0.2,0.6c0,0,0,0.4,0.2,0.6c0.2,0.3,0.3,0.3,0.6,0.3c0.1,0,0.3,0,0.4,0h1
		c1.3,0,1.8,0.3,2,0.4c0.7,0.4,0.9,1,0.9,1.5c0,1.2-1.5,2-3.2,2s-3.2-0.8-3.2-2c0-0.1,0-1.1,1.1-1.8c-0.2-0.3-0.4-0.6-0.4-1.1
		c0-0.4,0.1-0.7,0.3-1c-0.3-0.4-0.5-0.8-0.5-1.4c0-1.2,1-2.2,2.2-2.2c0.6,0,1.1,0.3,1.4,0.5c0.7-0.5,1.4-0.5,1.5-0.5
		c0.7,0,0.9,0.4,0.9,0.6C695.8,367.7,695.6,367.9,695.4,367.9z M692,372.8c-1.1,0-1.2,0-1.6,0.3c-0.5,0.3-0.7,0.8-0.7,1.1
		c0,0.7,1.1,1.4,2.7,1.4c1.5,0,2.7-0.7,2.7-1.4C695.1,372.9,693.4,372.8,692,372.8z M692,367.4c-0.8,0-1.5,0.7-1.5,1.6
		c0,0.8,0.7,1.6,1.5,1.6c0.8,0,1.5-0.7,1.5-1.6C693.5,368.2,692.8,367.4,692,367.4z"/>
	<path d="M697.7,374.1c-0.2,0-0.3-0.2-0.3-0.3c0-0.1,0.1-0.2,0.3-0.3c2-1.4,2.5-3.4,2.5-4.9c0-1-0.2-3.3-2.7-5
		c-0.1,0-0.1-0.1-0.1-0.2c0-0.1,0.1-0.3,0.3-0.3c0.3,0,1.4,0.8,2.1,1.8c0.5,0.7,1.1,2,1.1,3.7C700.9,372.2,698.1,374.1,697.7,374.1z
		"/>
	<path d="M714.9,373c-1.7,0-3-1.4-3-3.1c0-1.2,0.8-3.1,3.2-3.1c0.6,0,2,0.1,2,0.9c0,0.3-0.2,0.5-0.5,0.5c-0.3,0-0.5-0.2-0.5-0.6
		c0-0.2-0.7-0.3-1-0.3c-2.1,0-2.5,1.8-2.5,2.5c0,1.4,1.1,2.5,2.4,2.5c1.1,0,1.5-0.8,1.6-1.1c0.1-0.1,0.2-0.1,0.3-0.1
		c0.1,0,0.4,0,0.4,0.3C717.2,371.7,716.8,373,714.9,373z"/>
	<path d="M721.8,373c-1.5,0-2.8-1.3-2.8-3.1c0-1.7,1.3-3.1,2.8-3.1s2.8,1.4,2.8,3.1C724.6,371.6,723.3,373,721.8,373z M721.8,367.4
		c-1.1,0-2.1,1-2.1,2.4c0,1.4,1,2.6,2.1,2.6c1.1,0,2.1-1.1,2.1-2.6C723.9,368.4,722.9,367.4,721.8,367.4z"/>
	<path d="M732.2,372.9H730c-0.2,0-0.4,0-0.4-0.3s0.3-0.3,0.4-0.3h0.7v-3.4c0-1-0.3-1.4-1.1-1.4c-0.8,0-2,0.6-2,2.1v2.7h0.8
		c0.2,0,0.4,0,0.4,0.3s-0.3,0.3-0.4,0.3h-2.3c-0.2,0-0.4,0-0.4-0.3s0.3-0.3,0.4-0.3h0.8v-4.8h-0.8c-0.2,0-0.4,0-0.4-0.3
		c0-0.3,0.3-0.3,0.4-0.3h1.1c0.4,0,0.4,0.2,0.4,0.9c0.5-0.5,1.1-1,2-1c1.1,0,1.7,0.6,1.7,1.9v3.5h0.8c0.2,0,0.4,0,0.4,0.3
		S732.3,372.9,732.2,372.9z"/>
	<path d="M739.5,372.9h-1c-0.4,0-0.4-0.2-0.4-0.9c-0.6,0.7-1.2,1-2,1c-1.5,0-2.7-1.3-2.7-3.1c0-1.8,1.3-3.1,2.8-3.1
		c0.6,0,1.1,0.2,1.8,0.8v-2.8h-0.8c-0.2,0-0.4,0-0.4-0.3c0-0.3,0.3-0.3,0.4-0.3h1c0.4,0,0.4,0.1,0.4,0.4v7.5h0.8
		c0.2,0,0.4,0,0.4,0.3C740,372.9,739.7,372.9,739.5,372.9z M738,369.2c0-0.9-0.8-1.8-1.8-1.8c-1.1,0-2.2,1-2.2,2.5
		c0,1.4,1,2.5,2,2.5c1.2,0,1.9-1.3,1.9-2.2V369.2z"/>
	<path d="M746,372.9h-4.3c-0.2,0-0.4,0-0.4-0.3s0.3-0.3,0.4-0.3h1.9v-4.8h-1.8c-0.2,0-0.4,0-0.4-0.3s0.3-0.3,0.4-0.3h2.1
		c0.4,0,0.4,0.1,0.4,0.4v4.9h1.7c0.2,0,0.4,0,0.4,0.3S746.2,372.9,746,372.9z M743.8,365.6c-0.3,0-0.6-0.3-0.6-0.6
		c0-0.3,0.3-0.6,0.6-0.6s0.6,0.3,0.6,0.6C744.4,365.3,744.2,365.6,743.8,365.6z"/>
	<path d="M751.6,373c-1,0-1.9-0.5-1.9-1.8v-3.7h-1.4c-0.2,0-0.4,0-0.4-0.3c0-0.3,0.3-0.3,0.4-0.3h1.4v-1.3c0-0.2,0-0.4,0.4-0.4
		c0.3,0,0.3,0.3,0.3,0.4v1.3h2.5c0.2,0,0.4,0,0.4,0.3c0,0.3-0.3,0.3-0.4,0.3h-2.5v3.6c0,0.4,0,1.3,1.3,1.3c0.4,0,1.3-0.2,1.3-1.2
		c0-0.2,0-0.4,0.4-0.4c0.4,0,0.4,0.2,0.4,0.4C753.7,372.4,752.6,373,751.6,373z"/>
	<path d="M760.7,372.9h-4.3c-0.2,0-0.4,0-0.4-0.3s0.3-0.3,0.4-0.3h1.9v-4.8h-1.8c-0.2,0-0.4,0-0.4-0.3s0.3-0.3,0.4-0.3h2.1
		c0.4,0,0.4,0.1,0.4,0.4v4.9h1.7c0.2,0,0.4,0,0.4,0.3S760.9,372.9,760.7,372.9z M758.5,365.6c-0.3,0-0.6-0.3-0.6-0.6
		c0-0.3,0.3-0.6,0.6-0.6s0.6,0.3,0.6,0.6C759.1,365.3,758.9,365.6,758.5,365.6z"/>
	<path d="M765.9,373c-1.5,0-2.8-1.3-2.8-3.1c0-1.7,1.3-3.1,2.8-3.1s2.8,1.4,2.8,3.1C768.7,371.6,767.4,373,765.9,373z M765.9,367.4
		c-1.1,0-2.1,1-2.1,2.4c0,1.4,1,2.6,2.1,2.6c1.1,0,2.1-1.1,2.1-2.6C768,368.4,767,367.4,765.9,367.4z"/>
	<path d="M776.3,372.9h-2.2c-0.2,0-0.4,0-0.4-0.3s0.3-0.3,0.4-0.3h0.7v-3.4c0-1-0.3-1.4-1.1-1.4c-0.8,0-2,0.6-2,2.1v2.7h0.8
		c0.2,0,0.4,0,0.4,0.3s-0.3,0.3-0.4,0.3h-2.3c-0.2,0-0.4,0-0.4-0.3s0.3-0.3,0.4-0.3h0.8v-4.8h-0.8c-0.2,0-0.4,0-0.4-0.3
		c0-0.3,0.3-0.3,0.4-0.3h1.1c0.4,0,0.4,0.2,0.4,0.9c0.5-0.5,1.1-1,2-1c1.1,0,1.7,0.6,1.7,1.9v3.5h0.8c0.2,0,0.4,0,0.4,0.3
		S776.4,372.9,776.3,372.9z"/>
	<path d="M780.9,373c-1.8,0-3.2-1.4-3.2-3.1c0-1.7,1.3-3.1,3-3.1c1.8,0,2.7,1.4,2.7,2.9c0,0.4-0.2,0.4-0.4,0.4h-4.5
		c0.3,1.5,1.4,2.3,2.6,2.3c0.4,0,1.3-0.2,1.7-1c0.1-0.1,0.1-0.2,0.3-0.2c0.1,0,0.3,0,0.3,0.3C783.4,371.8,782.7,373,780.9,373z
		 M780.7,367.4c-1.1,0-2,0.8-2.2,2.1h4.2C782.5,367.8,781.5,367.4,780.7,367.4z"/>
	<path d="M791,372.9h-1c-0.4,0-0.4-0.2-0.4-0.9c-0.6,0.7-1.2,1-2,1c-1.5,0-2.7-1.3-2.7-3.1c0-1.8,1.3-3.1,2.8-3.1
		c0.6,0,1.1,0.2,1.8,0.8v-2.8h-0.8c-0.2,0-0.4,0-0.4-0.3c0-0.3,0.3-0.3,0.4-0.3h1c0.4,0,0.4,0.1,0.4,0.4v7.5h0.8
		c0.2,0,0.4,0,0.4,0.3C791.4,372.9,791.1,372.9,791,372.9z M789.5,369.2c0-0.9-0.8-1.8-1.8-1.8c-1.1,0-2.2,1-2.2,2.5
		c0,1.4,1,2.5,2,2.5c1.2,0,1.9-1.3,1.9-2.2V369.2z"/>
	<path d="M802.6,373c-1.5,0-2.8-1.3-2.8-3.1c0-1.7,1.3-3.1,2.8-3.1s2.8,1.4,2.8,3.1C805.5,371.6,804.1,373,802.6,373z M802.6,367.4
		c-1.1,0-2.1,1-2.1,2.4c0,1.4,1,2.6,2.1,2.6c1.1,0,2.1-1.1,2.1-2.6C804.7,368.4,803.7,367.4,802.6,367.4z"/>
	<path d="M813,372.9h-2.2c-0.2,0-0.4,0-0.4-0.3s0.3-0.3,0.4-0.3h0.7v-3.4c0-1-0.3-1.4-1.1-1.4c-0.8,0-2,0.6-2,2.1v2.7h0.8
		c0.2,0,0.4,0,0.4,0.3s-0.3,0.3-0.4,0.3h-2.3c-0.2,0-0.4,0-0.4-0.3s0.3-0.3,0.4-0.3h0.8v-4.8h-0.8c-0.2,0-0.4,0-0.4-0.3
		c0-0.3,0.3-0.3,0.4-0.3h1.1c0.4,0,0.4,0.2,0.4,0.9c0.5-0.5,1.1-1,2-1c1.1,0,1.7,0.6,1.7,1.9v3.5h0.8c0.2,0,0.4,0,0.4,0.3
		S813.2,372.9,813,372.9z"/>
	<path d="M827.6,372.9c-0.5,0-1.2,0-1.5-0.5c-0.8,0.5-1.6,0.6-2.1,0.6c-1.4,0-2.3-0.9-2.3-1.8c0-1.3,1.8-2,4.3-2
		c0-1.3-0.8-1.8-2-1.8c-0.4,0-1,0.1-1,0.3c0,0.4-0.3,0.5-0.5,0.5c-0.3,0-0.5-0.2-0.5-0.5c0-0.9,1.4-0.9,2-0.9c2,0,2.7,1.1,2.7,2.1
		v3.2c0.2,0.1,0.4,0.2,1,0.2c0.2,0,0.4,0,0.4,0.3C828.2,372.9,827.9,372.9,827.6,372.9z M826,369.7c-2.4,0.1-3.6,0.7-3.6,1.5
		c0,0.6,0.6,1.2,1.6,1.2c0.1,0,0.8,0,1.3-0.3c0.6-0.3,0.6-0.6,0.6-1V369.7z"/>
	<path d="M834.4,372.9h-4.8c-0.1,0-0.4,0-0.4-0.3s0.3-0.3,0.4-0.3h2v-7.4h-2c-0.1,0-0.4,0-0.4-0.3c0-0.3,0.3-0.3,0.4-0.3h2.3
		c0.4,0,0.4,0.1,0.4,0.4v7.5h2c0.2,0,0.4,0,0.4,0.3S834.6,372.9,834.4,372.9z"/>
	<path d="M841.8,372.9H837c-0.1,0-0.4,0-0.4-0.3s0.3-0.3,0.4-0.3h2v-7.4h-2c-0.1,0-0.4,0-0.4-0.3c0-0.3,0.3-0.3,0.4-0.3h2.3
		c0.4,0,0.4,0.1,0.4,0.4v7.5h2c0.2,0,0.4,0,0.4,0.3S841.9,372.9,841.8,372.9z"/>
	<path d="M857.5,376.1h-2.4c-0.2,0-0.4,0-0.4-0.3c0-0.3,0.3-0.3,0.4-0.3h0.9v-3.6c-0.5,0.6-1.2,1.1-2.1,1.1c-1.5,0-2.8-1.3-2.8-3.1
		c0-1.8,1.4-3.1,3-3.1c0.8,0,1.3,0.3,1.9,1c0-0.8,0-1,0.4-1c0.4,0,0.4,0.2,0.4,0.4v8.2h0.9c0.2,0,0.4,0,0.4,0.3
		C857.9,376.1,857.6,376.1,857.5,376.1z M855.9,369.7c0-1-0.7-2.2-1.9-2.2c-1.2,0-2.3,1.1-2.3,2.5c0,1.4,1,2.5,2.2,2.5
		c1.3,0,2-1.3,2-2.2V369.7z"/>
	<path d="M861.2,370.9l-1.1,1.7h-0.9l1.1-1.7h-2v-0.8h2.5l1.2-1.9h-3.8v-0.8h4.3l1.1-1.7h0.9l-1.1,1.7h2v0.8H863l-1.2,1.9h3.8v0.8
		H861.2z"/>
	<path d="M866.3,375.6c0-0.3,0.2-0.4,0.6-0.4h0.6v-7.4h-0.6c-0.4,0-0.6-0.1-0.6-0.4c0-0.3,0.2-0.4,0.6-0.4h1c0.2,0,0.4,0,0.5,0.1
		s0.1,0.2,0.1,0.5c0.5-0.5,1.1-0.7,1.8-0.7c0.7,0,1.4,0.3,1.9,0.9c0.5,0.6,0.8,1.3,0.8,2.2c0,0.9-0.3,1.6-0.9,2.2
		c-0.6,0.6-1.3,0.9-2,0.9c-0.6,0-1.2-0.2-1.6-0.7v2.9h0.6c0.4,0,0.6,0.1,0.6,0.4c0,0.3-0.2,0.4-0.6,0.4h-2.2
		C866.5,376,866.3,375.9,866.3,375.6z M868.4,370.2c0,0.4,0.1,0.8,0.4,1.3c0.3,0.4,0.7,0.6,1.2,0.6c0.5,0,1-0.2,1.4-0.6
		c0.4-0.4,0.6-1,0.6-1.6c0-0.6-0.2-1.1-0.5-1.6c-0.4-0.4-0.8-0.7-1.3-0.7c-0.4,0-0.8,0.2-1.2,0.5s-0.5,0.7-0.5,1.1V370.2z"/>
	<path d="M886.7,372.9h-4.3c-0.2,0-0.4,0-0.4-0.3s0.3-0.3,0.4-0.3h1.9v-4.8h-1.8c-0.2,0-0.4,0-0.4-0.3s0.3-0.3,0.4-0.3h2.1
		c0.4,0,0.4,0.1,0.4,0.4v4.9h1.7c0.2,0,0.4,0,0.4,0.3S886.8,372.9,886.7,372.9z M884.5,365.6c-0.3,0-0.6-0.3-0.6-0.6
		c0-0.3,0.3-0.6,0.6-0.6s0.6,0.3,0.6,0.6C885.1,365.3,884.8,365.6,884.5,365.6z"/>
	<path d="M894.9,372.9h-2.2c-0.2,0-0.4,0-0.4-0.3s0.3-0.3,0.4-0.3h0.7v-3.4c0-1-0.3-1.4-1.1-1.4c-0.8,0-2,0.6-2,2.1v2.7h0.8
		c0.2,0,0.4,0,0.4,0.3s-0.3,0.3-0.4,0.3h-2.3c-0.2,0-0.4,0-0.4-0.3s0.3-0.3,0.4-0.3h0.8v-4.8h-0.8c-0.2,0-0.4,0-0.4-0.3
		c0-0.3,0.3-0.3,0.4-0.3h1.1c0.4,0,0.4,0.2,0.4,0.9c0.5-0.5,1.1-1,2-1c1.1,0,1.7,0.6,1.7,1.9v3.5h0.8c0.2,0,0.4,0,0.4,0.3
		S895,372.9,894.9,372.9z"/>
	<path d="M906.9,369.3h-2v3h0.6c0.2,0,0.4,0,0.4,0.3s-0.3,0.3-0.4,0.3h-1.9c-0.2,0-0.4,0-0.4-0.3s0.3-0.3,0.4-0.3h0.6v-7.4h-0.6
		c-0.2,0-0.4,0-0.4-0.3s0.3-0.3,0.4-0.3h3.2c1.6,0,2.6,1.2,2.6,2.5C909.5,368.1,908.5,369.3,906.9,369.3z M906.7,364.9H905v3.8h1.7
		c1.5,0,2.2-1.1,2.2-1.9C908.8,366,908.2,364.9,906.7,364.9z"/>
</g>
<g>
</g>
<g>
</g>
<g>
</g>
<g>
</g>
<g>
</g>
<g>
</g>
<g>
</g>
<g>
</g>
</svg>
