<?xml version="1.0" encoding="utf-8"?>
<!-- Generator: Adobe Illustrator 25.2.3, SVG Export Plug-In . SVG Version: 6.00 Build 0)  -->
<svg version="1.1" id="Layer_1" xmlns="http://www.w3.org/2000/svg" xmlns:xlink="http://www.w3.org/1999/xlink" x="0px" y="0px"
	 viewBox="0 0 1121.2 482.3" style="enable-background:new 0 0 1121.2 482.3;" xml:space="preserve">
<style type="text/css">
	.st0{fill:#FFFFFF;}
	.st1{fill:#53BEED;}
	.st2{fill:#74AB42;}
	.st3{fill:#7F8080;}
	.st4{fill:none;stroke:#231F20;stroke-width:1.9934;stroke-miterlimit:10;}
	.st5{fill:#A31D32;}
	.st6{fill:#231F20;}
	.st7{fill:#EC81B4;}
	.st8{fill:#1173BB;}
	.st9{fill:#80308C;}
	.st10{fill:#D75528;}
	.st11{fill:#EBB222;}
	.st12{fill:none;stroke:#231F20;stroke-width:1.9934;stroke-miterlimit:10;stroke-dasharray:10.5816,10.5816;}
	.st13{fill:none;stroke:#7F8080;stroke-width:1.9934;stroke-miterlimit:10;}
	.st14{fill:#010101;}
	.st15{fill:none;stroke:#EC7E30;stroke-width:3.3821;stroke-miterlimit:8;}
	.st16{fill:none;stroke:#FCC015;stroke-width:3.3821;stroke-miterlimit:8;}
	.st17{fill:none;stroke:#71AD44;stroke-width:3.3821;stroke-miterlimit:8;}
	.st18{fill:none;stroke:#6F3B97;stroke-width:3.3821;stroke-miterlimit:8;}
	.st19{fill:none;stroke:#4A72B8;stroke-width:3.3821;stroke-miterlimit:8;}
	.st20{fill:none;stroke:#7F8081;stroke-width:3.3694;stroke-miterlimit:8;}
	.st21{fill:#F69696;stroke:#000000;stroke-miterlimit:10;}
	.st22{fill:#50BEED;stroke:#000000;stroke-miterlimit:10;}
	.st23{fill:none;stroke:#000000;stroke-miterlimit:10;}
	.st24{fill:none;stroke:#000000;stroke-width:5;stroke-linecap:round;stroke-linejoin:round;}
</style>
<rect class="st0" width="1121.2" height="482.3"/>
<path d="M630.4,262.2H457.3c-4,0-7.2-3.2-7.2-7.2v-62c0-4,3.2-7.2,7.2-7.2h173.1c4,0,7.2,3.2,7.2,7.2v62
	C637.6,258.9,634.4,262.2,630.4,262.2z"/>
<path class="st1" d="M916.3,115c0,6.6-5.4,11.9-12.1,11.9c-6.7,0-12.1-5.3-12.1-11.9c0-6.6,5.4-11.9,12.1-11.9
	C910.9,103.1,916.3,108.4,916.3,115"/>
<path class="st2" d="M892.2,136.3c0,6.6-5.4,11.9-12.1,11.9c-6.7,0-12.1-5.3-12.1-11.9c0-6.6,5.4-11.9,12.1-11.9
	C886.8,124.4,892.2,129.7,892.2,136.3"/>
<path class="st3" d="M940.6,136.3c0,6.6-5.4,11.9-12.1,11.9c-6.7,0-12.1-5.3-12.1-11.9c0-6.6,5.4-11.9,12.1-11.9
	C935.2,124.4,940.6,129.7,940.6,136.3"/>
<path class="st4" d="M950.6,136.6c0,25.3-20.7,45.7-46.3,45.7c-25.6,0-46.3-20.5-46.3-45.7c0-25.2,20.7-45.7,46.3-45.7
	C929.8,90.9,950.6,111.3,950.6,136.6z"/>
<path class="st5" d="M831.6,306.6c0,6.6-5.4,11.9-12.1,11.9c-6.7,0-12.1-5.3-12.1-11.9c0-6.6,5.4-11.9,12.1-11.9
	C826.2,294.7,831.6,300,831.6,306.6"/>
<path class="st6" d="M831.6,260.3c0,6.6-5.4,11.9-12.1,11.9c-6.7,0-12.1-5.3-12.1-11.9c0-6.6,5.4-11.9,12.1-11.9
	C826.2,248.4,831.6,253.8,831.6,260.3"/>
<path class="st7" d="M856,281.6c0,6.6-5.4,11.9-12.1,11.9c-6.7,0-12.1-5.3-12.1-11.9c0-6.6,5.4-11.9,12.1-11.9
	C850.6,269.7,856,275,856,281.6"/>
<path class="st8" d="M807.5,281.6c0,6.6-5.4,11.9-12.1,11.9c-6.7,0-12.1-5.3-12.1-11.9c0-6.6,5.4-11.9,12.1-11.9
	C802.1,269.7,807.5,275,807.5,281.6"/>
<path class="st4" d="M865.9,281.9c0,25.3-20.7,45.7-46.3,45.7c-25.6,0-46.3-20.5-46.3-45.7c0-25.2,20.7-45.7,46.3-45.7
	C845.2,236.2,865.9,256.7,865.9,281.9z"/>
<path class="st9" d="M1001.3,260.3c0,6.6-5.4,11.9-12.1,11.9c-6.7,0-12.1-5.3-12.1-11.9c0-6.6,5.4-11.9,12.1-11.9
	C995.9,248.4,1001.3,253.8,1001.3,260.3"/>
<path class="st10" d="M1025.7,281.6c0,6.6-5.4,11.9-12.1,11.9c-6.7,0-12.1-5.3-12.1-11.9c0-6.6,5.4-11.9,12.1-11.9
	C1020.3,269.7,1025.7,275,1025.7,281.6"/>
<path class="st11" d="M977.2,281.6c0,6.6-5.4,11.9-12.1,11.9c-6.7,0-12.1-5.3-12.1-11.9c0-6.6,5.4-11.9,12.1-11.9
	C971.8,269.7,977.2,275,977.2,281.6"/>
<path class="st4" d="M1035.6,281.9c0,25.3-20.7,45.7-46.3,45.7c-25.6,0-46.3-20.5-46.3-45.7c0-25.2,20.7-45.7,46.3-45.7
	C1014.9,236.2,1035.6,256.7,1035.6,281.9z"/>
<path class="st4" d="M835,233.9c10.5-25.7,24.7-48.8,38.6-63"/>
<polygon class="st6" points="839.5,236.6 840.1,235.2 830.6,231.2 830,232.6 "/>
<path class="st4" d="M939.4,179.8c0.8,1,1.7,2,2.6,3"/>
<path class="st12" d="M947.3,189.2c7.4,9.2,15.9,21.4,23,39.4"/>
<path class="st4" d="M971.8,232.5c0.4,1.2,0.9,2.4,1.3,3.7"/>
<polygon class="st6" points="937.1,183.2 935.7,175.5 943.2,178.2 "/>
<path class="st13" d="M939.2,296.7c-22.4,6.4-51.5,4.2-74.8-3.1"/>
<polygon class="st3" points="938.7,291.5 937.1,291.9 939.8,301.7 941.3,301.3 "/>
<path class="st4" d="M955.7,241c-15-17.5-30.9-46.5-35.2-61.6"/>
<polygon class="st6" points="958,237.5 959.5,245.2 952,242.7 "/>
<path class="st14" d="M46.1,74l-2.4-4.6L41.3,74H46.1z M43.9,73.2h-0.4v129.4h0.4V73.2z"/>
<path class="st14" d="M303.1,200.5l4.8,2.3l-4.8,2.3V200.5z M44.1,202.6h259.9v0.4H44.1V202.6z"/>
<path class="st15" d="M43.7,117c15.1-9.9,30.2-19.8,43.9-17.9c13.7,1.9,16.1,19.8,38.4,29.5c22.4,9.7,69,23.2,95.7,28.5
	c26.7,5.4,64.5,3.6,64.5,3.6"/>
<path class="st16" d="M47.2,144.6c15.8,13,31.6,26.1,51.5,27.5c19.9,1.4,44.5-19,67.9-18.9c23.4,0.1,52.2,15.1,72.7,19.2
	c20.5,4.1,50.4,5.6,50.4,5.6"/>
<path class="st17" d="M46.8,130c40-13.2,80.1-26.4,109.8-32.5c29.7-6.1,47.7-3,68.3-4c20.5-0.9,42.2-0.4,54.9-1.7"/>
<path class="st18" d="M56.5,186c42.3-29.3,84.6-58.6,112.9-66.7c28.2-8.1,36.6,15.1,56.6,18.2c20,3.1,63.5,0.3,63.5,0.3"/>
<path class="st19" d="M46.8,198c37.1-42.1,74.2-84.3,113.9-105.1C200.3,72,284.8,72.9,284.8,72.9"/>
<g>
	<path class="st14" d="M50.7,302.2l-2.4-4.6l-2.4,4.6H50.7z M48.5,301.4h-0.4v128.4h0.4V301.4z"/>
	<path class="st14" d="M307.3,427.6l4.8,2.3l-4.8,2.3V427.6z M48.3,429.7h259.9v0.4H48.3V429.7z"/>
	<path class="st20" d="M51.4,425.3c37.1-41.8,51.7-101.9,91.4-122.5c39.7-20.7,161.1,54.6,161.1,54.6"/>
</g>
<g>
	<path d="M72.9,51c1,0.6,2.5,1.1,4.1,1.1c2.3,0,3.7-1.2,3.7-3c0-1.6-0.9-2.6-3.3-3.5c-2.9-1-4.6-2.5-4.6-5c0-2.7,2.3-4.8,5.7-4.8
		c1.8,0,3.1,0.4,3.9,0.9l-0.6,1.8c-0.6-0.3-1.7-0.8-3.3-0.8c-2.4,0-3.3,1.4-3.3,2.6c0,1.6,1.1,2.4,3.5,3.4c3,1.1,4.5,2.6,4.5,5.1
		c0,2.7-2,5-6.1,5c-1.7,0-3.5-0.5-4.5-1.1L72.9,51z"/>
	<path d="M87.4,47.8c0.1,3.1,2,4.4,4.3,4.4c1.6,0,2.6-0.3,3.5-0.7l0.4,1.6c-0.8,0.4-2.2,0.8-4.2,0.8c-3.9,0-6.2-2.5-6.2-6.3
		c0-3.8,2.2-6.8,5.9-6.8c4.1,0,5.2,3.6,5.2,5.9c0,0.5-0.1,0.8-0.1,1.1H87.4z M94.1,46.2c0-1.5-0.6-3.7-3.2-3.7
		c-2.3,0-3.3,2.1-3.5,3.7H94.1z"/>
	<path d="M107.7,51.8L107.7,51.8c-0.7,1.2-2.1,2.2-4.2,2.2c-2.9,0-5.3-2.5-5.3-6.4c0-4.7,3-6.8,5.7-6.8c2,0,3.2,1,3.9,2.2h0.1
		l0.1-1.9h2.2c-0.1,1.1-0.1,2.2-0.1,3.5v14.3h-2.3V51.8z M107.7,46.2c0-0.3,0-0.7-0.1-1c-0.3-1.4-1.6-2.6-3.3-2.6
		c-2.4,0-3.8,2-3.8,4.8c0,2.5,1.2,4.7,3.7,4.7c1.5,0,2.8-0.9,3.3-2.5c0.1-0.3,0.2-0.8,0.2-1.1V46.2z"/>
	<path d="M124.3,50.3c0,1.3,0,2.4,0.1,3.4h-2l-0.1-2.1h-0.1c-0.6,1-1.9,2.3-4.2,2.3c-2,0-4.3-1.1-4.3-5.5v-7.4h2.3v7
		c0,2.4,0.7,4,2.8,4c1.5,0,2.6-1.1,3-2.1c0.1-0.3,0.2-0.8,0.2-1.2v-7.7h2.3V50.3z"/>
	<path d="M129.4,47.8c0.1,3.1,2,4.4,4.3,4.4c1.6,0,2.6-0.3,3.5-0.7l0.4,1.6c-0.8,0.4-2.2,0.8-4.2,0.8c-3.9,0-6.2-2.5-6.2-6.3
		c0-3.8,2.2-6.8,5.9-6.8c4.1,0,5.2,3.6,5.2,5.9c0,0.5-0.1,0.8-0.1,1.1H129.4z M136.1,46.2c0-1.5-0.6-3.7-3.2-3.7
		c-2.3,0-3.3,2.1-3.5,3.7H136.1z"/>
	<path d="M141.2,44.5c0-1.3,0-2.4-0.1-3.4h2l0.1,2.1h0.1c0.6-1.2,2.1-2.4,4.2-2.4c1.7,0,4.4,1,4.4,5.4v7.5h-2.3v-7.3
		c0-2-0.8-3.7-2.9-3.7c-1.5,0-2.7,1.1-3.1,2.3c-0.1,0.3-0.2,0.7-0.2,1.1v7.6h-2.3V44.5z"/>
	<path d="M164.6,53.2c-0.6,0.3-1.9,0.7-3.6,0.7c-3.8,0-6.3-2.6-6.3-6.4c0-3.9,2.7-6.7,6.8-6.7c1.4,0,2.5,0.3,3.2,0.7l-0.5,1.8
		c-0.5-0.3-1.4-0.6-2.7-0.6c-2.9,0-4.4,2.1-4.4,4.8c0,2.9,1.9,4.7,4.4,4.7c1.3,0,2.2-0.3,2.8-0.6L164.6,53.2z"/>
	<path d="M169.8,37.6c0,0.8-0.5,1.4-1.5,1.4c-0.8,0-1.4-0.6-1.4-1.4c0-0.8,0.6-1.4,1.4-1.4C169.2,36.2,169.8,36.8,169.8,37.6z
		 M167.2,53.7V41.1h2.3v12.6H167.2z"/>
	<path d="M173.3,44.5c0-1.3,0-2.4-0.1-3.4h2l0.1,2.1h0.1c0.6-1.2,2.1-2.4,4.2-2.4c1.7,0,4.4,1,4.4,5.4v7.5h-2.3v-7.3
		c0-2-0.8-3.7-2.9-3.7c-1.5,0-2.7,1.1-3.1,2.3c-0.1,0.3-0.2,0.7-0.2,1.1v7.6h-2.3V44.5z"/>
	<path d="M198.6,41.1c-0.1,0.9-0.1,1.9-0.1,3.5v7.3c0,2.9-0.6,4.7-1.8,5.7c-1.2,1.1-3,1.5-4.6,1.5c-1.5,0-3.2-0.4-4.2-1l0.6-1.7
		c0.8,0.5,2.1,1,3.7,1c2.3,0,4.1-1.2,4.1-4.4v-1.4h-0.1c-0.7,1.2-2.1,2.1-4,2.1c-3.1,0-5.4-2.7-5.4-6.1c0-4.3,2.8-6.7,5.7-6.7
		c2.2,0,3.4,1.1,3.9,2.2h0.1l0.1-1.9H198.6z M196.2,46.1c0-0.4,0-0.7-0.1-1c-0.4-1.3-1.5-2.4-3.2-2.4c-2.2,0-3.7,1.8-3.7,4.8
		c0,2.5,1.2,4.5,3.7,4.5c1.4,0,2.7-0.9,3.2-2.3c0.1-0.4,0.2-0.8,0.2-1.2V46.1z"/>
	<path d="M207.9,36.4c1.1-0.2,2.8-0.4,4.3-0.4c2.4,0,4,0.4,5.1,1.4c0.9,0.8,1.4,2,1.4,3.3c0,2.3-1.5,3.8-3.3,4.5v0.1
		c1.4,0.5,2.2,1.7,2.6,3.5c0.6,2.4,1,4.1,1.4,4.8h-2.3c-0.3-0.5-0.7-2-1.2-4.2c-0.5-2.4-1.5-3.3-3.5-3.4h-2.1v7.6h-2.3V36.4z
		 M210.1,44.4h2.3c2.4,0,4-1.3,4-3.3c0-2.3-1.6-3.2-4-3.3c-1.1,0-1.9,0.1-2.2,0.2V44.4z"/>
	<path d="M223.2,47.8c0.1,3.1,2,4.4,4.3,4.4c1.6,0,2.6-0.3,3.5-0.7l0.4,1.6c-0.8,0.4-2.2,0.8-4.2,0.8c-3.9,0-6.2-2.5-6.2-6.3
		c0-3.8,2.2-6.8,5.9-6.8c4.1,0,5.2,3.6,5.2,5.9c0,0.5-0.1,0.8-0.1,1.1H223.2z M229.9,46.2c0-1.5-0.6-3.7-3.2-3.7
		c-2.3,0-3.3,2.1-3.5,3.7H229.9z"/>
	<path d="M241.9,53.7l-0.2-1.6h-0.1c-0.7,1-2.1,1.9-3.8,1.9c-2.5,0-3.8-1.8-3.8-3.6c0-3,2.7-4.7,7.6-4.7v-0.3c0-1-0.3-2.9-2.9-2.9
		c-1.2,0-2.4,0.4-3.3,0.9l-0.5-1.5c1-0.7,2.5-1.1,4.1-1.1c3.8,0,4.8,2.6,4.8,5.1v4.7c0,1.1,0.1,2.2,0.2,3H241.9z M241.5,47.3
		c-2.5-0.1-5.3,0.4-5.3,2.8c0,1.5,1,2.2,2.2,2.2c1.6,0,2.7-1,3-2.1c0.1-0.2,0.1-0.5,0.1-0.7V47.3z"/>
	<path d="M258.3,35.2v15.2c0,1.1,0,2.4,0.1,3.2h-2.1l-0.1-2.2h-0.1c-0.7,1.4-2.2,2.5-4.3,2.5c-3,0-5.4-2.6-5.4-6.4
		c0-4.2,2.6-6.8,5.6-6.8c1.9,0,3.2,0.9,3.8,1.9h0.1v-7.5H258.3z M256,46.2c0-0.3,0-0.7-0.1-1c-0.3-1.5-1.6-2.7-3.3-2.7
		c-2.4,0-3.8,2.1-3.8,4.9c0,2.5,1.2,4.7,3.7,4.7c1.5,0,2.9-1,3.4-2.7c0.1-0.3,0.1-0.6,0.1-1V46.2z"/>
	<path d="M261.8,51.4c0.7,0.4,1.9,0.9,3,0.9c1.7,0,2.4-0.8,2.4-1.9c0-1.1-0.7-1.7-2.3-2.3c-2.3-0.8-3.3-2.1-3.3-3.6
		c0-2,1.6-3.7,4.3-3.7c1.3,0,2.4,0.4,3.1,0.8l-0.6,1.7c-0.5-0.3-1.4-0.7-2.6-0.7c-1.4,0-2.1,0.8-2.1,1.7c0,1,0.8,1.5,2.4,2.1
		c2.2,0.8,3.3,1.9,3.3,3.8c0,2.2-1.7,3.8-4.7,3.8c-1.4,0-2.7-0.3-3.5-0.9L261.8,51.4z"/>
</g>
<g>
	<path d="M76.6,275.5h-5.3v-1.9h13v1.9h-5.4v15.6h-2.3V275.5z"/>
	<path d="M95.7,284.7c0,4.7-3.2,6.7-6.3,6.7c-3.4,0-6-2.5-6-6.5c0-4.2,2.8-6.7,6.2-6.7C93.2,278.2,95.7,280.8,95.7,284.7z
		 M85.7,284.8c0,2.8,1.6,4.8,3.8,4.8c2.2,0,3.8-2.1,3.8-4.9c0-2.1-1.1-4.8-3.8-4.8S85.7,282.4,85.7,284.8z"/>
	<path d="M101.3,274.9v3.6h3.3v1.7h-3.3v6.8c0,1.6,0.4,2.4,1.7,2.4c0.6,0,1-0.1,1.3-0.2l0.1,1.7c-0.4,0.2-1.1,0.3-2,0.3
		c-1.1,0-1.9-0.3-2.5-1c-0.7-0.7-0.9-1.8-0.9-3.3v-6.9h-1.9v-1.7h1.9v-3L101.3,274.9z"/>
	<path d="M114.1,291.1l-0.2-1.6h-0.1c-0.7,1-2.1,1.9-3.8,1.9c-2.5,0-3.8-1.8-3.8-3.6c0-3,2.7-4.7,7.6-4.7v-0.3c0-1-0.3-2.9-2.9-2.9
		c-1.2,0-2.4,0.4-3.3,0.9l-0.5-1.5c1-0.7,2.5-1.1,4.1-1.1c3.8,0,4.8,2.6,4.8,5.1v4.7c0,1.1,0.1,2.2,0.2,3H114.1z M113.8,284.6
		c-2.5-0.1-5.3,0.4-5.3,2.8c0,1.5,1,2.2,2.2,2.2c1.6,0,2.7-1,3-2.1c0.1-0.2,0.1-0.5,0.1-0.7V284.6z"/>
	<path d="M119.7,272.6h2.3v18.5h-2.3V272.6z"/>
	<path d="M131.4,273.8c1-0.2,2.5-0.4,4.1-0.4c2.3,0,3.7,0.4,4.8,1.3c0.9,0.7,1.5,1.7,1.5,3.1c0,1.7-1.1,3.2-3,3.8v0.1
		c1.7,0.4,3.6,1.8,3.6,4.4c0,1.5-0.6,2.7-1.5,3.5c-1.2,1.1-3.2,1.6-6.1,1.6c-1.6,0-2.8-0.1-3.5-0.2V273.8z M133.7,281h2.1
		c2.4,0,3.8-1.2,3.8-2.9c0-2.1-1.6-2.9-3.8-2.9c-1,0-1.6,0.1-2,0.2V281z M133.7,289.4c0.4,0.1,1.1,0.1,1.9,0.1
		c2.3,0,4.5-0.9,4.5-3.4c0-2.4-2.1-3.4-4.5-3.4h-1.9V289.4z"/>
	<path d="M152.4,291.1l-0.2-1.6h-0.1c-0.7,1-2.1,1.9-3.8,1.9c-2.5,0-3.8-1.8-3.8-3.6c0-3,2.7-4.7,7.6-4.7v-0.3c0-1-0.3-2.9-2.9-2.9
		c-1.2,0-2.4,0.4-3.3,0.9l-0.5-1.5c1-0.7,2.5-1.1,4.1-1.1c3.8,0,4.8,2.6,4.8,5.1v4.7c0,1.1,0.1,2.2,0.2,3H152.4z M152,284.6
		c-2.5-0.1-5.3,0.4-5.3,2.8c0,1.5,1,2.2,2.2,2.2c1.6,0,2.7-1,3-2.1c0.1-0.2,0.1-0.5,0.1-0.7V284.6z"/>
	<path d="M166.9,290.6c-0.6,0.3-1.9,0.7-3.6,0.7c-3.8,0-6.3-2.6-6.3-6.4c0-3.9,2.7-6.7,6.8-6.7c1.4,0,2.5,0.3,3.2,0.7l-0.5,1.8
		c-0.5-0.3-1.4-0.6-2.7-0.6c-2.9,0-4.4,2.1-4.4,4.8c0,2.9,1.9,4.7,4.4,4.7c1.3,0,2.2-0.3,2.8-0.6L166.9,290.6z"/>
	<path d="M172.7,274.9v3.6h3.3v1.7h-3.3v6.8c0,1.6,0.4,2.4,1.7,2.4c0.6,0,1-0.1,1.3-0.2l0.1,1.7c-0.4,0.2-1.1,0.3-2,0.3
		c-1.1,0-1.9-0.3-2.5-1c-0.7-0.7-0.9-1.8-0.9-3.3v-6.9h-1.9v-1.7h1.9v-3L172.7,274.9z"/>
	<path d="M179.7,285.2c0.1,3.1,2,4.4,4.3,4.4c1.6,0,2.6-0.3,3.5-0.7l0.4,1.6c-0.8,0.4-2.2,0.8-4.2,0.8c-3.9,0-6.2-2.5-6.2-6.3
		c0-3.8,2.2-6.8,5.9-6.8c4.1,0,5.2,3.6,5.2,5.9c0,0.5-0.1,0.8-0.1,1.1H179.7z M186.4,283.6c0-1.5-0.6-3.7-3.2-3.7
		c-2.3,0-3.3,2.1-3.5,3.7H186.4z"/>
	<path d="M191.4,282.4c0-1.5,0-2.8-0.1-3.9h2l0.1,2.5h0.1c0.6-1.7,2-2.8,3.5-2.8c0.3,0,0.4,0,0.6,0.1v2.2c-0.2-0.1-0.5-0.1-0.8-0.1
		c-1.6,0-2.8,1.2-3.1,2.9c-0.1,0.3-0.1,0.7-0.1,1.1v6.7h-2.3V282.4z"/>
	<path d="M202.6,274.9c0,0.8-0.5,1.4-1.5,1.4c-0.8,0-1.4-0.6-1.4-1.4c0-0.8,0.6-1.4,1.4-1.4C202,273.5,202.6,274.1,202.6,274.9z
		 M200,291.1v-12.6h2.3v12.6H200z"/>
	<path d="M213.1,291.1l-0.2-1.6h-0.1c-0.7,1-2.1,1.9-3.8,1.9c-2.5,0-3.8-1.8-3.8-3.6c0-3,2.7-4.7,7.6-4.7v-0.3c0-1-0.3-2.9-2.9-2.9
		c-1.2,0-2.4,0.4-3.3,0.9l-0.5-1.5c1-0.7,2.5-1.1,4.1-1.1c3.8,0,4.8,2.6,4.8,5.1v4.7c0,1.1,0.1,2.2,0.2,3H213.1z M212.7,284.6
		c-2.5-0.1-5.3,0.4-5.3,2.8c0,1.5,1,2.2,2.2,2.2c1.6,0,2.7-1,3-2.1c0.1-0.2,0.1-0.5,0.1-0.7V284.6z"/>
	<path d="M218.6,272.6h2.3v18.5h-2.3V272.6z"/>
	<path d="M230.4,273.5h2.3v15.6h7.5v1.9h-9.8V273.5z"/>
	<path d="M253.6,284.7c0,4.7-3.2,6.7-6.3,6.7c-3.4,0-6-2.5-6-6.5c0-4.2,2.8-6.7,6.2-6.7C251.1,278.2,253.6,280.8,253.6,284.7z
		 M243.6,284.8c0,2.8,1.6,4.8,3.8,4.8c2.2,0,3.8-2.1,3.8-4.9c0-2.1-1.1-4.8-3.8-4.8S243.6,282.4,243.6,284.8z"/>
	<path d="M263.4,291.1l-0.2-1.6h-0.1c-0.7,1-2.1,1.9-3.8,1.9c-2.5,0-3.8-1.8-3.8-3.6c0-3,2.7-4.7,7.6-4.7v-0.3c0-1-0.3-2.9-2.9-2.9
		c-1.2,0-2.4,0.4-3.3,0.9l-0.5-1.5c1-0.7,2.5-1.1,4.1-1.1c3.8,0,4.8,2.6,4.8,5.1v4.7c0,1.1,0.1,2.2,0.2,3H263.4z M263.1,284.6
		c-2.5-0.1-5.3,0.4-5.3,2.8c0,1.5,1,2.2,2.2,2.2c1.6,0,2.7-1,3-2.1c0.1-0.2,0.1-0.5,0.1-0.7V284.6z"/>
	<path d="M279.9,272.6v15.2c0,1.1,0,2.4,0.1,3.2h-2.1l-0.1-2.2h-0.1c-0.7,1.4-2.2,2.5-4.3,2.5c-3,0-5.4-2.6-5.4-6.4
		c0-4.2,2.6-6.8,5.6-6.8c1.9,0,3.2,0.9,3.8,1.9h0.1v-7.5H279.9z M277.6,283.6c0-0.3,0-0.7-0.1-1c-0.3-1.5-1.6-2.7-3.3-2.7
		c-2.4,0-3.8,2.1-3.8,4.9c0,2.5,1.2,4.7,3.7,4.7c1.5,0,2.9-1,3.4-2.7c0.1-0.3,0.1-0.6,0.1-1V283.6z"/>
</g>
<g>
	<path d="M40.7,387.9c0.4,0.8,0.8,2.5,0.8,4.6c0,4.9-3.1,8.7-8.9,8.7c-5.5,0-9.2-3.7-9.2-9.2c0-2.2,0.5-3.6,0.8-4.2l1.8,0.5
		c-0.4,0.9-0.7,2.1-0.7,3.5c0,4.1,2.6,6.8,7.2,6.8c4.3,0,7-2.5,7-6.7c0-1.4-0.3-2.8-0.7-3.7L40.7,387.9z"/>
	<path d="M23.7,385.1v-9.4h1.9v7.2h5.8v-6.6h1.9v6.6h7.9v2.3H23.7z"/>
	<path d="M23.7,370.2h10.4c3.9,0,5.6-1.7,5.6-4.1c0-2.6-1.7-4.3-5.6-4.3H23.7v-2.3H34c5.4,0,7.6,2.8,7.6,6.6c0,3.6-2.1,6.3-7.5,6.3
		H23.7V370.2z"/>
	<path d="M42.3,357.6l-18.9-7.3v-1.8l18.9,7.3V357.6z"/>
	<path d="M28.7,335.9c0.9,0.1,1.9,0.1,3.5,0.1h7.3c2.9,0,4.7,0.6,5.7,1.8c1.1,1.2,1.5,3,1.5,4.6c0,1.5-0.4,3.2-1,4.2l-1.7-0.6
		c0.5-0.8,1-2.1,1-3.7c0-2.3-1.2-4.1-4.4-4.1h-1.4v0.1c1.2,0.7,2.1,2.1,2.1,4c0,3.1-2.7,5.4-6.1,5.4c-4.3,0-6.7-2.8-6.7-5.7
		c0-2.2,1.1-3.4,2.2-3.9V338l-1.9-0.1V335.9z M33.7,338.3c-0.4,0-0.7,0-1,0.1c-1.3,0.4-2.4,1.5-2.4,3.2c0,2.2,1.8,3.7,4.8,3.7
		c2.5,0,4.5-1.2,4.5-3.7c0-1.4-0.9-2.7-2.3-3.2c-0.4-0.1-0.8-0.2-1.2-0.2H33.7z"/>
</g>
<g>
	<path d="M15.2,154.9c-0.2-1.1-0.4-2.8-0.4-4.3c0-2.4,0.4-4,1.4-5.1c0.8-0.9,2-1.4,3.3-1.4c2.3,0,3.8,1.5,4.5,3.3h0.1
		c0.5-1.4,1.7-2.2,3.5-2.6c2.4-0.6,4.1-1,4.8-1.4v2.3c-0.5,0.3-2,0.7-4.2,1.2c-2.4,0.5-3.3,1.5-3.4,3.5v2.1h7.6v2.3H15.2z
		 M23.2,152.6v-2.3c0-2.4-1.3-4-3.3-4c-2.3,0-3.3,1.6-3.3,4c0,1.1,0.1,1.9,0.2,2.2H23.2z"/>
	<path d="M26.6,139.6c3.1-0.1,4.4-2,4.4-4.3c0-1.6-0.3-2.6-0.6-3.5l1.6-0.4c0.4,0.8,0.8,2.2,0.8,4.2c0,3.9-2.5,6.2-6.3,6.2
		c-3.8,0-6.8-2.2-6.8-5.9c0-4.1,3.6-5.2,5.9-5.2c0.5,0,0.8,0.1,1.1,0.1V139.6z M24.9,132.9c-1.5,0-3.7,0.6-3.7,3.2
		c0,2.3,2.1,3.3,3.7,3.5V132.9z"/>
	<path d="M32.5,120.9l-1.6,0.2v0.1c1,0.7,1.9,2.1,1.9,3.8c0,2.5-1.8,3.8-3.6,3.8c-3,0-4.7-2.7-4.7-7.6h-0.3c-1,0-2.9,0.3-2.9,2.9
		c0,1.2,0.4,2.4,0.9,3.3l-1.5,0.5c-0.7-1-1.1-2.5-1.1-4.1c0-3.8,2.6-4.8,5.1-4.8h4.7c1.1,0,2.2-0.1,3-0.2V120.9z M26,121.2
		c-0.1,2.5,0.4,5.3,2.8,5.3c1.5,0,2.2-1,2.2-2.2c0-1.6-1-2.7-2.1-3c-0.2-0.1-0.5-0.1-0.7-0.1H26z"/>
	<path d="M14,104.5h15.2c1.1,0,2.4,0,3.2-0.1v2.1l-2.2,0.1v0.1c1.4,0.7,2.5,2.2,2.5,4.3c0,3-2.6,5.4-6.4,5.4c-4.2,0-6.8-2.6-6.8-5.6
		c0-1.9,0.9-3.2,1.9-3.8v-0.1H14V104.5z M25,106.8c-0.3,0-0.7,0-1,0.1c-1.5,0.3-2.7,1.6-2.7,3.3c0,2.4,2.1,3.8,4.9,3.8
		c2.5,0,4.7-1.2,4.7-3.7c0-1.5-1-2.9-2.7-3.4c-0.3-0.1-0.6-0.1-1-0.1H25z"/>
	<path d="M30.1,101c0.4-0.7,0.9-1.9,0.9-3c0-1.7-0.8-2.4-1.9-2.4c-1.1,0-1.7,0.7-2.3,2.3c-0.8,2.3-2.1,3.3-3.6,3.3
		c-2,0-3.7-1.6-3.7-4.3c0-1.3,0.4-2.4,0.8-3.1l1.7,0.6c-0.3,0.5-0.7,1.4-0.7,2.6c0,1.4,0.8,2.1,1.7,2.1c1,0,1.5-0.8,2.1-2.4
		c0.8-2.2,1.9-3.3,3.8-3.3c2.2,0,3.8,1.7,3.8,4.7c0,1.4-0.3,2.7-0.9,3.5L30.1,101z"/>
</g>
<g>
	<path d="M151.1,208.1h-5.3v-1.9h13v1.9h-5.4v15.6h-2.3V208.1z"/>
	<path d="M162.8,207.6c0,0.8-0.5,1.4-1.5,1.4c-0.8,0-1.4-0.6-1.4-1.4c0-0.8,0.6-1.4,1.4-1.4C162.3,206.2,162.8,206.8,162.8,207.6z
		 M160.3,223.7v-12.6h2.3v12.6H160.3z"/>
	<path d="M166.4,214.5c0-1.3,0-2.4-0.1-3.4h2l0.1,2h0.1c0.7-1.2,1.9-2.3,4-2.3c1.7,0,3,1,3.6,2.5h0.1c0.4-0.7,0.9-1.2,1.4-1.6
		c0.8-0.6,1.6-0.9,2.8-0.9c1.7,0,4.1,1.1,4.1,5.5v7.4h-2.2v-7.1c0-2.4-0.9-3.9-2.7-3.9c-1.3,0-2.3,1-2.7,2.1
		c-0.1,0.3-0.2,0.7-0.2,1.1v7.8h-2.2v-7.5c0-2-0.9-3.5-2.6-3.5c-1.4,0-2.5,1.1-2.8,2.3c-0.1,0.3-0.2,0.7-0.2,1.1v7.6h-2.2V214.5z"/>
	<path d="M189.3,217.8c0.1,3.1,2,4.4,4.3,4.4c1.6,0,2.6-0.3,3.5-0.7l0.4,1.6c-0.8,0.4-2.2,0.8-4.2,0.8c-3.9,0-6.2-2.5-6.2-6.3
		s2.2-6.8,5.9-6.8c4.1,0,5.2,3.6,5.2,5.9c0,0.5-0.1,0.8-0.1,1.1H189.3z M196,216.2c0-1.5-0.6-3.7-3.2-3.7c-2.3,0-3.3,2.1-3.5,3.7
		H196z"/>
</g>
<g>
	<path class="st0" d="M498.5,232.2h-0.8c-1.2,0-1.4-0.5-1.4-1.4v-15.5h0c-0.2,0.8-1.8,4.9-2.1,5.6l-3.8,9.4
		c-0.5,1.3-1.3,1.3-2.3,1.3s-1.7,0-2.3-1.3l-3.5-8.5c-0.7-1.8-2.1-5.1-2.4-6.4h0v15.5c0,1-0.3,1.4-1.4,1.4h-0.8
		c-1.1,0-1.4-0.4-1.4-1.4v-17.9c0-1.1,0.4-1.4,1.4-1.4h2.5c0.5,0,1.5,0,2,1.2l3.8,9.5c0.6,1.6,1.9,4.6,2.1,5.6h0
		c0.2-1,1.4-3.8,2-5.3l4-9.7c0.5-1.2,1.3-1.3,2-1.3h2.5c1.2,0,1.4,0.5,1.4,1.4v17.9C499.9,231.8,499.6,232.2,498.5,232.2z"/>
	<path class="st0" d="M514.8,232.2h-7.9c-1.1,0-1.4-0.4-1.4-1.4v-17.9c0-1.1,0.4-1.4,1.4-1.4h7.9c2,0,5.5,0.4,7.8,3.2
		c1.7,2.1,2.1,5,2.1,7.4C524.7,227.8,522.1,232.2,514.8,232.2z M513.6,214h-3.8v15.7h3.9c6.4,0,6.7-4.3,6.7-7.7
		C520.3,218.6,520.1,214,513.6,214z"/>
	<path class="st0" d="M535.7,232.9c-0.8,0-2.4-0.1-4.4-0.7c-0.1-0.1-3.3-1.1-3.3-1.8c0-0.1,0-0.2,0.1-0.4l0.5-2.6
		c0.1-0.5,0.2-0.5,0.4-0.5c0.1,0,0.2,0,0.5,0.4c1.5,1.3,3.7,2.4,6.2,2.4c1,0,3.6-0.1,3.6-2.9c0-1.1-0.6-1.8-0.9-2.1
		c-0.7-0.6-1.3-0.8-3-1.1c-2.3-0.5-3.7-0.8-5.3-2.4c-0.6-0.6-1.7-2-1.7-4.1c0-5.6,4.6-6.2,7.3-6.2c1.5,0,3.3,0.2,5.4,1.2
		c0.8,0.4,0.8,0.4,0.8,0.7c0,0.1,0,0.2-0.1,0.4l-0.4,2.6c-0.1,0.5-0.2,0.5-0.4,0.5c-0.1,0-0.1,0-0.6-0.5c-1.5-1.4-3-1.8-4.6-1.8
		c-1,0-3.6,0.1-3.6,2.6c0,1.7,1.9,2.4,2.5,2.5l2.9,0.7c3,0.7,5.5,3.2,5.5,6.6C543,230.9,540.2,232.9,535.7,232.9z"/>
	<path class="st0" d="M550.6,232.2H549c-1.1,0-1.4-0.4-1.4-1.4v-17.9c0-1.1,0.4-1.4,1.4-1.4h1.5c1.2,0,1.4,0.5,1.4,1.4v17.9
		C552,231.8,551.7,232.2,550.6,232.2z"/>
	<path class="st0" d="M574.4,232.2h-2.8c-0.6,0-1.5,0-2.1-1.2l-8.2-16h0v15.8c0,1-0.3,1.4-1.4,1.4h-0.8c-1.1,0-1.4-0.4-1.4-1.4
		v-17.9c0-1.1,0.4-1.4,1.4-1.4h2.8c0.6,0,1.5,0,2.1,1.2l8.2,16h0v-15.7c0-1,0.3-1.4,1.4-1.4h0.8c1.2,0,1.4,0.5,1.4,1.4v17.9
		C575.8,231.8,575.5,232.2,574.4,232.2z"/>
	<path class="st0" d="M595,232.2h-12.2c-1.1,0-1.4-0.4-1.4-1.4v-17.8c0-1.1,0.4-1.4,1.4-1.4h11.8c1.2,0,1.4,0.5,1.4,1.4v0.2
		c0,1.4-0.7,1.4-1.7,1.4l-7-0.1h-1.5v5.5h7.9c1,0,1.4,0.3,1.4,1.4c0,1.2-0.5,1.4-1.4,1.4h-7.9v6.2l4.4-0.1l4.6-0.1
		c1,0,1.7,0,1.7,1.4v0.4C596.4,231.8,596.1,232.2,595,232.2z"/>
	<path class="st0" d="M611.2,232.2h-10.3c-1.1,0-1.4-0.4-1.4-1.4v-0.2c0-0.5,0-0.6,0.3-0.9l5.7-6.1c1.8-1.9,2.9-3.9,2.9-5.8
		c0-1.8-1-4-3.3-4c-1.9,0-2.9,1.3-3.5,3.3c-0.1,0.4-0.2,0.6-0.4,0.6c-0.2,0-0.3-0.1-0.5-0.4l-1.5-1.9c0.5-2,1.9-3.1,2.2-3.3
		c1.4-1.2,3.1-1.3,4.2-1.3c4.4,0,7,3.2,7,6.9c0,2.7-1.6,4.3-3.3,5.9c-0.5,0.4-1.6,1.3-2,1.7l-4,3.8h4.9l2,0c0.6,0,1.6,0,1.8,0.1
		c0.6,0.3,0.6,0.8,0.6,1.3v0.4C612.7,231.8,612.4,232.2,611.2,232.2z"/>
</g>
<g>
	<path d="M151.1,435.2h-5.3v-1.9h13v1.9h-5.4v15.6h-2.3V435.2z"/>
	<path d="M162.8,434.7c0,0.8-0.5,1.4-1.5,1.4c-0.8,0-1.4-0.6-1.4-1.4c0-0.8,0.6-1.4,1.4-1.4C162.3,433.3,162.8,433.9,162.8,434.7z
		 M160.3,450.8v-12.6h2.3v12.6H160.3z"/>
	<path d="M166.3,441.6c0-1.3,0-2.4-0.1-3.4h2l0.1,2h0.1c0.7-1.2,1.9-2.3,4-2.3c1.7,0,3,1,3.6,2.5h0.1c0.4-0.7,0.9-1.2,1.4-1.6
		c0.8-0.6,1.6-0.9,2.8-0.9c1.7,0,4.1,1.1,4.1,5.5v7.4h-2.2v-7.1c0-2.4-0.9-3.9-2.7-3.9c-1.3,0-2.3,1-2.7,2.1
		c-0.1,0.3-0.2,0.7-0.2,1.1v7.8h-2.2v-7.5c0-2-0.9-3.5-2.6-3.5c-1.4,0-2.5,1.1-2.8,2.3c-0.1,0.3-0.2,0.7-0.2,1.1v7.6h-2.2V441.6z"/>
	<path d="M189.3,444.9c0.1,3.1,2,4.4,4.3,4.4c1.6,0,2.6-0.3,3.5-0.7l0.4,1.6c-0.8,0.4-2.2,0.8-4.2,0.8c-3.9,0-6.2-2.5-6.2-6.3
		s2.2-6.8,5.9-6.8c4.1,0,5.2,3.6,5.2,5.9c0,0.5-0.1,0.8-0.1,1.1H189.3z M196,443.3c0-1.5-0.6-3.7-3.2-3.7c-2.3,0-3.3,2.1-3.5,3.7
		H196z"/>
</g>
<g>
	<rect x="1006" y="58.4" class="st21" width="28" height="28"/>
	<rect x="1006" y="86.4" class="st22" width="28" height="28"/>
	<g>
		<path d="M958.1,76.5c-1.3,0-2.2-0.6-2.8-1.2v5h-1.6V67h1.6v1c1-0.8,2.2-1.3,3.4-1.3c2,0,3.3,2.4,3.3,4.9
			C961.9,74.5,960.1,76.5,958.1,76.5z M957.5,68.1c-0.9,0-1.7,0.5-2.2,1.2v4.2c0,0.4,0,0.4,0.2,0.7c0.4,0.6,1,1,1.8,1
			c1.6,0,3.1-1.5,3.1-3.6C960.3,69.7,959,68.1,957.5,68.1z"/>
		<path d="M965.5,71.7c0.1,2.1,1.4,3.5,3.1,3.5c0.5,0,1.9-0.1,3.2-1.2l0.1,1.4c-0.8,0.6-2,1.1-3.3,1.1c-2.5,0-4.5-2.2-4.5-5
			c0-2.7,1.9-4.9,4.2-4.9c0.8,0,2,0.2,2.9,1.5c0.8,1.3,0.8,2.8,0.8,3.5H965.5z M968.3,67.9c-1.2,0-2.3,1-2.6,2.6h5.2
			C970.5,68.6,969.4,67.9,968.3,67.9z"/>
		<path d="M975.9,71.8v4.5h-1.6v-9.4h1.5v1.9c0.7-1,1.8-2,3.7-2v1.4C977.4,68.2,975.9,69.7,975.9,71.8z"/>
		<path d="M983.7,76.5c-1.4,0-1.7-1.5-1.7-2.7v-5.6h-1.8V67h1.8v-2.7h1.4V67h3v1.2h-3v5.2c0,1.1,0.3,1.7,1.1,1.7
			c0.7,0,1.3-0.3,1.9-0.7l0.3,1.2C986.3,76,985.2,76.5,983.7,76.5z"/>
		<path d="M989.4,76.3v-1.2h2.6V64.2c-1,0.4-2.1,0.5-2.8,0.5v-1.2c1,0,2.8-0.1,4-1.4h0.4v13h2.6v1.2H989.4z"/>
	</g>
	<g>
		<path d="M958.2,105.8c-1.3,0-2.2-0.6-2.8-1.2v5h-1.6V96.3h1.6v1c1-0.8,2.2-1.3,3.4-1.3c2,0,3.3,2.4,3.3,4.9
			C962.1,103.8,960.3,105.8,958.2,105.8z M957.6,97.4c-0.9,0-1.7,0.5-2.2,1.2v4.2c0,0.4,0,0.4,0.2,0.7c0.4,0.6,1,1,1.8,1
			c1.6,0,3.1-1.5,3.1-3.6C960.5,99,959.2,97.4,957.6,97.4z"/>
		<path d="M965.7,101c0.1,2.1,1.4,3.5,3.1,3.5c0.5,0,1.9-0.1,3.2-1.2l0.1,1.4c-0.8,0.6-2,1.1-3.3,1.1c-2.5,0-4.5-2.2-4.5-5
			c0-2.7,1.9-4.9,4.2-4.9c0.8,0,2,0.2,2.9,1.5c0.8,1.3,0.8,2.8,0.8,3.5H965.7z M968.4,97.2c-1.2,0-2.3,1-2.6,2.6h5.2
			C970.7,97.9,969.5,97.2,968.4,97.2z"/>
		<path d="M976.1,101.1v4.5h-1.6v-9.4h1.5V98c0.7-1,1.8-2,3.7-2v1.4C977.6,97.5,976.1,99,976.1,101.1z"/>
		<path d="M983.9,105.8c-1.4,0-1.7-1.5-1.7-2.7v-5.6h-1.8v-1.2h1.8v-2.7h1.4v2.7h3v1.2h-3v5.2c0,1.1,0.3,1.7,1.1,1.7
			c0.7,0,1.3-0.3,1.9-0.7l0.3,1.2C986.4,105.3,985.4,105.8,983.9,105.8z"/>
		<path d="M988.6,105.6v-1.3l2.6-2.6l1.6-1.5c1.2-1.3,2.4-2.5,2.4-4.2c0-1.6-1.1-3.2-3-3.2c-1.9,0-2.5,1.6-2.9,3.3
			c-0.2-0.3-0.4-0.6-0.5-0.6c0-0.1-0.1-0.2-0.4-0.5c0.5-1.8,1.7-3.4,4.1-3.4c2.8,0,4.5,2.1,4.5,4.5c0,1.8-1.1,2.9-2.1,3.8
			c-0.4,0.4-1.5,1.3-1.9,1.6c-0.7,0.6-2.2,2.2-2.9,2.8h2.3c0.3,0,0.5,0,0.8,0h3.8v1.5H988.6z"/>
	</g>
</g>
<g>
	<rect x="750.1" y="313.6" class="st23" width="28" height="28"/>
	<rect x="750.1" y="341.6" class="st21" width="28" height="28"/>
	<g>
		<path d="M703.2,332.9c-1.3,0-2.2-0.6-2.8-1.2v5h-1.6v-13.4h1.6v1c1-0.8,2.2-1.3,3.4-1.3c2,0,3.3,2.4,3.3,4.9
			C707.1,330.9,705.3,332.9,703.2,332.9z M702.6,324.5c-0.9,0-1.7,0.5-2.2,1.2v4.2c0,0.4,0,0.4,0.2,0.7c0.4,0.6,1,1,1.8,1
			c1.6,0,3.1-1.5,3.1-3.6C705.5,326.1,704.2,324.5,702.6,324.5z"/>
		<path d="M710.7,328.1c0.1,2.1,1.4,3.5,3.1,3.5c0.5,0,1.9-0.1,3.2-1.2l0.1,1.4c-0.8,0.6-2,1.1-3.3,1.1c-2.5,0-4.5-2.2-4.5-5
			c0-2.7,1.9-4.9,4.2-4.9c0.8,0,2,0.2,2.9,1.5c0.8,1.3,0.8,2.8,0.8,3.5H710.7z M713.4,324.3c-1.2,0-2.3,1-2.6,2.6h5.2
			C715.7,325,714.5,324.3,713.4,324.3z"/>
		<path d="M721.1,328.2v4.5h-1.6v-9.4h1.5v1.9c0.7-1,1.8-2,3.7-2v1.4C722.6,324.6,721.1,326.1,721.1,328.2z"/>
		<path d="M728.9,332.9c-1.4,0-1.7-1.5-1.7-2.7v-5.6h-1.8v-1.2h1.8v-2.7h1.4v2.7h3v1.2h-3v5.2c0,1.1,0.3,1.7,1.1,1.7
			c0.7,0,1.3-0.3,1.9-0.7l0.3,1.2C731.4,332.4,730.4,332.9,728.9,332.9z"/>
		<path d="M734.6,332.7v-1.2h2.6v-10.9c-1,0.4-2.1,0.5-2.8,0.5v-1.2c1,0,2.8-0.1,4-1.4h0.4v13h2.6v1.2H734.6z"/>
	</g>
	<g>
		<path d="M703.8,359.4c-1.3,0-2.2-0.6-2.8-1.2v5h-1.6v-13.4h1.6v1c1-0.8,2.2-1.3,3.4-1.3c2,0,3.3,2.4,3.3,4.9
			C707.6,357.3,705.8,359.4,703.8,359.4z M703.2,350.9c-0.9,0-1.7,0.5-2.2,1.2v4.2c0,0.4,0,0.4,0.2,0.7c0.4,0.6,1,1,1.8,1
			c1.6,0,3.1-1.5,3.1-3.6C706,352.5,704.7,350.9,703.2,350.9z"/>
		<path d="M711.2,354.6c0.1,2.1,1.4,3.5,3.1,3.5c0.5,0,1.9-0.1,3.2-1.2l0.1,1.4c-0.8,0.6-2,1.1-3.3,1.1c-2.5,0-4.5-2.2-4.5-5
			c0-2.7,1.9-4.9,4.2-4.9c0.8,0,2,0.2,2.9,1.5c0.8,1.3,0.8,2.8,0.8,3.5H711.2z M714,350.8c-1.2,0-2.3,1-2.6,2.6h5.2
			C716.2,351.5,715.1,350.8,714,350.8z"/>
		<path d="M721.6,354.7v4.5h-1.6v-9.4h1.5v1.9c0.7-1,1.8-2,3.7-2v1.4C723.1,351.1,721.6,352.6,721.6,354.7z"/>
		<path d="M729.4,359.4c-1.4,0-1.7-1.5-1.7-2.7v-5.6h-1.8v-1.2h1.8v-2.7h1.4v2.7h3v1.2h-3v5.2c0,1.1,0.3,1.7,1.1,1.7
			c0.7,0,1.3-0.3,1.9-0.7l0.3,1.2C732,358.9,730.9,359.4,729.4,359.4z"/>
		<path d="M734.1,359.2v-1.3l2.6-2.6l1.6-1.5c1.2-1.3,2.4-2.5,2.4-4.2c0-1.6-1.1-3.2-3-3.2c-1.9,0-2.5,1.6-2.9,3.3
			c-0.2-0.3-0.4-0.6-0.5-0.6c0-0.1-0.1-0.2-0.4-0.5c0.5-1.8,1.7-3.4,4.1-3.4c2.8,0,4.5,2.1,4.5,4.5c0,1.8-1.1,2.9-2.1,3.8
			c-0.4,0.4-1.5,1.3-1.9,1.6c-0.7,0.6-2.2,2.2-2.9,2.8h2.3c0.3,0,0.5,0,0.8,0h3.8v1.5H734.1z"/>
	</g>
</g>
<g>
	<rect x="1078.3" y="313.6" class="st22" width="28" height="28"/>
	<rect x="1078.3" y="341.6" class="st23" width="28" height="28"/>
	<g>
		<path d="M1033.3,332.5c-1.3,0-2.2-0.6-2.8-1.2v5h-1.6V323h1.6v1c1-0.8,2.2-1.3,3.4-1.3c2,0,3.3,2.4,3.3,4.9
			C1037.2,330.5,1035.3,332.5,1033.3,332.5z M1032.7,324.1c-0.9,0-1.7,0.5-2.2,1.2v4.2c0,0.4,0,0.4,0.2,0.7c0.4,0.6,1,1,1.8,1
			c1.6,0,3.1-1.5,3.1-3.6C1035.5,325.7,1034.3,324.1,1032.7,324.1z"/>
		<path d="M1040.7,327.7c0.1,2.1,1.4,3.5,3.1,3.5c0.5,0,1.9-0.1,3.2-1.2l0.1,1.4c-0.8,0.6-2,1.1-3.3,1.1c-2.5,0-4.5-2.2-4.5-5
			c0-2.7,1.9-4.9,4.2-4.9c0.8,0,2,0.2,2.9,1.5c0.8,1.3,0.8,2.8,0.8,3.5H1040.7z M1043.5,323.9c-1.2,0-2.3,1-2.6,2.6h5.2
			C1045.7,324.6,1044.6,323.9,1043.5,323.9z"/>
		<path d="M1051.1,327.8v4.5h-1.6v-9.4h1.5v1.9c0.7-1,1.8-2,3.7-2v1.4C1052.6,324.2,1051.1,325.7,1051.1,327.8z"/>
		<path d="M1058.9,332.5c-1.4,0-1.7-1.5-1.7-2.7v-5.6h-1.8V323h1.8v-2.7h1.4v2.7h3v1.2h-3v5.2c0,1.1,0.3,1.7,1.1,1.7
			c0.7,0,1.3-0.3,1.9-0.7l0.3,1.2C1061.5,332,1060.4,332.5,1058.9,332.5z"/>
		<path d="M1064.6,332.3v-1.2h2.6v-10.9c-1,0.4-2.1,0.5-2.8,0.5v-1.2c1,0,2.8-0.1,4-1.4h0.4v13h2.6v1.2H1064.6z"/>
	</g>
	<g>
		<path d="M1033.6,363.5c-1.3,0-2.2-0.6-2.8-1.2v5h-1.6v-13.4h1.6v1c1-0.8,2.2-1.3,3.4-1.3c2,0,3.3,2.4,3.3,4.9
			C1037.5,361.4,1035.6,363.5,1033.6,363.5z M1033,355c-0.9,0-1.7,0.5-2.2,1.2v4.2c0,0.4,0,0.4,0.2,0.7c0.4,0.6,1,1,1.8,1
			c1.6,0,3.1-1.5,3.1-3.6C1035.8,356.6,1034.6,355,1033,355z"/>
		<path d="M1041.1,358.6c0.1,2.1,1.4,3.5,3.1,3.5c0.5,0,1.9-0.1,3.2-1.2l0.1,1.4c-0.8,0.6-2,1.1-3.3,1.1c-2.5,0-4.5-2.2-4.5-5
			c0-2.7,1.9-4.9,4.2-4.9c0.8,0,2,0.2,2.9,1.5c0.8,1.3,0.8,2.8,0.8,3.5H1041.1z M1043.8,354.8c-1.2,0-2.3,1-2.6,2.6h5.2
			C1046.1,355.5,1044.9,354.8,1043.8,354.8z"/>
		<path d="M1051.5,358.7v4.5h-1.6v-9.4h1.5v1.9c0.7-1,1.8-2,3.7-2v1.4C1053,355.1,1051.5,356.6,1051.5,358.7z"/>
		<path d="M1059.3,363.5c-1.4,0-1.7-1.5-1.7-2.7v-5.6h-1.8v-1.2h1.8v-2.7h1.4v2.7h3v1.2h-3v5.2c0,1.1,0.3,1.7,1.1,1.7
			c0.7,0,1.3-0.3,1.9-0.7l0.3,1.2C1061.8,362.9,1060.7,363.5,1059.3,363.5z"/>
		<path d="M1064,363.2v-1.3l2.6-2.6l1.6-1.5c1.2-1.3,2.4-2.5,2.4-4.2c0-1.6-1.1-3.2-3-3.2c-1.9,0-2.5,1.6-2.9,3.3
			c-0.2-0.3-0.4-0.6-0.5-0.6c0-0.1-0.1-0.2-0.4-0.5c0.5-1.8,1.7-3.4,4.1-3.4c2.8,0,4.5,2.1,4.5,4.5c0,1.8-1.1,2.9-2.1,3.8
			c-0.4,0.4-1.5,1.3-1.9,1.6c-0.7,0.6-2.2,2.2-2.9,2.8h2.3c0.3,0,0.5,0,0.8,0h3.8v1.5H1064z"/>
	</g>
</g>
<g>
	<g>
		<line class="st24" x1="418.3" y1="224" x2="360.8" y2="224"/>
		<g>
			<polygon points="414.7,211.5 436.3,224 414.7,236.4 			"/>
		</g>
	</g>
</g>
<g>
	<g>
		<line class="st24" x1="702.4" y1="220.7" x2="644.9" y2="220.7"/>
		<g>
			<polygon points="698.8,208.2 720.4,220.7 698.8,233.1 			"/>
		</g>
	</g>
</g>
<g>
</g>
<g>
</g>
<g>
</g>
<g>
</g>
<g>
</g>
<g>
</g>
<g>
</g>
</svg>
